<mxfile host="app.diagrams.net" modified="2023-05-26T20:02:57.185Z" agent="Mozilla/5.0 (Windows NT 10.0; Win64; x64) AppleWebKit/537.36 (KHTML, like Gecko) Chrome/110.0.0.0 Safari/537.36" etag="QdqDpClogs4ObBbS0fOo" version="21.3.0" type="device">
  <diagram name="Seite-1" id="wwAamYt8I1hdl8Tr1vAW">
    <mxGraphModel dx="1509" dy="838" grid="1" gridSize="10" guides="1" tooltips="1" connect="1" arrows="1" fold="1" page="1" pageScale="1" pageWidth="827" pageHeight="1169" math="0" shadow="0">
      <root>
        <mxCell id="0" />
        <mxCell id="1" parent="0" />
        <mxCell id="HJUOC0QFOHcw_SWBB-Hj-87" value="" style="rounded=0;whiteSpace=wrap;html=1;fillColor=none;" vertex="1" parent="1">
          <mxGeometry x="292" y="540" width="216" height="90" as="geometry" />
        </mxCell>
        <mxCell id="HJUOC0QFOHcw_SWBB-Hj-61" value="" style="shape=image;verticalLabelPosition=bottom;labelBackgroundColor=default;verticalAlign=top;aspect=fixed;imageAspect=0;image=data:image/svg+xml,PHN2ZyB4bWxucz0iaHR0cDovL3d3dy53My5vcmcvMjAwMC9zdmciIHdpZHRoPSI0OCIgdmlld0JveD0iMCAtOTYwIDk2MCA5NjAiIGhlaWdodD0iNDgiPjxwYXRoIGQ9Ik00NzkuNS0yNjZxNzIuNSAwIDEyMS41LTQ5dDQ5LTEyMS41cTAtNzIuNS00OS0xMjFUNDc5LjUtNjA2cS03Mi41IDAtMTIxIDQ4LjV0LTQ4LjUgMTIxcTAgNzIuNSA0OC41IDEyMS41dDEyMSA0OVptMC02MHEtNDcuNSAwLTc4LjUtMzEuNXQtMzEtNzlxMC00Ny41IDMxLTc4LjV0NzguNS0zMXE0Ny41IDAgNzkgMzF0MzEuNSA3OC41cTAgNDcuNS0zMS41IDc5dC03OSAzMS41Wk0xNDAtMTIwcS0yNCAwLTQyLTE4dC0xOC00MnYtNTEzcTAtMjMgMTgtNDEuNXQ0Mi0xOC41aDE0N2w3My04N2gyNDBsNzMgODdoMTQ3cTIzIDAgNDEuNSAxOC41VDg4MC02OTN2NTEzcTAgMjQtMTguNSA0MlQ4MjAtMTIwSDE0MFptNjgwLTYwdi01MTNINjQ1bC03My04N0gzODhsLTczIDg3SDE0MHY1MTNoNjgwWk00ODAtNDM2WiIvPjwvc3ZnPg==;" vertex="1" parent="1">
          <mxGeometry x="510" y="90" width="30" height="30" as="geometry" />
        </mxCell>
        <mxCell id="HJUOC0QFOHcw_SWBB-Hj-60" value="" style="rounded=1;whiteSpace=wrap;html=1;fillColor=none;" vertex="1" parent="1">
          <mxGeometry x="370" y="85" width="180" height="130" as="geometry" />
        </mxCell>
        <mxCell id="HJUOC0QFOHcw_SWBB-Hj-1" value="" style="shape=image;verticalLabelPosition=bottom;labelBackgroundColor=default;verticalAlign=top;aspect=fixed;imageAspect=0;image=data:image/svg+xml,PHN2ZyB4bWxucz0iaHR0cDovL3d3dy53My5vcmcvMjAwMC9zdmciIGZpbGw9Im5vbmUiIHZpZXdCb3g9IjAgMCAyNTYgMTI4IiBoZWlnaHQ9IjEyOCIgd2lkdGg9IjI1NiI+JiN4YTs8cmVjdCBmaWxsPSJ3aGl0ZSIgaGVpZ2h0PSIxMjgiIHdpZHRoPSIyNTYiLz4mI3hhOzxwYXRoIHN0cm9rZT0iYmxhY2siIGQ9Ik05My41IDYwTDEwNSA1NkwxMTkgNTNMMTMxIDU2TDE0Mi41IDY5TDE0NSA4NkwxMzkgMTA2TDEyOC41IDExOEwxMTQuNSAxMjQuNUwxMDIuNSAxMjMuNUw5MSAxMThMODMuNSAxMTBMODAuNSA5MS41TDgzLjUgNzRMOTMuNSA2MFoiLz4mI3hhOzxwYXRoIHN0cm9rZT0iYmxhY2siIGQ9Ik0yMzUuNSA2N0wyMjcgNzguNUwyMTQgODhMMjAyIDg2LjVMMTkxLjUgODBMMTg1IDcxTDE4NC41IDU4LjVMMTkwLjUgNDIuNUwyMDAuNSAzMkwyMTEuNSAyOEgyMTlMMjI5IDMyTDIzOCA0MC41TDIzOS41IDUzLjVMMjM1LjUgNjdaIi8+JiN4YTs8cGF0aCBzdHJva2U9ImJsYWNrIiBkPSJNMTQzLjUgNzRMMTYwIDY5LjVMMTY3IDY2LjVMMTc1IDcxTDE4NS41IDY2LjUiLz4mI3hhOzxwYXRoIHN0cm9rZT0iYmxhY2siIGQ9Ik0yMTcuNSAyOEwyMTAuNSAyNC41TDIwMS41IDIwLjVMMTkyLjUgMTZMMTg2LjUgMTIuNUwxNzYgMTRMMTY5IDE3TDE2Ny41IDExLjVMMTYwIDdMMTUyLjUgNEgxNDQuNUwxMzcgN0wxMzIgMTIuNUwxMzAuNSAxOC41VjIzTDExOCAyNi41TDk2IDMyTDgyIDM4TDc1LjUgMzJMNjcuNSAyNi41SDY0TDYyLjUgMjAuNUw1NyAxOC41TDQ4IDE3TDM5IDE2VjdMMTkuNSAxMi41TDIxIDE2TDE3IDE4LjVMMTYgNTEuNUw1NC41IDU3LjVWNzJMNjQgNjlWOTZMODAuNSA5MC41Ii8+JiN4YTs8cGF0aCBzdHJva2U9ImJsYWNrIiBkPSJNNDAgNTVMMjYgNTlMMjUuNSA2Mi41TDQ0IDc2LjVMNjQgNzAiLz4mI3hhOzxwYXRoIHN0cm9rZT0iYmxhY2siIGQ9Ik0yMy41IDUzTDI1IDY1TDMzLjUgNzZMNDQgODFMNTQuNSA3OS41TDY0IDc2Ii8+JiN4YTs8cGF0aCBzdHJva2U9ImJsYWNrIiBkPSJNNTUgNThMNjAuNSA1NC41VjI3TDU5IDIyVjE5Ii8+JiN4YTs8cGF0aCBzdHJva2U9ImJsYWNrIiBkPSJNMzAgMjZMMzguNSAyN0w0Mi41IDI5TDQ2IDM1LjVMNDYuNSA0M0w0MSA1MUwzMi41IDUyLjVMMjUgNTAuNUwyMCA0M0wyMSAzNkwyMyAzMC41TDMwIDI2WiIvPiYjeGE7PC9zdmc+;" vertex="1" parent="1">
          <mxGeometry x="20" y="200" width="120" height="60" as="geometry" />
        </mxCell>
        <mxCell id="HJUOC0QFOHcw_SWBB-Hj-6" value="Schritt 1:&lt;br&gt;Messobjekt aufstellen" style="text;html=1;strokeColor=none;fillColor=none;align=center;verticalAlign=middle;whiteSpace=wrap;rounded=0;" vertex="1" parent="1">
          <mxGeometry width="160" height="50" as="geometry" />
        </mxCell>
        <mxCell id="HJUOC0QFOHcw_SWBB-Hj-9" value="" style="shape=image;verticalLabelPosition=bottom;labelBackgroundColor=default;verticalAlign=top;aspect=fixed;imageAspect=0;image=data:image/jpeg,/9j/4AAQSkZJRgABAQAAAQABAAD/2wBDAAMCAgICAgMCAgIDAwMDBAYEBAQEBAgGBgUGCQgKCgkICQkKDA8MCgsOCwkJDRENDg8QEBEQCgwSExIQEw8QEBD/2wBDAQMDAwQDBAgEBAgQCwkLEBAQEBAQEBAQEBAQEBAQEBAQEBAQEBAQEBAQEBAQEBAQEBAQEBAQEBAQEBAQEBAQEBD/wAARCAEsASwDAREAAhEBAxEB/8QAHQABAAICAwEBAAAAAAAAAAAAAAgJAQcCBQYEA//EAGEQAAECBQICAggKFQoDBwUAAAECAwAEBQYRBwgSITFBCRMiMjhRYXUUQlVxc5GVsbLSFRYXGSMzNDU3UlRXcnR2gZKUs9HTGCQ2Q0VYk6G0wyhlg0dTYoKFlsFESKKjpP/EABwBAQABBQEBAAAAAAAAAAAAAAACAQUGBwgDBP/EAEERAAIBAgIFBQ0HBAMBAQAAAAABAgQRAwUGEiExcQcyQVGRExQVIjM0NVJhgaGxwRcjNlOS0eEWJCVCJkNy8PH/2gAMAwEAAhEDEQA/ALUIAQAgBACAEAc4AQAgDgtfB1QBD/VTcxqjrFqPOaA7PkSjs7STw3NekykLkqSCccLWcpWsEK54VkghI5FQA/CU7G7ad0sJqus2tupN5V50ZfmfksGJcK8bbakrKf0vzCAP2HYt9uJ/ty/vd0fw4Az86224+rd/e7o/hxS4Hzrvbh6tX97vD+FESth86724erV/e7w/hQFjHzrrbh6tX97uj+HAkZHYuduHq1f3u8P4cCLM/OuduHq1f3u8P4cChg9i524erV/e7w/hwKoDsXW3DP16v73dH8OBVmfnXO3D1av73eH8OBCw+dc7cPVq/vd4fw4FR86524erV/e7w/hwA+dc7cPVq/vd4fw4AfOutug5tV/UFtY71Sa6nKT4xlrpgDorh0S3Q7UWzd237VSr6kWrTk8c/Zt0O+iZky45qVLujGVpGSAkJPkX0QBI/QDX2xdxNjM3rZUwpCkKDFQpz5xMU+YxlTTqeXRzwoclDmOsCSVgbPHOKgzACAEAIAQAgBACAEAcIAQAgBACAEAc4AQAgCFWuOt977lb7mdru2KoKZkmz2q8r2ZJMtIMk4Uwy4nHEojKSUnKiSkYAUoASS0S0QsXQOxZWxbEkO1MN4cm5twAzE9MYAU88oDulHHrAYAwABAHvypI6VAeuYbitmzgZmWTz9ENfpiIuS6yawpvoZgzksf/AKhn9MRDWXWSWFP1X2D0bLfdDP6YiV11lO4z6n2D0bK/dLP+IIXQ7jP1X2GfRst90M/piF0U7jieq+wx6Nlfuln/ABBC6K9xxPVfYPRsr90s/wCIIXQ7jieq+wz6Nlvuhn9MQuinccT1X2D0bLfdDP6YhdDuM+p9g9Gy33Qz+mIXQ7jP1X2D0ZLfdLP6YhdDuWJ6r7B6Mlvuln9MQuh3LE9V9g9GS33Sz+mIXQ7lieq+wyJuXJwH2yT1BWYpdFHhzW9M5AhfPGRE0QIea/aAX9pBfS90u1pjhrTQKrqtNpOJeuy+crWhtOB23mVEYJyApPd5Cqg31t/3AWLuKsVi87Mme1vN8LNUpjyx6Jps1jumXUjo6+FWMKHMdYAGzMiAMxRgRQCJAQAgBACAEAcIAQAgBACAEAc4AQBC3W7W++dyV9Tm2LbBVBLS0sQzel6tklinsE8K5eXWnvlnBSVJIJIKUkAKUAJG6J6IWHoHYcnYNg07tErL/RJmZc7p+cfPfPOq9Mo+0BgDAAEAe5np+Tpcm9UKhMNy8tLoLjzziglDaBzUpR6gBk58kRlOMNsmTw8OWLJQgrtla27DdzP6m1BdladzsxJ2tJunts206pDtRdB74KBylscsDr5EjojE84zh461afoOjdAOT6NOu+sxXjtdiI1i4a+P7bnv1hf74x/vrG6WbO8A5d6i7DPyw171anv1hf74l35i9YeRZev8ARdg+WGverc9+sL/fE+/MXrIvKMuj/wBa7B8sNeP9tT36wv8AfDvzF6yqyrLvy12GPlgr3q1PfrC/3w78xesnHKsu/LXYPlgr3q1PfrC/3w78xesr4Ky/8tdg+WCverU9+sL/AHw78xeseCsv/LXYPlgr3q1PfrC/3w78xespLKsu/LXYZ+WKv+rc9+sL/fDvzF6zy8FZd+Wuwx8sFe9Wp79YX++HfmL1nqsqy78tdg+WCverU9+sL/fDvzF6yvgnLvy12D5YK96tT36wv98O/MXrHgnLvy12D5YK96tT36wv98O/MXrKPKcu/LXYdra+o972dX5K5aBck9Lz0i4HGll5SgfGlSScKSeggggiJRrMVSTuW6t0dy6spnT4sF43sLQttm5W39dLbS2stSVzyCB8k6eF555I7c2fTIOB4iknB8uc0VbGqicw6YaH1OjlS9n3bfis3eFZ5ER9rZhxDvcDoDfekd+L3TbXWe1VpvLt22s0k+h69LDulrS2OQewCTjBJ7pPdZCyBvjQDX6xtxNis3pZcyptxs9pqVMfUPRVOmOeWnUjo6CUq6FDn05AkgbPigEAIAQAgBACAEAcIAQAgBACAEAFr4OqAIYa26235uVvua2v7YZ4MSbJLN7Xo0T2mnS5VwuMS6xgKcICgSOajyScBagBI/RXRKx9BbCkrAsSQ7TKy/0SYmXBl+dfPfvOq9Mo+0BgDAAEAe1n6hJUqSfqNRm2ZaXlm1OuuurCEIQkZKiTyAAikpKKuz0wsKeNJQgrtla+7TdtO6rzT9iWJMuy9oy7hTMTKTwrqigefRjDXiBGVZyYwvN63vl6sWdG6AaAeDYrMKtXm+jqIvcPli0LcbfjHV2IcPlijsyadhw+WPKW8rccPlj1Ijh8sAOHyxQiOHywA4fLADh8sAOHywA4fLADh8sAOHywA4fLAqhw+WG8m2kdzZ94XFYNxSd1WrUnJKoyS+NtxB5EdaVD0yTjBSeREShiODTTLZmmV0udUrpqlXuWm7adydva7W6lt1xEhc0g2PkhTyvIHjdaPpkH1yQQQfLm1BXKqRyfphofU6OVL2Xw29jN3hWYuqMOIc7gdAb80hveY3RbWJZCK8Eld02sgH0PXJfILi0NggduwMkDmo90nushckDfG37cJY24qxWrzs19TbrSgxU6a+cTFPmcZLTifbwroUBy68UBs9JzAGYAQAgBACAEAcIAQAgBACAEAQu1s1vvjcvf01th2wVEy9PYyzel8M90xIMHv5dhYxxKOMEpOVHKRgBSgBJLRTRCwtA7GlLEsClolpZlKVTMypI7fOv4wp95QHdLPtAYAwABAHtqjUpKkybtQqEy3Ly7CFOOuuq4UNoAyVKUeQA8ZiMpKKbZPDw5YslCCu2Vp7td3U/qpNzFh2FNuS1psLKZiYSSF1FYOP8ACHLAOcnmeoRhlbm7qbxidHaA8n8cutWVivN/Ai/Fp5xuCK1VZCItokIhrX2FBFYqxS4iRIQAgBACAEAIAQAgBACAEAcoo1fYUSsdvZt43FYNxSl12pUXJGpySwtl5B6vTJI60qHIg8iIlhzdLJOLLVnOTU+c07wMdeKWmbZdylA13tvgcUzIXLT0J+SNPLg5kjm60Oktnp8aScHqJz2irVVROU9MdD6nRyp3N4bexm8iAoYUAfXj7zDiHO4Hb/fmkF7vbptrsslFaZy7ddqMI4Jevy2SXFpQnA7cASogcyRxJ7vkoDfG33cFYm4qyEXhZcypt5lQYqdNfUPRFPmOttxI8oPCroUBkdeKXBs+KgQAgBACAEAcIAQAgBACAIW62a2X5uVvuZ2w7YZ9yUlJY8F63q3ksU9gnhVLsKAypZOUkpIJIISQApYAknonohYWgdjSth2BTRLyjPdzEwvun5x89886r0yj7QGAMAAQB7eoVCSpck/UKhMol5aWaU8664eFCEJGSVHoAwIpKSirsnh4csWahBXbK1N3G7qa1VqMxYVhzbjNqSq+CYeQShVRWDjJI59q6wnPPkSOgRhWbZt3w9SG46N0A0AjlyVZWLx38CLsWdNPabj3bEIle5Rq4jytrbQIlF3K7xEiLECQgBACAEAIAQAgBACAEAIA5QAiktu8o9qO4tC77isK4pO6bVqbsjUZJfG26gnBHWlQ6FJPQQcgiJ4c3FppltzLLabOqV01QtaJaXtr3LW1rtb6GFPtSdzSCEioSHFg8/61sdJQcjygnB8udUNaqlbTlHTHQ+p0dqm0vu29jN5Yx1xcHuMNIea/6A3xpHfju6Pa40lmttgv3XaiOUtX5ZJBcUhvo7djJIGCT3Se776CBvXb7r9Yu4axGbxsx9TTrSu0VKmPkCZp0x1tuJ8XI8KuhQ5+MCaBs7pioMwAgBACAOEAIAQAgCF2tutN+7mL5nNse2CfLNOlz2m9b1Z7piQYUeFcuwr0yyONJI5k8hgBSgBJLRLRSxtBLEkrCsSn9qlpYccxNOYMxOPq7951fSpRI6OgAADAAEA9m89vP1CSpcm/UKjNNS0tLNqdeddVwoQgDJJPUAIpKSgryJ4eHLGkoYau2Vq7ut2k7qvNzFg2FOuy1qyyyiYmUnC6ioHrxjDQxyBHdA5PVGI5vm3dlqU50doBoBHLUqvMF476+gi5GO2vvNvpKOxCClZE0riJJ3JCKpERFQIAQAgBACAEAIAQAgBACAEAIAQAgDlFArI7izLwuKwrilLqtWpOyVSknAtp1B6R1pUPTJPQQeREShKUZXTLVnGTU+cU88DHh4si0nbZuZt7Xight5bchc0k2n0fTivPPrda+2QfXyDkHy5zQ1vfK2nKel+htVo5UPY3h9DN6xcrGGkOtwm3q/NK77md0e1mTT8sPCV3PaiU/wA1rsvkFxaWx/W4GSBgqPdJ7rIXUG9tvu4GxtxFiM3jZr623mVCXqdMmOUzTpkDJadT7eFDkoDl1gAbOBB6IAzACAEAcIAQAgCF2s+tl+bmr7mtse2GomWp0ueC9L1ZUosSLGe6l2Fp5KUrBSSlWVElIwApQAknopolYugliyliWHTgzLsgLmZpaQZidfwAp51QHdKJHrAYAwABAXttPaT8/I0mRfqNRm2peWlm1OuuurCEISkZJJPIACKSko7WTwsKVVJQgrtlau7XdtOaqzr9iWHNOS9qyyyl+YSrC6iscs5H9UMJIB6cZPUIwrOM474fe8To7QDQBZclV1ivN9fR/JF9MWjoNxbtiMRGSAikSSVhEyj2CPNuzKCPQCAEAIAQAgBACAEAIAQAgBACAEAIA5QBmCnqi53Fn3lclgXJJXXalSckqjIr423EHkeWClQ60kEgg8iDgx64dVLDkrFqzPLKXPKV01Ur6xaVtp3L25rvbqGnXWKfc0igGoU8uDJOObrQ6VNk/nSeR6ic1oa1VS2nKWmGh1To5UvZfD6Gbw4uKLmYcQ+3AaAX7pPfru6bayzwV9GXLptJoES9flv6xaUA4L2O6IHNRAUnux3QG89vuv8AY+4ixmbws+ZLMyzws1WlPLHommTWO6ZdTyPSFcKsAKAzy5gAbRgBACAOEAIAhZrZrdfO5a+pvbFtiqJl5CWPar1vVriMvJME8K5aXWnvlnmnIOVEEJISFLAEltFdE7B0EsaTsOwKUmWlWBxzEwvun5x89+86vpUon8wGAAAAIB7N57WoVGRpUk/UqjNtS0tLNqdddcVwpQgdKlHqA6zEXKMdsmTw8OWNJQgrtla27bdtO6qzrtj2PMOy9py7hS8+lWF1JYOCSR0NAg4SenkSOgRiecV3fC1cBnR+gGgEctSq8wV5v4EW4xy3WbeSUdiESi7kxEiu4R5y3lbiPQiIAQAgBACAEAIAQAgBACAEAIAQAgBACAEAIoDlFNkSmw7e0LvuSwbkkrrtSquyFSkV8bTqMHPjSoHkpJ6CDyIj0w6mUJKxas5yanzmndPjrxWWl7atzFA1yt3tbgbk7kp7QNRkuPOT/wB639sg5HiIJ9YnOKGuVUjlnTHQ6p0bqXs+7b8V/Q3lyWMKTy8Ri57jCCHu4Xb9fGk18K3T7V5RDVwsfRLsthA/m9wSoIK1Jb6O3YBJxzJ7pPd98BvTb5uCsjcTYbN42hMKamGSJeq01/CZinTQ75pxOSRzBKT0EY68gAbPBzAGYA4QBCvWzWu+dzt8ze2Pa9Ug1S5cli970bJ7RJMKUULl5dQPdrICxlPfHISQApQAknohovY2gdhSdgWHTu0ykt9EmJhzm/OPnvnnVemUT+YDAGAAIC9tp7ioVCRpUi/UajNtS0tLtqddddWEIQhIySSeQAAiknqq7J4WFKqkoQV2ytLdpu5mdV6i/YtiTLrNoyrhS/MJWUrqSxyJPPk1yyEkc85PUIwvN63vl6sWdHcn+gCy6Kq6xeO+h9H8kYItF3Y3Fu2IR5yAhErYRMixEGtpS4iZIQAgBACAEAIAQAgBACAEAIAQAgBACAEAIAQByim8CKWSKN2O4tK77hsK4pO6rVqDkhU5FfGw+jpB6wR6ZJ6Ck8iI9oTcGmnuLdmmV02d0rpqlXuWlbaNzVva7W+mXmFNU+6ZFA+SFO4geWMdta+2bPrkg8j1ZzagrlVI5Q0w0PqdHKl7L4b3M3kCFCLmYaQ93Aber90pvtzdJtWlg3cTWXLotdvlLV6W6XClscu3HviBzURkd1kKA3lt83A2HuLsdu8rKmltusKDFTpsxymafM4yWnB7ygMKHR0EADaUAQ53Kapak6z6onZ7oBPGmzC5UP3xczZz8ipNYB9DowQQtYKQrBBPGEgjuiAJBaLaI2NoNY0pYliU5DEsz3czMlAD86+e+eeUO+UfaAwBgACAPaz07J0qTen6hNsS0uwguOvPLDaEJHSVKPIDyxGclBXZPDw5Y0lCCu31Fa27jdvO6rzrtjWJNOS9py6ih59KiHKkoE4J8TY5EJOckZPUBhldm7qW4xOj9ANAFlqVXWK83t4fvxIvxad5t5LV2IRRkxEU7ldwiSK3EUIiAEAIAQAgBACAEAIAQAgBACAEAIAQAgBACAEAIAQAgUOUEk9jFkdxaN5XJYNySN12pU3JGpSDnbGnUHp5YKVDrSRkEHkRyMVhOVJJPBZas5yWmzqndPULxS0rbNuZtzXW3ksPONSVzSTYM9IceeLPS811qbJz1dyeR6s5zQ1yqltOWdMdDqnRupey+G9z+n/283nkRc9xhBDjcboTeOjN3TW7TbMn0NW5NJmLsthsEStelRzdWEAgB0JyogdJTxDCxhYEi9EtYrb120yomp9opKZKsMcS2HF5clX0nhcZXgd8lQIz1jB64Ajr2NeTauKxdQNZaiA7Xr3vOedm5hY+idpaCeBsnqCVOO8vLAEwT3KSo8sDMNxWK1mVobuN2dQ1TqMzYVmTC5a05R1TUwoEocqS0nHEojmGs5wnPPAJHQIwjOM374fe8TpDk/0BWXQWY1avN/Ai5yzFpS2G4bpKyESZUR88r3K2ESSISdhEkmjzeNBf7IRI9FOL3MRQkIqBAo2lvELMprR6xCzGtHrELDXj1iFmNaPWIWY1o9YhuK3QgVEAIFBCzIvEgt7QhZhYkHuaECYgBACBS6ELMprR6xCzGtHrELMa0esQKpp7hAqcoAEZihRuy2nbWhd1w2HcMndVrVJ2Rqci4FsvNk/nSodCknoKTkER6wk4NNMtuZZZTZ1TOmqV4partf3E0rX60HJxUuqUrlL4WqnLYwjiI7lxrxoVjo6QQR4ic3oaxVUTk3TDRmejdY8L/R81/ubpcbbdbU06hK0LBSpKhkEeKLkYiU13fuGu/ahqxqXo/YLswzQ5S8KhOyjDXEUS7bxQUtDB6EpCRz5wBNXsWnguq/Kep++3AoyXE59Svexq96KS2JnpTc+PEo7rgxWJ38Yd+GY1nVR++bO5Mma8HQ4I+SJI+kR5ybS2E3sO/saw7r1IuKXtazqQ9UajMZKW28AJA6VLUSAlI6yTE6OEqp2SLTnWd02TU7qKh6sUTt0j7HZY9GlUVHVWoTFcqKsKVKS61MyqDz5EjC19XPKRy6IyyjyZJXxjn/SLlUraubjQLVh8TftN22aEUuWTLS2ltvcCQEgrkW1qOPGSCT+cxcPBtO9moYHPSvN8d63dmeeu/Zvt7uyVUyvT+TpTxB4Zilkyq0/mR3J/8ySPJEZZTTTVtU+2i08zyhkrYza9tv8A9IZbgNj93aUSb1zWM+9clutZU4kNJTNyyfGpKcBweMpGRzOMRjtbkkqbxou6N1aL8puFm1qWr8TE+HaRjiyyVlY2zCSlFST2Ehtk+ltj6sak1eg35QkVSSlqK5NNNqdW3wOB5ocWUEHoJ5Rdcmo41UnrGruU/O6zJqfCxqOerdk3v5Fe2/73rP63MfHjKfBlOug0j9oWe/nPsX7AbK9t5/7PWv1uY+PFHllP1D7QM9f/AHPsRn+RVtw+941+tzHx48vB1P6o/rzPH/3PsQ/kU7cPveM/rkx8ePRZdT+oU/rzPPzn2IfyKdt/3vWf1yY+PFXl1P6hX+vM8/OfYjyeqm0Pb9QNNrkrdMsFlqckabMTLDnop88DiEEpOCvBwR18o+Gqy6n7g2kXjJtOs8qswwsDGxvFbSexFYwOYxF77HUuG24J+w+ulUmqV2qStGo0g9OTs66GWGGUFa1rPQABFYxk3ZHzZhXwy+DqKl2RNrRbsd7c3KtVrWiqOoWrhWKNIrA4Tz5OujOekck4/CMZPRZRsvjGitI+Vabk8DK/1fsScoO2DQS3mktSGltCVwdC5iWTML/Scyf84u3gumW5GtqrS7Oarn4792z5H4XHtR2/3NLKZnNMaPLrV/XSTXoVwf8AmbIPt8oPK6e24UumWc0jusdkVNc+x7VG3ZaZuPRypTFVYTlxdInFp9EgdfanOQXgelUAcDpMWCtyjpwDaWjfKpKoaps2/V0fwQ2m5SZkZl2TnGFsPsLKHG1pwpCh0giLC4tOzN6YWLDFgpwd0z8ooeu87W05GWqd0UinzbfGzNT8uw4noyhbiQoZ6eg9UIc5ItWdTlSUmJKO9ItMRsn21lCSdOmySBn+fTP8SM6jlNPbccqS5QM+Ta7u+xfscv5E22r73Lf69M/xIr4Kp+oj9oGf/nvsX7GP5E22n73Lf67M/wASKPKqfqH2gZ9+e+xfsdFcmwHb5WmFt0ykVGiOqB4XpKdWSk/gucST7UeUsop2rFyo+U3PaV7Z6xEzXLZDqFpZLP3DbLxuagsd084y1iZlkjpK2gTxAc+ac+UDpix1uVSpfGjtRt3RjlQo82tTVa1JvsI4EYOD1RZrbbG0YTjiJSi7oxFGSRmJXRCSsyc/YyzhF+eySfvOxkeRJ2n7jQHLIl3XA9/0J3Rkxo4oT3seFfqf5+d+CmALLOxZ+C4r8p6n77cSZRkt5v6ke9jVEZPeelP5RcSjuu/Xmd/GHfhmNdVa+9Z27kzfg6HBHyR53sXWKP1lJSZn5lqSkmFvTEw4llltAypbiiAlI8pJEIRctiPnrMVYGG8RvcWx7YdAKJonYko25LsvXHUm0vVSdSkcXEe6DST9onIHl5nr5Z3RUcaXAWzaciaa6VVGf5g0392m0l9Tdac84uGtZGHbGth+b03KsYD8yy3no43AM+3Ee6Jb2VjhY0+ZFv3H6haV96Un1jFViIi1NH5utocTwLSlSSMFJGQYN62wRliRd0Vp74NvcjpjcjF+WlJJYoFwTDgeYaRhuVm++UE+JKuZA6sK6sCMRzmiVK9ZbmdL8mWlPhWn8G1L+8h8UfR2OiYl5fV+uLmZhtlJoDicrUB/Xs+MxXJJKGO10WPn5XcKeJQ4Sgr7f3LG/k3R/VaUP/WT++Ms1o9a7TnnvCp6YPsZzaq9MecS0xPSzi1dCUvJJP5sxTWj0MSo8bDWtKDS4M+0HPVFT52flMTcvKoLsy8hlA6VrUEge3FG7byUMKeK9WCu/YfMazSvVWTH/XTDXj1rtPTvKqe6D7GeF1vrNJc0ku9CajLKWaNN4CXknP0JXljwqnHuEtq3F90eoqlZlg3g+cuhlOHljX0udY7Jg1DCTl0L6Fj2xvbjT7MtZjVO6JQTFfrrQekg6j6klFZKOEHmla0kE9YGB485bk9CoLu0ltOaeUrTGWYVToKaX3cOrpf8EsgOExkHQaquntDs3KyiC5MvttJHSpawkD248ZSS3sksOc3aKufq2808kLadStJ6Ck5isXfcRlCUXaSsDzHPoj0SKIgzv526ShkF622hIJbflyluusMt47cgkBMxgdKk8grlkjBJ7mMWzejv9+kbq5MdLZQx1lVS7p839v2IIRjOsjohHe2J/TWgedJT9qmJ4fPRaM+20WLfq+hdw19KR+CI2WtxxLLnMw882y2XXXEoQnpUo4A/PBtJbSkYym7RV2fGK3Ss/XST/wAdMeOtHrXafR3lU+o+xn0tzbDwBZcSsHrTzEekZJ7meEoShskjmpKVJKVJBBGCCOmJNXKJuO1FcO+nbhK6e1hGqVoSCWKLWZjtM/KsN4RKzKgSFpA71C8HPiV+FGHZtRd73x0jobky0u76wvB1S7zjuv0oiXFhk7m7EIo77CMt5OjsZYym/cfbyfvPRlmRc2fuNAcsnlcD3/QndGRGjShPex4V+p/n534KYAsq7Fl4Lqvynqf+3EmUZLac+pHvY1e9EJdJ6UvPXEo+rv14nfxh34ZjXdY/vGdvZMv8dDgj5I+VvbcudzemyqypW9dwdBbn2UvS1HQ5VlIUeRWzjtZ9cOFB/NF4yda9QjXPKfXOkyOaT2uy7WWvBGAADgDqjPLbLHKj27TSm7HXRzQnTVVWpSWnK7VXvQdMQ5zSleCpTqh1pSketxFIPTFszSrVJg3W8y7QrR3+ocwWC+ZHnFW9135eV81N2sXRc9SqE44c9temFK4OvCU96keIAACMNlWSl0nUVFkGW0cFT4WEuw3Lts3UXppRc9PpFxVueq1qTTiJeZlpl3tplEqUB21oqyQRnJTnBHF1gEfRQ1zp5JNmG6acn9NmNLKqpEliJMtMQpK0hQ6xmM8VrHMklbYal3VWXKXroJd1Oelw67JyDlRluXNLzCS4kg9R7kj1iYteaw75p2jIdCq6WV5zhY197t27PnYqLQ440T2txaM9PCsjPtRhetq3SOxlCGNBa6Tuuk/RU7Oo7yceH/UV++Pnc5rpZ83gyj9RdiNp7Wp+eXuBsdLs28tJqqMjjPPuFePMXTJpydSrsxHTvL6XDyDHlCKTt1Fvic8ucZwckPeRo7IM86zt/fWy6ttfyVk8FJx6cx8GbPUpmbE5M8OM89gpq6sysn5ITn3S9/iq/fGC68m951N4Morcxdg+SE590vf4qv3xTXk97PLwdSRd4xXYei0rtn5ctSLZtdaOJmp1SWl3hjOUFYKv/wAQY+qhWvUwRa9KKvvHK8XH6kXRU+VZkZNiTlmkttMtpbQhPQlIGAI2ErJWRxriyeJNyl0nktYtSKZpFpzWL8qiO2IprIU01/3rqlBKEAnrKiP8z1R89ZUqlwnNn26P5TLOK/Doo/7P4FS+pWs+o2q1afrF33LNvh1ZU3KNuqblmE5yEIbScADxnJPWTGCVdbUVT2M63yfQ7Lcsp1g4eGmztNHtwWomjlflajQq/OvU7twVO0t59S5eZbJ7pISrPArGcKTgg+Mco9KCsx6Vq7Pl0o0Hy7NKR6uGlNLeW22Vd1Mvq1KXdtGWVydWlGppri5KSFDOCOog8j5RGdQx4zSZyVX0M6CqxKbG3pn7XbQJG6bZqlu1FlLsvUpN2VcQroKVpwY9JRjKLuhQVToqvDx4vc0yk6t0x2iVieo0wrL0jMuSznLHNCik/wCYMa3xElJnbmWVSq6SGN7EfdY39NaB50lP2qYjh89HyZ55li8PoXcsfSk/giNlrccSz5zNTbr3HW9vN8LZXwLFKcwenrEW/M3amnYybQyMZ51gRluu/kyov0dOfdT3+Kr98YI5S6zryOW0bgrxW7qNgaRa+6kaO1yXqlv3BOPySXeOapj7xVLTCD3yeE5CVH7Yc8gdI5H7KGulSyW0xrPtCstzaklq4dnt3by22w7vpmoNl0a9aGpSpKsSjc20F98kKGeFWOXEDkHygxnsJKaujk7MKKVBVYlNi74ux0uullMagaS3RazzKHFTlOe7TxeleSkqbV+ZYSfzR89clKnkmfbozWSy7NcLGi/9l8dhTPGvZb2dqYEtbDjL2I4w2XJS3k6uxjd7f3skl7z0ZPkW6fuOf+WXyuB7/oTujIzRxQnvY8K/U/z878FMAWVdiy8F1X5T1P8A24kyjJbTn1I97Gr3ohLpPSl8ouJR/XfrzO/jDvwzGt6u/dWdw5N6OhwR8cRPrJS9jq+zrOeY3/2rUXjR9Xx3c1Pyu+io8UWZdUZsc0EEOybE8VjJKjw8M+SM8sgNfvjFdIZXUTd/I55TGv7CCqYxlJM6GSP0hDbNHz1O3BmvY/kXSWZctBFpUZTlZkypUhLlau3p5q7WnJ6Y2RDEjqrb0HFeZZbWOsxWoPnPofWfHqfcdvv6bXSy3WpJa10ebQlIfTkksqAwMx5VUo97vaj0yjLqtZhg3g+cuh9aKZY15KTuztHA2YUeC+RyIzDVseptTa0n/iCsfn/aiPgKi55P5zAw7T78P4/At+QDgetGdo4+e8jN2Qnnt8fP/NZP4Zi1Z5spjYvJj6ehwZWJGCJ3OqkI9kDa21bwgrHHjqif2az/APEfZlMb1EDDeUR/4DG4FvwAwIz1HIbZGXshLjqNA1BtfCFVaVCvKBxHHtgRas982NjclSTz+F+plY4OYwRM6rMEZj6E7lJbi2bZj4NlmY6peYT7Uy7GcZSk6aDftOP9PElpBUJda+SN2Od4r1jFzZhkecilbVlOdVrzOP7fqH+ocEa8rUtd+87T0X25XhcEfBY39NaB50lP2qY+XC5yPqzzzLF4fQu5Y+lJ/BEbMW44lnzmam3Y+DvfPmpz3xFvzPzaZlGhK/zuAva/kyoSMDOxMNeKhFLK9z0bsmWybKvButH2F79suM4yZt0+04/0/j/yDGXD5G6ap9b5r2FfvRc8TmMxOm8vDiUZuK4HVN46I1nic5ncNFeWDDgvkYijvdH1S3k6uxjd7fvskl7z0ZZkW6fuOfuWTyuB7/oTujITR5QnvY8K/U/z878FMAWVdiy8F1X5T1P/AG4mGS2nPqR72NXvR5y6SdLz1xKP679eJ38Yd+GY11V+VZ2/k3o7D4I+OPlLiST2AVyWpGvrUrMO8CqpS5mUaGOlWUL95BHrkRkGj1u72uaq5WKSWPlOsv8AX9y0MGM0e05h3ER+yIaZ1i7dOqbeVIlnJkWw+4ubbaRxLEu6EhSwPEkpTnxAk+ljH84pHLAujanJXnVPQZjKnqHZT+hW8EY8kYY1q7zp5SU1eO4/RPXEolGk9hmPbujXSfO6Cnk7yiuw4x5ynLrKrLqWO3VV+AikT23bhE1YmbU2s+EFY/nVHwFR9+T+cQMO0+/D+PwLgkjlGdo486WRk7IT4Pj4/wCayfwzFqz3zU2PyY+nocGViRgZ1YhE4lTam1Xwg7H86D9k5Fzyhf3EDCOUV/4HG4FwY6B60Z5Y5DZGHshf2Az52lveXFmz1/2xsnkp/EEODKxoweMbnVTEeyKPcWzbLznbXZ3sUz/qXYzrKfNoHIGnv4hqOK+SN2ud4r1jFyl0mFx5yKV9Wvsq3p+UVS/1Lka8rWtd+87T0VX+KweC+R19jf01oHnSU/apj5cLnI+rPfMsXh9C7lj6Un8ERsxbjiWfOZqbdj4O98+anPfEW/NPNpmU6Eenqfi/kyoSMDZ2LG2qhFCMtxbHsrP/AA3WmCcYQ+n/APcuM5yVf25yPygK2f43u+Ruqp/W+Z9hX70XLEfiMw+m8vDj9SjKYB9ErMa0nzmdyZd5GHBfIRXYe895OrsY3e397JJe89GT5Fun7jn/AJZfK4Hv+hO6MjNHFCe9jwr9T/PzvwUwBZV2LLwXVflPU/8AbiYZLac+pHvY1e9HlLpJ0nPXEo/rv15nfxh34ZjXFUn3VncOTejocEfHFEj69qO9sO76hYN50a86X9U0ecamkJ+3CVAqSfIoZSfIY9KObhUJltzygjm+W4tNjf7IuU0/vmhajWjS7ytybS/JVKXS8kg80q6FIV4lJUCkjqIMbCpqlVEbo4uzfLMfKquVPjf6s72bYbmpdyVfaQ408koWhachQPSCOuPeUVJbT5cPE7nJTg7NEadU9hukd8uTFStMu2jUn1qdcMr3cq4snJ4mVHueee8KenoPKLNWZJT1TuthsbI+UvNsntHHevBde8h/qbsv1v017dON0JFxU1s59E0gqeUE9XE1gLB6egKHLpixVWUY9MvF2o29k/KPlOa213qTfQzRa0LbWUOJKVJJBBGCD4osr1o7zY2HjQxVeEkz84orHrvEVKCKtMmbU2s+EFY/nVHwFRcsn84gYdp9+H8fgXBp70etGdo4+e8jH2QrwfX/ADrJ/DMWbP8Azc2LyY+nocGViRhUTqxCJlTam1XwhLH86D9k5FxyjziBg/KJ6Bxi4EdAjPbHIzRGPshn2BD53lveXFhz/wA2Nj8lX4ghwZWNGFy6DqpiIkZbmWy7L/Brs72KZ/1LsbByjzWByDp7+Iajivkjdzn0tXrGLjLczDI85FK+rX2Vb0/KKpf6lyNbVzfdHxO19FF/isH/AMr5HX2N/TWgedJT9qmI4S2o9c98yxeH0LuWPpSfwRGy1uOJZ85mpt2Pg8Xz5qX74i35n5tMyjQj09gP2v5MqEjAW9p2FB+Kj9ZaWenHkS0s0t191SW2m0JypaycBIisFrNWPPHxY4OG5SdrIuC24WJUNO9FrVtWrpSmelJFK5lI6EPOEuLR5SlSiD5RGwaCHe9OkcdaVZkszzXGqMPc38th7S86zLW3alWr06f5vIyTz7pz1JQTHpjNqDuWrLKd1NVh4K3tr5lIzh4lFR6TGuZ85nbNJHUwoL2L5HGKO90fS95OrsY3e377JJe89GWZFun7jn/lk8rge/6E7oyKxo8oT3seFfqf5+d+CmKAsq7Fl4Lqvynqf+3EwyW059SPexq96POXSTpeeuJR/XfrxO/jDvwzGuqu3dWdv5N6Ow+CPjiDLg7GDHi47bkXtN5bYd0Vw6DVdVNnmnKpa089xzUkD9EYUel1rPLPjSeR8mMi80Va6TfzTXWnOguBnuB3zh+LiL48Sy7TnV6wdVqcip2VckpUWyAVtJXwvNE88LaOFIPriMtpq7AqleLObs1yOsyiTjU4bXy7T2ihnGI+rZ0FmXtMLQkjBAPriPN26SadtxozX/ajYetlMmJ5qSZpN0ISpUvVZdsJW4rHJLwA7tPIczzHUYt9ZQ09Ut20zLRnTKs0fxYpy1sPpX7FX9+WTcmm92VCzLrp65SoU5wtrBHcuJ9K4g9aVDmD5fHkRh1ZRukdjqPJM5p86pVU078VnRA5j5ol3OMeisTNqbWfCCsfzqj4Co+/J/OIGHaffh/H4FwKegRnaOPHvIzdkJ8H1/zrJ/DMWjPfNjY3Jj6ehwZWHGDM6tQiUSptTar4Qlj+dB+yci6ZR5xAwflE9A4xcAOgRn1zkZsjJ2Qv7AZ87y3vLixZ75sbH5KvxBDgysaMKidVMRMpLcWy7L/Brs72KZ/1LsZ3lPm0DkDT38Q1HFfJG73O8V6xi4vcYXHnIpT1a+yren5RVL/UuRrisVsR8TtnRV/4rB/8r5Hx2N/TW3/Okp+1TFcK10eme+ZYvD6F3DH0pP4IjYy3HEs+czzOpFi07UqyaxZFVm5iWlKxLmWddlyA4gEjmnIIzy6wY8KnDVRguB92WZlLK6qFVDfEjL87T0l67zur/Elv4MWj+n6dmxlyr5olZRRsrSnZxo/pHVGrgpEjN1SrMD6BN1NaHSx4+1pSlKUnHLOM+WPspMnpqR3SMdzjT3Nc4j3DHlaHsN6p5DHii46ttxhb6yKW/jWyUtDT35mlJmwa5c44XkNr7qXkge7WodXERwgdYKvFFkzeqUIaqZs/kv0dxMyzCNbNeJDr6ytknMYezqOMdXYIbLlJbydXYxu9v72SS956MnyLdP3HP/LL5XA9/wBCd0ZMaOKE97HhX6n+fnfgpjyYLKuxZeC6r8p6n/tx6hktpz6ke9jV70eUuknSc9cSj+u/Xmd/GHfhmNcVSfdWdw5N6OhwR8cFuPtQijV0SSuYAxHiSe0++jV6t27OoqVAq87TZtsgomJOYUy6n1lJIIj1jKUNqZaa/K6SvVqiKd/YSR0u3+6sWaluQvFDF1SCMJ4phQanAnyOgYV4+6ST5YvtHnGMlaW41rnXJPQVbcqT7t9vwJq6IboNNtckCSoE07IVptvtj1LngEPBPWpBHJwDlzHRnmBGRUtbgVa2PaaW0j0NzLRyX36vDrRuBIB64+tpJ7DFW7bCIPZCtH5S4rFl9UqawlNTt5YamyhvunpRZA5nr4FYIz1KVFjz2kU4d26ja/JVpDOkzDvGT8SfzK6kxh0jpe99piJNMmbU2s+EFY/nVHwFRcsn84gYdp9+H8fgXAo7380Z2jj57yM/ZCfB9e86yfwzFkz5/wBubD5MPT0ODKwow1Kx1chEiptTar4QljedB+yci45R5xAwflE9A4xcFkxnhyG3tIxdkL+wH/6vLe8uLFn/AJsbK5KvxBDgysaMLl0HVTERIy3Mtl2X+DXZ3sUz/qXY2DlHmsDkHT38Q1HFfJG73O9V6xi4vcYXHnIpU1a+yren5RVL/UuRryuXjviztTRX0Vg8EfDY39NaB50lP2qY+fCb1kfTnvmWLw+hdyx9KT+CI2WtxxLPnMyrAimyOwja5jjR9sPbiVytmfm9MsS7SnnX20JT0lasAfniF1vJRw54j1Yq7I469b1dNdMJSZplqz8vc1yoStLcvKPhUuw7jA7c4nkMEjuAeI9GBFsrM3jSKy2mfaNaAZjnElLHThh+1bStq9r4ufUO5Z67ruqjk9U6g5xuuKPJIAwEJHUkAAARh2LiOrxbtnTuUZJTZNSxp6ZWjE6KPnnsZdlvERu2QlvJ1djG72/fZJL3noy3Id0/cc/csnlcD3/QndGSGjyhPex4V+p/n534KY8mCyrsWXguq/Kep/7ceoZLac+pHvY1e9HnLpJ0vPXEo/rv14nfxh34ZjXVXburO38m9HYfBHxxEuOwRC5S4hYqIkSMEZjwkrA7ez7rrVi3PTbst+aUxPUyYTMNKBxkj0p8YIyCOsEx9dG3CSLPntDTZrR4uDjroLsaLPIqlIkqk1yRNsIeSM5wFJB/+Y2FHakziirh3Golh9TaPI66UZiu6P3lS5r6U/RJ0HyHtKsH1weY9aFXZ4Ek+ouuj9S6bNMCUfWXzKZ0xrd72do4LvhxfsRiJKx7m1NrPhBWP51R8BUffk/nEDDtPvw/j8C4JHRGdo496WRk7IV4Pr/nWT+EYs2fr+3NjcmPp6HBlYkYadWIQKm1NqvhCWN50H7JyLjlHnEDB+UT0DjFwQGRnMZ4chtEYuyF/YD/APV5b3lxZM982NlclP4ghwZWNGFROqmImUluLZdl/g12d7FM/wCpdjO8p82gcgae/iGo4r5I3c53ivWMXKXSYXHnIpX1a+yref5RVL/UuRryua13xO19FbeCsHgvkdfY39NaB50lP2qY+XC5yPbPfMsXh9C7ln6Un8Ee9GzI7jiWfOZq/c1Wqrb2hV41uiVCYkZ6Upq1sTEu4W3G18QwpKhzBEfBmcnHAbRf9E6SFbm+DT4yum38irlO4LXJX/atcvug7++MMddVdb7TqaOhOSOK+5XYdRXdTNRbnR2m476r1SZJyWpifcU2T4ynOP8AKKOsqHvZ91LoxltJtwcJHmlZUckx82s5by9xhGCtFWOMeSdtxMRKIQiey5GW8nV2Mbvb+9kkveejJ8i3T9xz/wAsvlcD3/QndGSXNHFCe9jwr9T/AD878FMUBZV2LLwXVflPU/8AbiYZLac+pHvY1e9HlLpJ0nPXEo/rv15nfxh34ZjXFUn3VncOTejocEfHDoPssbn23bbZ3cTNV2Vk7saonyDTLKUpyTMx23txcHLC04x2vy5zH00dG6vcYFprpc9Fe5rU1ta/wN4/OzK399+n+5Kv40Xn+nla+sYEuWRr/pfaR43C6FzmgF4SdoztwtVlc5T0T4faliyEhTi0cOCpWT3Genri01lH3na5sfRDS3+qsGWMoatnY1dHx2M3YieF4skfJVbcGfB/Iu6sPHyk0HzbLfs0xsOHNXA4jzLzzF/9P5nxarY+ZpdefUWd/YqiFU/umTynz/B/9L5opUjW8+cztvA8lHgvkcYk0z6Dam1nwgrH86o+AqLlk/nEDDtPvw/j8C4NPej1oztHHz3kY+yE+D4+f+ayfwzFpz1f2xsXkx9PQ4MrEjCU7nViEGVNqbVR/wAQdj+dB+zXFxyh/wBzAwblEf8AgsYuBHQIz6xyO0Rj7IZy0EPneW95cWHPdtObH5KvxBDgysaMOlE6qEQasRluZbNsuH/DXZ3sMz/qXYz/ACrZTQOQdPvxDUcV8kbtc+lq9YxcZbmYbFeMilfVr7Kt5/lDUj//AEuRraub7o+J2lovdZVg8F8jr7G/prQPOkp+1TEcJbUfTnnmWLw+hdyx9KT+CI2WtxxLPnM1LuyGdut8+bFfCEfBmfm0zKdCPT1PxfyZUIBiMC3HZEOajnFCtxA8zjFESQg1cqhEbtsjLeTq7GN3t++ySXvPRl2RLZP3HP3LJ5XA9/0J3RkBo8oT3seFfqf5+d+CmALKuxZeC6r8p6n/ALcTDJbTn1I97Gr3o85dJOl564lH9d+vE7+MO/DMa6q7d1Z2/k3o7D4I+OIlxRNPsZtQl2rovmluKw9MyEm+geNLa3Qr9oIyDRv/AHTNF8tUG8Knmui5YCDmMt2GgCvrslFm1Fu77avtiVcck35E0p1xKchtbbinEAnyhxePwDGH6SJuzSN9cj9bCGHi0ze29yGPD5YsK3G+2zsbct+pXTX6dbNGl1zE/VJhEtLtoTnK1HHPxDxnqEeuHGTkrIs+b1sKGinjydlZl2duU9FJocjTEdErLts/ooA/+I2DFWikcWVuL3aonidbb+J5rWupy9J0hvGpzSuFpihzqlH/AKKvf6Pzx5VbtgO/UfXkGG8fMcGMfWXzKYY17q7WdrYKthRXsRxiVj6Dam1nwgrH86o+AqPuyfziBh2n34fx+BcCnoEZ2jjx7yM3ZCPB9f8AOsn8Mxas8f8AbGxuTH0/DgysOMEe86tQisdzKmy9tVTl6TrzY83MnCDWGWh+EvKB/mqPvyl2qYXMO07pnUZBj26i4lHNKT4wI2JfYcgS2M0Jves2oXjoLV2qXLqmJilvM1LtSRlSkNE8ePKEFR/NFmzeLnT2RmnJ/Wxos5w5ydr7CqY9MYW9h1zCSlFSQ6e5TzWe9HjiiV9xTGmsODlJ22Fwu2e1KhZOhdn25VklM3LSHG6kp4ShTi1OFJHjBWQYzygi408EzjPS+sjW51UY8el/JWNlzC+BhxWO9QT/AJR98tiuWHDWtJIpR1InmqpqHc9Ul/pM5WJx9s56lPKV7xEa2qvGxG/adq6PQ7nlmFF9CR+Njf01t/zpKftUxPCtdFc88yxeH0LuGPpSfwRGxluOJp85mpt2Xg7Xx5sV8IR8GZ+bTMp0I9PU/F/JlQkYEzsePNQgUbEAhAkIBCKNXZGW8nV2Mbvb99kkveejKsi3T9xz9yyeVwPf9Cd0ZCaPKE97HhX6n+fnfgpgCyrsWXguq/Kep/7cTDJbTn1I97Gr3o8pdJOk564lH9e+vM7+MO/DMa3qn98zuHJvR0OCPjiS3H17TbO1vVNOkes1GuSemFN0maJptS8SWHikdsPkQoJUfJmPty6r71xzC+ULKPDmUTw0rzW1e4t4l3W32kvNKCkLAUCDkEGM4U9mscjTg8OTi1Zo6K+bGtnUS2py0rupqJ+mT6OB1peQeRBCkkc0qBAIIIIxFZwjUR1ZI+zK6+oyjHVTTStJESK92NG3JmouTNv6lz8nKLOUS8xIJeU35AtKk59qLBLRxXvrm1qLlgrIRtUYOs+Nvobg0H2g6c6HzXydl3Jit3AUlIqM4Egtg9IbQBhOejPM45Z5mLjSUEaMxLSXT3MNIk8F+Lh9S/c3wDFwuugwXiRP7IJqwza2midOqe+E1S5VgOgKxwSiFArJPVxHCfzmLHntUow7it7Ns8lej8q7MO/ZLxIfN/8A3xK3AcxibR00lbYcY8pOxM2ptZ8IKx/OqPgKi55P5xAw7T78P4/AuBR3v5oztHHz3kZuyEnG317zrJ/DMWTPn/bmxOTD09DgysOMNSsdWoRIqfRT6hMUqflqlKLKH5R9uYaWk4KVoUFAj84hB6kk0fFmFJ35S4lO+lFyWiWpdM1Z01ot6U55ClTcsgTSEnmzMJGHGz5QoEdXLB642HR1KqcJSRxlpDlM8nzDEp5K23Zw6D3DjTUw2pp1CVoWClSSMgiPqcU1ZlmhOUJKUXtRE/UzseWnV31qYrln16ZthybVxuSjcul+WCs8yhBIKM+IKx4gIsFTkOBiO6NpZPyqZjQ4Cp8eOvbp3M7XRvYdptppXJW67hqD9zVaRIVLeiGg1LMrBylQaSTxKBxjiUoDqGecelFk9PS+0+TSHlJzLOcDvePiQ9hJxKQgBKUgJAwAOgCL1q9RrqT1trNP7qdWZLSTR+r1z0Rw1OfbNPpjYPdLmHBjIH/hGV/+WLdmtUqXAZlOhOUyzzM8PCt4qd2VGKcU4oqV0mMDk9d3Ow8KCw4KC6Eju7G/prQPOkp+1TE8N+Mi2555li8PoXcsfSk/giNlLccSz5zNTbsvB1vnzYr4Qj4Mz82mZToR6ep+L+TKhIwJnZEOahACAEAIBCKdJGW8nV2Mbvb99kkveejKsi3T9xz9yyeVwPf9Cd0ZCaPKE97HhX6n+fnfgpgCyrsWXguK/Kep/wC3AoyW84P5q97Gr3oPcz0placeJR7XfrzO/jDvwzGuKtfes7dyaVsvhwR8kUuXSxgjMec3Z3QlFSTTJrbRN5sjbMjK6Yat1FSJFrgYpNVcBIaT1MvEdQ5BKsYA5HkMxkeUZt/0Y5oLlB5PXiyeYZcvbKP1J7SdRkajLtzdPmmZqXeSFtvNOJWhYPQQQYyyDi14po6eHPDerNNM+tMVZ5Mx5Y89nSQ2mn9dtythaH0B2Zqs63OVlbZMpS2XB210/bK6eBA6So+sMnAj46utwKVXbMv0c0Rrs+x1GKtDplYqy1J1CuXVS8Z+9rqnC9OTyuSB9LYbGeFtA6kjPvnpMYNWVbq592OqciySn0fpVT4HUeZAxHle6L4I85O5U2rtZ8IGxz/zVHwFRdMo2VELmG6fP/j+PwLfUHuRy6AIztWOPXfWZGbshWTt9ewf7Vk/hmLJn/m9jY3Jjsz6HBlYkYedWoQKiAN27XtyFV0DuNcrMtOztrVRYNQlEAqW0r/vmv8AxDPMemHrCLnRVnejXUa8040HWk2A5wX3kdz6+JaBp/qJZuplAauSy6/LVKSdGeJs4Ug+JSD3ST5CAYzPDqoY6TicwZrk9VlOO8Cpw3GSPU9cfR0FrXOMkgdYEeXSeh4fVDWKwtI6G5Xb2rrEo2AQzLpVxvzCsZCW2xzUT5OjrxHlU1UaaN2XbJ9Hq/PsdYNNC/t6CrHcLr1cWu95LrVRJl6VJlTdMkQe5ZbPSo+NasDJ9YdUYPXVjqmdT6H6IU+j9OsJrx+lmrEx8MTNNU72xv6a2/50lP2qYnDnotOe7KLFXs+hdwwR2pPMd6I2WtxxLNeMzUu7Q/8ADpfGD/ZivhCLfmnm8zKtCPT1PxfyZUNGBs7HhzUIAQAgBAIRTpIy3k6uxjZ4b+9kkveejKsi3T9xz9yyeWwPf9Cd0ZCaPKE97HhX6n+fnfgpgCyrsWncbY5mWXydl7rqbTqD0oXho4PlwRAEu5hBcZcQOlSCkfnij3EsN6k0/aUp6lWdcli3nU7duqluyFQYmFqU04O+QVEpWk+mSR0EcjGv63DlHEd0dn6NV1NmuXQxad3skeaj422mZEkIgDKYnqtbiMoqSsz3unWuurGlhCLLvaoyUsk5EmtfbpfPsS8pH5gI++kr6il6TE830MyzNbvHwk32G35Tsh2vjLYQ+xbUwrrcXIOBR/RcAi4eH8dmHPklyuTvtXvZ568d7u4K7JZyTbulijNOjBFMlg0oesslSx+Ygx4SzioldF6ouS/IqSzcNd+1s0PPT9Qqk47UKnPPzcy+eN159wrcWrrUpR5knyxZnKUm7meUWX0tCrQicExOytY+lpMzHkUETiHsOztq5a1ZtwSF0W7OqlKlTXhMSzwSCULHQcHIj2w5PDaa6C3V1FgZtTumqFeEt5tr+WpuUUMDUQj/ANPlviRclm9QlvMP+zXR+/k/izzV+7kNZNT7fXa98Xeqo0xTiXix6FZbBWnvTlCQeWTHy1VZj1exl4yzQfJ8mxe+aXDtNdNzWsfGZUIqBADn1GKNXKpndWjfV42HUU1W0LkqFImQQSuUfU3xgdSgOSh08lAiPSNbKl2plnzXIaPONlRhqRvei9kA3BUxlLU5OUSpqQMB2akSFn/DUkf5R90dIahmA1HJNlM5bPF7T5bj367ha+wuXl6xSqQlXppGQAWPWU4V4/NEpZ1UNHvSclWTU7TlHX4t/LcaMr9z3HdtRcq9016fq064SVPzkwp1ePECrOB5OgdAxHwTqpTe1mfUOTUmUYHcaaCR1nD5Y8tZNn3rYOHyxS9ya2H6yc1MU6el6hKOlD0s4l1tQ6UrSoEH/KKp2dz46yCqouD3M3SN6e5ADhGoHLo+oJf4kXOOcVEd7MJfJtkD29z+LOnujdXrtedvz1r3FexmqZUmizMsegmEhxB6RkIBH5jEanN6iqVmfVQ6B5PQVMKinw7TjxNURbl7TOErKwipEQAgBAIRTgQxHZ3LA+xs2jcdHte6LsqdLel6bXHZZMg66OHt/aw5xqSD0pBWkBXQeeOiMsyOLUW2c28q+YU9ZWYeBhu8o3v7yag6OUX81CUM7z5aZnN1Wp7spKvPoFwPIUppPEAoJSCnPjBgCwPRWvy+0nc7eGgd5vIp9p6kVJVy2fPKSRLCbdwHZZSzySo8ITjxoT9uIAnD0xKwNLbktuNta8272p1KJC4ZNKjTqiEA8KiO8cHWg458sjAI8vxVtFGqRmGh+mFVo3Uppt4b3x/YqxveyLl07uWctO7Kc5JVGSWUrQocljqWk+mSeojkYwKcHBtNHV+SZ3S53SqowHvOhjyht3F03mUx6LYDEecrgRRK4EegEAIARFxuBEgIJ2KCAECogBACAEAIo1feBCyG8RUCKWAhuAioECggBAqIAQAgBACKPaijajtZKHaTtKntV55m+b3lnGbQYUFsMkFLlTUDkDyNdRUDz5gdZi9ZPRd8PWmjUGn+n6y6Lo6N3m9l+osqptMkaRJMU2nSrUvKyyEtstNpCUtpAwEgDoEZnqqNrHOWLiTxpuc3ds8Nr7rdaGgGm1U1Bu6dCG5ZlSJKVQodunZoj6Gy0k8yonpOCEgFR5CKM8SNe1naii7NNZjUvWykIXdN/Vmcuh9tQKVMtzRSpCCMjBIHHjq48dUASN1+0BsTcVYb9jXxKEAHt1Pn2QPRFPmB3rrRPQeQBHQoZB8YqlYEfNA9fb60Nvpna3upqBNQJSzaF2Ok+h6xLg8DbTjhJw5jhwVYOe5XzwpVQTMIzFGDTO5DbdbWvdsuNzCEStwyaCadPhPNvlzaV40Hn5QTkR8VbQxqYmX6H6X1OjdUmn9234y+pVbfNkXPpzc05aN3UtyRqMkvhWhRBC09S0EclJOORHTGD4mHKkbTR1bkmdUud0qqKd3udImPk1nPai7oxFYgRNK4EAIAQAgBACAEAIAQAgBACAEAIAQAgBACAEAIAQAgBACAEU2bijdt5KDaZtGntVpuWv2/JZ2UtCXcDjLRyldSIPejoIa6Mn02MDrMXzKspdR40uaai5QtOoZcnQULvi9Nugssp8jKUqQYptPl2mJaXQGmWmkBCG2wMJSkDoAAAjLYxUFqo5vxJyxZuc3ds8ZrXrXYmgdiTl/6gVL0PJS/cMMtjiem3yCUstJ9Ms4PkABJIAJj1PO5GXRTRW+9z99yW5/c/S1ychJqDtlWS4My8iyeaZl9B6VnuVAKGSQFKAASkUZQmoE8umIg5R6WsDWuv2gNh7ibDmLIvaTAWAXKdUmkD0TTpjlh1pR6DyGR0KAweqKAj1oLr/f2hl+tbWt1LyvR4IatK8HVkS1ZlsgNtuOL5dsAISDnORwq54KqWBNEEEZHXCwNKbj9t9s6628UuJRI3FKJUafUUoysKP8AVr+2bPWOrpj4a6hjVLaZhohpjU6N1Kad8N74/VFWd62RcmntyTlqXXTnJKoSSylaFDkoelWk+mSRggjl7UYFiYbpW00dX5HnlLndKsendzoY84PW2ougj0QOMUAgBACAEAIAQAgBACAEAIAQAgBACAEAIAQAgBACAEAILaUbttJQbSdpc5qxPsX1fEqti0WFhUsysYXUlg5xg9DXI5UOnmAekxfKLKO+LTluNQaf6frLU6Ojd5vZwLK5GmSVJkmKdTZZqWlZdAbaZaTwobSBgBKRySPIOUZbFaisjnGeLLGm5zd2zxWtWtVi6CWLOX5ftSTLysukplpZKh2+efx3LDKfTLPtAZJwATFTzbI1aL6L35uevuS3N7n6U5LUqWJcsqxplPExJM5yiZmEqA4lKwFAEZVkKOAEpErECa3TFSRmAOESTuBCwNb6+aCWFuJsKYsW+pIlOS9IT7PKYp8xggOtK8fPBSeShyPVilgR70G19vzQi/JbavuomwqfWAi0bvcX/NqxLjuW2XHFAfRcJABPPJCVc8E0aBMxQCgCOfWIiDTG47bfa+vNsGTdl0SdwSqFGn1EZHAr7RwDvkHl1EggEY6/hraGNVEzDRDTGq0bqk7t4fTH9iq69bKuXTq5Z20bupjkjU5FfC42rvVJ6lpPpknGQfFGETwnTNpo6tyXOabOKdY+BPWjI6SPK+ttRdjjHnqgQiBEwIAQAgBACAEAIAQAgBACAEAIAQAgBACAEAIAQsUb1drJPbTNpFQ1Xn2L6vuWck7QlnAtlskpcqZGTgDH0rOMkHn0DrMXvKcqdQ9aXNNRadcoUcug6Cgd8R7L9RZdTpOTpco1ISEq2xLsIDbbbaQlKUjkAAIy6MVDYjnDFxJ403Obu2eM1u1usXQGxJu/b9qHaZVj6HLyyCO3zj571lpJ75Z9oAEkgAmKng3YjRovolfW5y+JLc7uepvoemy/A9Y9lrKixT5ckKS++kgcazhJHEO6PNQACUiSKXJpobS2kIQkBKQAABgADoAEVJHOAEAcIAQAgDWuvugNhbirDmLGvmUIAPbpCoMgeiKfMDvXWifWGUnkocj5KoEe9AtfL60LvmX2u7p3w1NYRL2ddq8+h6wwDwIbdcJOHOgAqwc9yrngqjYgTOWnPXFStjSu5DbfbWvVsONTLbcpcUmgmn1EJ5oOOba/tm1c+XSCSQYtldQqq3mYaH6X1WjlUtv3b5y+pVpfVi3RptdE7aN3UtySqEkrhUlXQsdS0noUk9IIPR4owmtg6N2sdX5FnlNnVMqinetE6GPNbUXUQKnGAEAIAQAgBACAEAIAQAgBACAEAIAQAgBACAEN5RvV2slFtJ2jVDVeal79vuVclrSZWFy7KkkLqSgcgYOCGgQMq6+YB6TF9oaF1LUpLxTUGn3KBHLk6Ojd8V77dH82LLJCmyVLkmKdT5duXlpZAaZabSEpQhIwlIA6ABgDyCMtilFWRzhPFniSc5u7Z4jWzWqw9AbEnNQNQKoJaSlgUsMIwX5x8juWWk+mUfaABJIAJgQuRq0U0Wvzcxfsrua3OyLkrISyw7ZlkuJ/m8izjKJh9B75ZylWFDJIClYASkSSIE1Rz5xLcSMxQCAEAcIrawERAiQEQYNa6+6CWPuHsOYsi85RKVc3qfUENgzFPmMYS60o9HVkdChkHxiRREedAder90HvhjaxulfWZxKu02jeLx4ZatS/9W2tasDtgGEgk5yOFXMAqE0iZ+MdcAaY3H7cbZ19t0svpbkbgk0qNPqKUZWFHobX42z4uogGLbW0MatbTK9ENMKnRuputuHfxo/sVY31Y9y6b3LN2ldtOck6lJLKXG1DuVDPcrQfTIUOYUOXT4owisg6R2aOsMkzumzmmVRTvxZHRA5jyi9dXLscYqBACAEAIAQAgBACAEAIAQAgBACAEAIAQAha5Ru28k/tI2kT2rM4xft9ya5a0GFZYaUkhypKBHcjow0COZHfYwOsxe8qyp4/jS5pqHlC07hlydBQu+J026Cy6m02So8i1IU6Wbl5ZhAQ0y0kJQ2kDASlI6B5Iy5RUVZHN+JiTxpuc3ds8VrbrhYmgdiTt+37UO0SsulQl5dBHb51/GUstJJ7pZx6wGScAExU8m7EadFtFL+3MX5Kbnd0FNXL05k8dl2PMIyxIM8QKZl5ChzUrCVAEZVyUcAJSJIpcmmT5ImlYkkc4iBEWwIkBAHCAEAIAQAgDW2vmglibiLDmLHvmTOAS9T59rlMU+ZxhLzavH1FPQoZB6sCqdiPegevWoWhd8y+1zdZOhU+oJRaV3OLxL1aX5pbadcUB9E7nAJ55wlXPBIXJm8umBQ0vuQ232rrzbC2Hmm5S4ZVBVT6glPNCvtFj0yDyz1ggERbK6iVUtqMv0W0uqtHalWd8PpiVYXtY1yadXJOWldtOXJVOSXwuNqHcqT1LSfTJPUYwieG6VtNHVGR55TZ1TLHwGdFw+WPNPX2ovY4fLFSpiAEAIAQAgBACAEAIAQAgBACAEAIpuAij2rYUbttJRbSdpk3qrONX1fMu4xaMutK5dhSSldTUDnHVhrqJB7rJA8cX7J6Lvnxpo1Bp/p+stTo6N3m9l+ostp1OkaRIMU2myrUtKyzYbaabSEoQkDAAA6BGXJKKsjnDFxZ403Obu2eG1w1xsPQGw52/r/qaZaUlwUS8ukgvzr5HcstJ61H2gMk4AgQI1aL6JX/ALlb9ldzm5+nmWp7CkzFkWW4T2mQYJCkPzCOhSzhJHEO6PNQACUiSViBNVACUhKQAByAESasSOUUbAiNwIqgIqBAHCAEAIAQAgBAGt9fNBLD3E2HMWNfMmcZ7dIT7KR6Ip8wO9daUejoAKehQyD4wBHnQbcDfWhd/Sm1ndPNgTK8MWddywRL1eXT3KG3XCThzkACrBB7lXPBUBM6AauaY3G7drd10tftbqESlxSKFKp1RSkZSSObavGhXPI6eeQYtlbQqrT2GX6IaUVOjtUpX+7fOX1Ksb4sW59OLmnLRu6mrkqjJL4VoUDhY6loV0KSekEf5Rg+JhypZOLR1dkmdU2c0yqKd3jI6EHPREE9bai7HGK2ZWzELFLCAsIWK2YhYpYRQrZiK2KWEBYQsLCFitmIFLCFitmIWKWEBYRG6ewo3ZXZKPaTtJndVZxi/L5YclrQlnEuS7asocqSweQA6Q0Os+m6B1mL7lWV98eNI1Dp1yhrLoOgoHfEey/UWT06nSFJkWKdTJVuWlZZCWmWWkhKG0AYCUgdAEZdGKgrI5xxcSeLNzxHds8ZrjrbYmgNiTd+37Ue0SrOW5aWb5vTj+CUstJ61HHSeQHMkAExU8SNOimieoO5e/ZLc/ugpxlpFgh6zLLc+kSDHS3MPoI7pZzxYOCVAFQwEpEkRuTVVEkSSMgYg3cGYg2BEgIAQAgDhACAEAIAQAgBAGt9etBLC3DWJM2RfEiOYU5IVBtA9EU+YxhLzSj1jllPQocjAEeNBtfb50Fvxra5uqnAmb4ktWheD7hEvWJfOG23Fr9OMhIUTnICVc8EgTPgDTG4/bhbWvNtLac7XTrik0KNPqYQCW1faLHLiQeWecWytoI1S2mYaIaY1WjdQrO+H0x/Yqxvmw7m04uactK7qc5JVGSWUrQodytPUtB9Mk9RHKMJnhulbTR1PkWeU2d0yqKd7zoOHyxBYiZftZ2HD5YpLEPJylccXkiHdGVUpDi8keimT15Di8kHMhrMcXkjyWJtJ68hxeSJ6+zceblIcXkiHdHcpryHF5I9IzKqUhxeSDmj015Di8kQ7oR1pDi8keimS15HLlFHiHm5MxHjrtsj3RrayUm0naRPaqTLF/X5LLlbTZUFyzKk93UVA9GOpoEEEjvsEA9cZBQ5O6m05bEam0/5QYZdeiy53n0+wspkadI0yVakafKtS0swhLTTLSQlDaEjASlI5ADyRmUUoqyObZ4k8STnN3bPD64a4WJoBYk3fd91FLLDQKJSUQQZifmMdywyn0yz7QGScAExRkCNui2iF9bl75ldze6KnLZkWMLsuyH0ky1Pl+LKJh9tYHE4rCVDiGVZCjgBKRVIkTTipEQAiNwIqgIqBACAEAcIAQAgBACAEAIAQBrjXrQaxNw9hzFjXxJnhyXpCeZ5TEhMYIDrSvHzwUnkociOjAEeNBddr80EvuX2ubpZ0Lm1BKLSu5xeJeqy/NLbLrigPog4cBR557lXPhUoCZpAOD7UAjUOv22qydfaM1K1xa6fVZRQVLVOXQC62OtBB5KSeXI9YEW6soY1W8yvRrTCs0bxr4DvH1TQh7GfQQfsr1L3Mb+PFteRL1/gZ2uWGt/JX6v4MfOzqD99epe5jfx48vASvz/gei5Yq1f9C/V/Bj52XQfvs1L3Mb+PHqsij6/wKPljrfyF+r+DPzsqgnn81mpe5jfx4PIo+v8AA83yw1v5K/V/A+dlUH77FR9zG/jx5+Al6/wKfbFW/kL9X8D52XQR/wBrNS9zG/jx6LIo+v8AAquWKt/IX6v4MfOzKD99mpe5jfx4r4Cj6/wJ/bFW28iv1fwZ+dl0Hp+azUvcxv48PAUfX+BH7Ya2/kF+r+DHzsug5+yzUvcxv48HkUfX+BL7Yq23kF+r+DPzsqg/fYqXuY38ePLwEr8/4EfthrfyV+r+B87MoP32al7mN/Hj0WRR9f4EvtjrbeRX6v4Hzsqgnn81mpe5jfx4PIo+v8CD5Ya38lfq/g5fOzKB99mpe5bXx48nkK9f4FPtirfyF+r+Ds7W7HDZFGuORqtfvmoVqTlXA45IqlEMpmAOYQpaVEhOQMgdOMR9MMigmnc+ev5V6+sp3h4WGoNrfe/wsS+p9Pk6XJs06nyrUvLS7YbaabSEpQkDAAAi/RWrGyRqbExJYs3Obu2eL1u1tsXQKxJu/b9qHaZVn6HLy7ZHb5x49600knulH2gMk4AJiJAjTotonfO5a/JXc3uep/a5Jkpfsqy3OLtFNZJC0TD6SAFOHCVYUO6IyoYCUiSI3JopSlCUoQkJSkYCQMACJpWPRH6REiIi2BEgIAQAgBACAOEAIAQAgBACAOcAIAQBrHXvQOxdw1iTFj3vJnhJ7dJTzIAmZGYHeutKPQeQyOhQ5GAI66Hbg7127Xcztk3X1JCCykN2jeT2UytUlk9yht1wk8KsBOCrBTzC+pRAmjLzDM00l5haXELAUlaDlKgesHrgD9sCAHCnxQAwPFADAilwMCKgYEUuBgRUDAgBgQAwIAYEAMCAMwBjA8UAa11x3B6a7fbPfu2/qy21hJ9BU9lQXNzznUhpscznl3XejOSQIAjponoff25G/pTc7ukpqpaWllJcs2ylgeh5BjGUPvoPSs5CgDgkgKUAAlIpYE1emKgzACAEAIAQAgBACAEAcIAQAgBACAEAc4AQAgBAHi9VNJtOtY7dVaepFqSFbp6yVoEw2O2MLyBxtLHdNqwe+SQYArj1503re2CvJtTRvW3VKi0ZS0oRIpuRfaWknHJCQkAY8fT4yYowaq+a/r7/AHitTf8A3A5+6IgDV/X0/wD3Fam/+4HP3RJA5DVzX3p/lF6m+76/3Qe4Gfmua+/3jNTfd5XxYigPmua+f3jNTfd5fxY9APmua+/3i9TPd5XxY8WB81zX3+8XqZ7vK+LFUB81vXz+8Zqb7vL+LHoB81zX3+8Zqb7vK+LEWB81zX3+8XqZ7vK+LFAPmua+/wB4vUz3eV8WAHzXNff7xepnu8r4sAPmua+/3i9TPd5XxYA/SW1U15mphmWd3GanhLziWlFNwLSQD0kYHTygCcO23Z7pAoSOr15fJ2+bpmPoiJ26ah6P7QvpCkJKQniGBhSgojqIiYJdnngwBygBACAEAIAQAgBACAEAf//Z;" vertex="1" parent="1">
          <mxGeometry x="50" y="80" width="60" height="60" as="geometry" />
        </mxCell>
        <mxCell id="HJUOC0QFOHcw_SWBB-Hj-11" value="" style="shape=image;verticalLabelPosition=bottom;labelBackgroundColor=default;verticalAlign=top;aspect=fixed;imageAspect=0;image=data:image/svg+xml,PHN2ZyB4bWxucz0iaHR0cDovL3d3dy53My5vcmcvMjAwMC9zdmciIGZpbGw9Im5vbmUiIHZpZXdCb3g9IjAgMCAyNTYgMTI4IiBoZWlnaHQ9IjEyOCIgd2lkdGg9IjI1NiI+JiN4YTs8cmVjdCBmaWxsPSJ3aGl0ZSIgaGVpZ2h0PSIxMjgiIHdpZHRoPSIyNTYiLz4mI3hhOzxwYXRoIHN0cm9rZT0iYmxhY2siIGQ9Ik05My41IDYwTDEwNSA1NkwxMTkgNTNMMTMxIDU2TDE0Mi41IDY5TDE0NSA4NkwxMzkgMTA2TDEyOC41IDExOEwxMTQuNSAxMjQuNUwxMDIuNSAxMjMuNUw5MSAxMThMODMuNSAxMTBMODAuNSA5MS41TDgzLjUgNzRMOTMuNSA2MFoiLz4mI3hhOzxwYXRoIHN0cm9rZT0iYmxhY2siIGQ9Ik0yMzUuNSA2N0wyMjcgNzguNUwyMTQgODhMMjAyIDg2LjVMMTkxLjUgODBMMTg1IDcxTDE4NC41IDU4LjVMMTkwLjUgNDIuNUwyMDAuNSAzMkwyMTEuNSAyOEgyMTlMMjI5IDMyTDIzOCA0MC41TDIzOS41IDUzLjVMMjM1LjUgNjdaIi8+JiN4YTs8cGF0aCBzdHJva2U9ImJsYWNrIiBkPSJNMTQzLjUgNzRMMTYwIDY5LjVMMTY3IDY2LjVMMTc1IDcxTDE4NS41IDY2LjUiLz4mI3hhOzxwYXRoIHN0cm9rZT0iYmxhY2siIGQ9Ik0yMTcuNSAyOEwyMTAuNSAyNC41TDIwMS41IDIwLjVMMTkyLjUgMTZMMTg2LjUgMTIuNUwxNzYgMTRMMTY5IDE3TDE2Ny41IDExLjVMMTYwIDdMMTUyLjUgNEgxNDQuNUwxMzcgN0wxMzIgMTIuNUwxMzAuNSAxOC41VjIzTDExOCAyNi41TDk2IDMyTDgyIDM4TDc1LjUgMzJMNjcuNSAyNi41SDY0TDYyLjUgMjAuNUw1NyAxOC41TDQ4IDE3TDM5IDE2VjdMMTkuNSAxMi41TDIxIDE2TDE3IDE4LjVMMTYgNTEuNUw1NC41IDU3LjVWNzJMNjQgNjlWOTZMODAuNSA5MC41Ii8+JiN4YTs8cGF0aCBzdHJva2U9ImJsYWNrIiBkPSJNNDAgNTVMMjYgNTlMMjUuNSA2Mi41TDQ0IDc2LjVMNjQgNzAiLz4mI3hhOzxwYXRoIHN0cm9rZT0iYmxhY2siIGQ9Ik0yMy41IDUzTDI1IDY1TDMzLjUgNzZMNDQgODFMNTQuNSA3OS41TDY0IDc2Ii8+JiN4YTs8cGF0aCBzdHJva2U9ImJsYWNrIiBkPSJNNTUgNThMNjAuNSA1NC41VjI3TDU5IDIyVjE5Ii8+JiN4YTs8cGF0aCBzdHJva2U9ImJsYWNrIiBkPSJNMzAgMjZMMzguNSAyN0w0Mi41IDI5TDQ2IDM1LjVMNDYuNSA0M0w0MSA1MUwzMi41IDUyLjVMMjUgNTAuNUwyMCA0M0wyMSAzNkwyMyAzMC41TDMwIDI2WiIvPiYjeGE7PC9zdmc+;" vertex="1" parent="1">
          <mxGeometry x="220" y="200" width="120" height="60" as="geometry" />
        </mxCell>
        <mxCell id="HJUOC0QFOHcw_SWBB-Hj-12" value="Schritt 2:&lt;br&gt;Entfernung Messen" style="text;html=1;strokeColor=none;fillColor=none;align=center;verticalAlign=middle;whiteSpace=wrap;rounded=0;" vertex="1" parent="1">
          <mxGeometry x="200" width="160" height="50" as="geometry" />
        </mxCell>
        <mxCell id="HJUOC0QFOHcw_SWBB-Hj-13" value="" style="shape=image;verticalLabelPosition=bottom;labelBackgroundColor=default;verticalAlign=top;aspect=fixed;imageAspect=0;image=data:image/jpeg,/9j/4AAQSkZJRgABAQAAAQABAAD/2wBDAAMCAgICAgMCAgIDAwMDBAYEBAQEBAgGBgUGCQgKCgkICQkKDA8MCgsOCwkJDRENDg8QEBEQCgwSExIQEw8QEBD/2wBDAQMDAwQDBAgEBAgQCwkLEBAQEBAQEBAQEBAQEBAQEBAQEBAQEBAQEBAQEBAQEBAQEBAQEBAQEBAQEBAQEBAQEBD/wAARCAEsASwDAREAAhEBAxEB/8QAHQABAAICAwEBAAAAAAAAAAAAAAgJAQcCBQYEA//EAGEQAAECBQICAggKFQoDBwUAAAECAwAEBQYRBwgSITFBCRMiMjhRYXUUQlVxc5GVsbLSFRYXGSMzNDU3UlRXcnR2gZKUs9HTGCQ2Q0VYk6G0wyhlg0dTYoKFlsFESKKjpP/EABwBAQABBQEBAAAAAAAAAAAAAAACAQUGBwgDBP/EAEERAAIBAgIFBQ0HBAMBAQAAAAABAgQRAwUGEiExcQcyQVGRExQVIjM0NVJhgaGxwRcjNlOS0eEWJCVCJkNy8PH/2gAMAwEAAhEDEQA/ALUIAQAgBACAEAc4AQAgDgtfB1QBD/VTcxqjrFqPOaA7PkSjs7STw3NekykLkqSCccLWcpWsEK54VkghI5FQA/CU7G7ad0sJqus2tupN5V50ZfmfksGJcK8bbakrKf0vzCAP2HYt9uJ/ty/vd0fw4Az86224+rd/e7o/hxS4Hzrvbh6tX97vD+FESth86724erV/e7w/hQFjHzrrbh6tX97uj+HAkZHYuduHq1f3u8P4cCLM/OuduHq1f3u8P4cChg9i524erV/e7w/hwKoDsXW3DP16v73dH8OBVmfnXO3D1av73eH8OBCw+dc7cPVq/vd4fw4FR86524erV/e7w/hwA+dc7cPVq/vd4fw4AfOutug5tV/UFtY71Sa6nKT4xlrpgDorh0S3Q7UWzd237VSr6kWrTk8c/Zt0O+iZky45qVLujGVpGSAkJPkX0QBI/QDX2xdxNjM3rZUwpCkKDFQpz5xMU+YxlTTqeXRzwoclDmOsCSVgbPHOKgzACAEAIAQAgBACAEAcIAQAgBACAEAc4AQAgCFWuOt977lb7mdru2KoKZkmz2q8r2ZJMtIMk4Uwy4nHEojKSUnKiSkYAUoASS0S0QsXQOxZWxbEkO1MN4cm5twAzE9MYAU88oDulHHrAYAwABAHvypI6VAeuYbitmzgZmWTz9ENfpiIuS6yawpvoZgzksf/AKhn9MRDWXWSWFP1X2D0bLfdDP6YiV11lO4z6n2D0bK/dLP+IIXQ7jP1X2GfRst90M/piF0U7jieq+wx6Nlfuln/ABBC6K9xxPVfYPRsr90s/wCIIXQ7jieq+wz6Nlvuhn9MQuinccT1X2D0bLfdDP6YhdDuM+p9g9Gy33Qz+mIXQ7jP1X2D0ZLfdLP6YhdDuWJ6r7B6Mlvuln9MQuh3LE9V9g9GS33Sz+mIXQ7lieq+wyJuXJwH2yT1BWYpdFHhzW9M5AhfPGRE0QIea/aAX9pBfS90u1pjhrTQKrqtNpOJeuy+crWhtOB23mVEYJyApPd5Cqg31t/3AWLuKsVi87Mme1vN8LNUpjyx6Jps1jumXUjo6+FWMKHMdYAGzMiAMxRgRQCJAQAgBACAEAcIAQAgBACAEAc4AQBC3W7W++dyV9Tm2LbBVBLS0sQzel6tklinsE8K5eXWnvlnBSVJIJIKUkAKUAJG6J6IWHoHYcnYNg07tErL/RJmZc7p+cfPfPOq9Mo+0BgDAAEAe5np+Tpcm9UKhMNy8tLoLjzziglDaBzUpR6gBk58kRlOMNsmTw8OWLJQgrtla27DdzP6m1BdladzsxJ2tJunts206pDtRdB74KBylscsDr5EjojE84zh461afoOjdAOT6NOu+sxXjtdiI1i4a+P7bnv1hf74x/vrG6WbO8A5d6i7DPyw171anv1hf74l35i9YeRZev8ARdg+WGverc9+sL/fE+/MXrIvKMuj/wBa7B8sNeP9tT36wv8AfDvzF6yqyrLvy12GPlgr3q1PfrC/3w78xesnHKsu/LXYPlgr3q1PfrC/3w78xesr4Ky/8tdg+WCverU9+sL/AHw78xeseCsv/LXYPlgr3q1PfrC/3w78xespLKsu/LXYZ+WKv+rc9+sL/fDvzF6zy8FZd+Wuwx8sFe9Wp79YX++HfmL1nqsqy78tdg+WCverU9+sL/fDvzF6yvgnLvy12D5YK96tT36wv98O/MXrHgnLvy12D5YK96tT36wv98O/MXrKPKcu/LXYdra+o972dX5K5aBck9Lz0i4HGll5SgfGlSScKSeggggiJRrMVSTuW6t0dy6spnT4sF43sLQttm5W39dLbS2stSVzyCB8k6eF555I7c2fTIOB4iknB8uc0VbGqicw6YaH1OjlS9n3bfis3eFZ5ER9rZhxDvcDoDfekd+L3TbXWe1VpvLt22s0k+h69LDulrS2OQewCTjBJ7pPdZCyBvjQDX6xtxNis3pZcyptxs9pqVMfUPRVOmOeWnUjo6CUq6FDn05AkgbPigEAIAQAgBACAEAcIAQAgBACAEAFr4OqAIYa26235uVvua2v7YZ4MSbJLN7Xo0T2mnS5VwuMS6xgKcICgSOajyScBagBI/RXRKx9BbCkrAsSQ7TKy/0SYmXBl+dfPfvOq9Mo+0BgDAAEAe1n6hJUqSfqNRm2ZaXlm1OuuurCEIQkZKiTyAAikpKKuz0wsKeNJQgrtla+7TdtO6rzT9iWJMuy9oy7hTMTKTwrqigefRjDXiBGVZyYwvN63vl6sWdG6AaAeDYrMKtXm+jqIvcPli0LcbfjHV2IcPlijsyadhw+WPKW8rccPlj1Ijh8sAOHyxQiOHywA4fLADh8sAOHywA4fLADh8sAOHywA4fLAqhw+WG8m2kdzZ94XFYNxSd1WrUnJKoyS+NtxB5EdaVD0yTjBSeREShiODTTLZmmV0udUrpqlXuWm7adydva7W6lt1xEhc0g2PkhTyvIHjdaPpkH1yQQQfLm1BXKqRyfphofU6OVL2Xw29jN3hWYuqMOIc7gdAb80hveY3RbWJZCK8Eld02sgH0PXJfILi0NggduwMkDmo90nushckDfG37cJY24qxWrzs19TbrSgxU6a+cTFPmcZLTifbwroUBy68UBs9JzAGYAQAgBACAEAcIAQAgBACAEAQu1s1vvjcvf01th2wVEy9PYyzel8M90xIMHv5dhYxxKOMEpOVHKRgBSgBJLRTRCwtA7GlLEsClolpZlKVTMypI7fOv4wp95QHdLPtAYAwABAHtqjUpKkybtQqEy3Ly7CFOOuuq4UNoAyVKUeQA8ZiMpKKbZPDw5YslCCu2Vp7td3U/qpNzFh2FNuS1psLKZiYSSF1FYOP8ACHLAOcnmeoRhlbm7qbxidHaA8n8cutWVivN/Ai/Fp5xuCK1VZCItokIhrX2FBFYqxS4iRIQAgBACAEAIAQAgBACAEAcoo1fYUSsdvZt43FYNxSl12pUXJGpySwtl5B6vTJI60qHIg8iIlhzdLJOLLVnOTU+c07wMdeKWmbZdylA13tvgcUzIXLT0J+SNPLg5kjm60Oktnp8aScHqJz2irVVROU9MdD6nRyp3N4bexm8iAoYUAfXj7zDiHO4Hb/fmkF7vbptrsslFaZy7ddqMI4Jevy2SXFpQnA7cASogcyRxJ7vkoDfG33cFYm4qyEXhZcypt5lQYqdNfUPRFPmOttxI8oPCroUBkdeKXBs+KgQAgBACAEAcIAQAgBACAIW62a2X5uVvuZ2w7YZ9yUlJY8F63q3ksU9gnhVLsKAypZOUkpIJIISQApYAknonohYWgdjSth2BTRLyjPdzEwvun5x89886r0yj7QGAMAAQB7eoVCSpck/UKhMol5aWaU8664eFCEJGSVHoAwIpKSirsnh4csWahBXbK1N3G7qa1VqMxYVhzbjNqSq+CYeQShVRWDjJI59q6wnPPkSOgRhWbZt3w9SG46N0A0AjlyVZWLx38CLsWdNPabj3bEIle5Rq4jytrbQIlF3K7xEiLECQgBACAEAIAQAgBACAEAIA5QAiktu8o9qO4tC77isK4pO6bVqbsjUZJfG26gnBHWlQ6FJPQQcgiJ4c3FppltzLLabOqV01QtaJaXtr3LW1rtb6GFPtSdzSCEioSHFg8/61sdJQcjygnB8udUNaqlbTlHTHQ+p0dqm0vu29jN5Yx1xcHuMNIea/6A3xpHfju6Pa40lmttgv3XaiOUtX5ZJBcUhvo7djJIGCT3Se776CBvXb7r9Yu4axGbxsx9TTrSu0VKmPkCZp0x1tuJ8XI8KuhQ5+MCaBs7pioMwAgBACAOEAIAQAgCF2tutN+7mL5nNse2CfLNOlz2m9b1Z7piQYUeFcuwr0yyONJI5k8hgBSgBJLRLRSxtBLEkrCsSn9qlpYccxNOYMxOPq7951fSpRI6OgAADAAEA9m89vP1CSpcm/UKjNNS0tLNqdeddVwoQgDJJPUAIpKSgryJ4eHLGkoYau2Vq7ut2k7qvNzFg2FOuy1qyyyiYmUnC6ioHrxjDQxyBHdA5PVGI5vm3dlqU50doBoBHLUqvMF476+gi5GO2vvNvpKOxCClZE0riJJ3JCKpERFQIAQAgBACAEAIAQAgBACAEAIAQAgDlFArI7izLwuKwrilLqtWpOyVSknAtp1B6R1pUPTJPQQeREShKUZXTLVnGTU+cU88DHh4si0nbZuZt7Xight5bchc0k2n0fTivPPrda+2QfXyDkHy5zQ1vfK2nKel+htVo5UPY3h9DN6xcrGGkOtwm3q/NK77md0e1mTT8sPCV3PaiU/wA1rsvkFxaWx/W4GSBgqPdJ7rIXUG9tvu4GxtxFiM3jZr623mVCXqdMmOUzTpkDJadT7eFDkoDl1gAbOBB6IAzACAEAcIAQAgCF2s+tl+bmr7mtse2GomWp0ueC9L1ZUosSLGe6l2Fp5KUrBSSlWVElIwApQAknopolYugliyliWHTgzLsgLmZpaQZidfwAp51QHdKJHrAYAwABAXttPaT8/I0mRfqNRm2peWlm1OuuurCEISkZJJPIACKSko7WTwsKVVJQgrtlau7XdtOaqzr9iWHNOS9qyyyl+YSrC6iscs5H9UMJIB6cZPUIwrOM474fe8To7QDQBZclV1ivN9fR/JF9MWjoNxbtiMRGSAikSSVhEyj2CPNuzKCPQCAEAIAQAgBACAEAIAQAgBACAEAIA5QBmCnqi53Fn3lclgXJJXXalSckqjIr423EHkeWClQ60kEgg8iDgx64dVLDkrFqzPLKXPKV01Ur6xaVtp3L25rvbqGnXWKfc0igGoU8uDJOObrQ6VNk/nSeR6ic1oa1VS2nKWmGh1To5UvZfD6Gbw4uKLmYcQ+3AaAX7pPfru6bayzwV9GXLptJoES9flv6xaUA4L2O6IHNRAUnux3QG89vuv8AY+4ixmbws+ZLMyzws1WlPLHommTWO6ZdTyPSFcKsAKAzy5gAbRgBACAOEAIAhZrZrdfO5a+pvbFtiqJl5CWPar1vVriMvJME8K5aXWnvlnmnIOVEEJISFLAEltFdE7B0EsaTsOwKUmWlWBxzEwvun5x89+86vpUon8wGAAAAIB7N57WoVGRpUk/UqjNtS0tLNqdddcVwpQgdKlHqA6zEXKMdsmTw8OWNJQgrtla27bdtO6qzrtj2PMOy9py7hS8+lWF1JYOCSR0NAg4SenkSOgRiecV3fC1cBnR+gGgEctSq8wV5v4EW4xy3WbeSUdiESi7kxEiu4R5y3lbiPQiIAQAgBACAEAIAQAgBACAEAIAQAgBACAEAIoDlFNkSmw7e0LvuSwbkkrrtSquyFSkV8bTqMHPjSoHkpJ6CDyIj0w6mUJKxas5yanzmndPjrxWWl7atzFA1yt3tbgbk7kp7QNRkuPOT/wB639sg5HiIJ9YnOKGuVUjlnTHQ6p0bqXs+7b8V/Q3lyWMKTy8Ri57jCCHu4Xb9fGk18K3T7V5RDVwsfRLsthA/m9wSoIK1Jb6O3YBJxzJ7pPd98BvTb5uCsjcTYbN42hMKamGSJeq01/CZinTQ75pxOSRzBKT0EY68gAbPBzAGYA4QBCvWzWu+dzt8ze2Pa9Ug1S5cli970bJ7RJMKUULl5dQPdrICxlPfHISQApQAknohovY2gdhSdgWHTu0ykt9EmJhzm/OPnvnnVemUT+YDAGAAIC9tp7ioVCRpUi/UajNtS0tLtqddddWEIQhIySSeQAAiknqq7J4WFKqkoQV2ytLdpu5mdV6i/YtiTLrNoyrhS/MJWUrqSxyJPPk1yyEkc85PUIwvN63vl6sWdHcn+gCy6Kq6xeO+h9H8kYItF3Y3Fu2IR5yAhErYRMixEGtpS4iZIQAgBACAEAIAQAgBACAEAIAQAgBACAEAIAQByim8CKWSKN2O4tK77hsK4pO6rVqDkhU5FfGw+jpB6wR6ZJ6Ck8iI9oTcGmnuLdmmV02d0rpqlXuWlbaNzVva7W+mXmFNU+6ZFA+SFO4geWMdta+2bPrkg8j1ZzagrlVI5Q0w0PqdHKl7L4b3M3kCFCLmYaQ93Aber90pvtzdJtWlg3cTWXLotdvlLV6W6XClscu3HviBzURkd1kKA3lt83A2HuLsdu8rKmltusKDFTpsxymafM4yWnB7ygMKHR0EADaUAQ53Kapak6z6onZ7oBPGmzC5UP3xczZz8ipNYB9DowQQtYKQrBBPGEgjuiAJBaLaI2NoNY0pYliU5DEsz3czMlAD86+e+eeUO+UfaAwBgACAPaz07J0qTen6hNsS0uwguOvPLDaEJHSVKPIDyxGclBXZPDw5Y0lCCu31Fa27jdvO6rzrtjWJNOS9py6ih59KiHKkoE4J8TY5EJOckZPUBhldm7qW4xOj9ANAFlqVXWK83t4fvxIvxad5t5LV2IRRkxEU7ldwiSK3EUIiAEAIAQAgBACAEAIAQAgBACAEAIAQAgBACAEAIAQAgUOUEk9jFkdxaN5XJYNySN12pU3JGpSDnbGnUHp5YKVDrSRkEHkRyMVhOVJJPBZas5yWmzqndPULxS0rbNuZtzXW3ksPONSVzSTYM9IceeLPS811qbJz1dyeR6s5zQ1yqltOWdMdDqnRupey+G9z+n/283nkRc9xhBDjcboTeOjN3TW7TbMn0NW5NJmLsthsEStelRzdWEAgB0JyogdJTxDCxhYEi9EtYrb120yomp9opKZKsMcS2HF5clX0nhcZXgd8lQIz1jB64Ajr2NeTauKxdQNZaiA7Xr3vOedm5hY+idpaCeBsnqCVOO8vLAEwT3KSo8sDMNxWK1mVobuN2dQ1TqMzYVmTC5a05R1TUwoEocqS0nHEojmGs5wnPPAJHQIwjOM374fe8TpDk/0BWXQWY1avN/Ai5yzFpS2G4bpKyESZUR88r3K2ESSISdhEkmjzeNBf7IRI9FOL3MRQkIqBAo2lvELMprR6xCzGtHrELDXj1iFmNaPWIWY1o9YhuK3QgVEAIFBCzIvEgt7QhZhYkHuaECYgBACBS6ELMprR6xCzGtHrELMa0esQKpp7hAqcoAEZihRuy2nbWhd1w2HcMndVrVJ2Rqci4FsvNk/nSodCknoKTkER6wk4NNMtuZZZTZ1TOmqV4partf3E0rX60HJxUuqUrlL4WqnLYwjiI7lxrxoVjo6QQR4ic3oaxVUTk3TDRmejdY8L/R81/ubpcbbdbU06hK0LBSpKhkEeKLkYiU13fuGu/ahqxqXo/YLswzQ5S8KhOyjDXEUS7bxQUtDB6EpCRz5wBNXsWnguq/Kep++3AoyXE59Svexq96KS2JnpTc+PEo7rgxWJ38Yd+GY1nVR++bO5Mma8HQ4I+SJI+kR5ybS2E3sO/saw7r1IuKXtazqQ9UajMZKW28AJA6VLUSAlI6yTE6OEqp2SLTnWd02TU7qKh6sUTt0j7HZY9GlUVHVWoTFcqKsKVKS61MyqDz5EjC19XPKRy6IyyjyZJXxjn/SLlUraubjQLVh8TftN22aEUuWTLS2ltvcCQEgrkW1qOPGSCT+cxcPBtO9moYHPSvN8d63dmeeu/Zvt7uyVUyvT+TpTxB4Zilkyq0/mR3J/8ySPJEZZTTTVtU+2i08zyhkrYza9tv8A9IZbgNj93aUSb1zWM+9clutZU4kNJTNyyfGpKcBweMpGRzOMRjtbkkqbxou6N1aL8puFm1qWr8TE+HaRjiyyVlY2zCSlFST2Ehtk+ltj6sak1eg35QkVSSlqK5NNNqdW3wOB5ocWUEHoJ5Rdcmo41UnrGruU/O6zJqfCxqOerdk3v5Fe2/73rP63MfHjKfBlOug0j9oWe/nPsX7AbK9t5/7PWv1uY+PFHllP1D7QM9f/AHPsRn+RVtw+941+tzHx48vB1P6o/rzPH/3PsQ/kU7cPveM/rkx8ePRZdT+oU/rzPPzn2IfyKdt/3vWf1yY+PFXl1P6hX+vM8/OfYjyeqm0Pb9QNNrkrdMsFlqckabMTLDnop88DiEEpOCvBwR18o+Gqy6n7g2kXjJtOs8qswwsDGxvFbSexFYwOYxF77HUuG24J+w+ulUmqV2qStGo0g9OTs66GWGGUFa1rPQABFYxk3ZHzZhXwy+DqKl2RNrRbsd7c3KtVrWiqOoWrhWKNIrA4Tz5OujOekck4/CMZPRZRsvjGitI+Vabk8DK/1fsScoO2DQS3mktSGltCVwdC5iWTML/Scyf84u3gumW5GtqrS7Oarn4792z5H4XHtR2/3NLKZnNMaPLrV/XSTXoVwf8AmbIPt8oPK6e24UumWc0jusdkVNc+x7VG3ZaZuPRypTFVYTlxdInFp9EgdfanOQXgelUAcDpMWCtyjpwDaWjfKpKoaps2/V0fwQ2m5SZkZl2TnGFsPsLKHG1pwpCh0giLC4tOzN6YWLDFgpwd0z8ooeu87W05GWqd0UinzbfGzNT8uw4noyhbiQoZ6eg9UIc5ItWdTlSUmJKO9ItMRsn21lCSdOmySBn+fTP8SM6jlNPbccqS5QM+Ta7u+xfscv5E22r73Lf69M/xIr4Kp+oj9oGf/nvsX7GP5E22n73Lf67M/wASKPKqfqH2gZ9+e+xfsdFcmwHb5WmFt0ykVGiOqB4XpKdWSk/gucST7UeUsop2rFyo+U3PaV7Z6xEzXLZDqFpZLP3DbLxuagsd084y1iZlkjpK2gTxAc+ac+UDpix1uVSpfGjtRt3RjlQo82tTVa1JvsI4EYOD1RZrbbG0YTjiJSi7oxFGSRmJXRCSsyc/YyzhF+eySfvOxkeRJ2n7jQHLIl3XA9/0J3Rkxo4oT3seFfqf5+d+CmALLOxZ+C4r8p6n77cSZRkt5v6ke9jVEZPeelP5RcSjuu/Xmd/GHfhmNdVa+9Z27kzfg6HBHyR53sXWKP1lJSZn5lqSkmFvTEw4llltAypbiiAlI8pJEIRctiPnrMVYGG8RvcWx7YdAKJonYko25LsvXHUm0vVSdSkcXEe6DST9onIHl5nr5Z3RUcaXAWzaciaa6VVGf5g0392m0l9Tdac84uGtZGHbGth+b03KsYD8yy3no43AM+3Ee6Jb2VjhY0+ZFv3H6haV96Un1jFViIi1NH5utocTwLSlSSMFJGQYN62wRliRd0Vp74NvcjpjcjF+WlJJYoFwTDgeYaRhuVm++UE+JKuZA6sK6sCMRzmiVK9ZbmdL8mWlPhWn8G1L+8h8UfR2OiYl5fV+uLmZhtlJoDicrUB/Xs+MxXJJKGO10WPn5XcKeJQ4Sgr7f3LG/k3R/VaUP/WT++Ms1o9a7TnnvCp6YPsZzaq9MecS0xPSzi1dCUvJJP5sxTWj0MSo8bDWtKDS4M+0HPVFT52flMTcvKoLsy8hlA6VrUEge3FG7byUMKeK9WCu/YfMazSvVWTH/XTDXj1rtPTvKqe6D7GeF1vrNJc0ku9CajLKWaNN4CXknP0JXljwqnHuEtq3F90eoqlZlg3g+cuhlOHljX0udY7Jg1DCTl0L6Fj2xvbjT7MtZjVO6JQTFfrrQekg6j6klFZKOEHmla0kE9YGB485bk9CoLu0ltOaeUrTGWYVToKaX3cOrpf8EsgOExkHQaquntDs3KyiC5MvttJHSpawkD248ZSS3sksOc3aKufq2808kLadStJ6Ck5isXfcRlCUXaSsDzHPoj0SKIgzv526ShkF622hIJbflyluusMt47cgkBMxgdKk8grlkjBJ7mMWzejv9+kbq5MdLZQx1lVS7p839v2IIRjOsjohHe2J/TWgedJT9qmJ4fPRaM+20WLfq+hdw19KR+CI2WtxxLLnMw882y2XXXEoQnpUo4A/PBtJbSkYym7RV2fGK3Ss/XST/wAdMeOtHrXafR3lU+o+xn0tzbDwBZcSsHrTzEekZJ7meEoShskjmpKVJKVJBBGCCOmJNXKJuO1FcO+nbhK6e1hGqVoSCWKLWZjtM/KsN4RKzKgSFpA71C8HPiV+FGHZtRd73x0jobky0u76wvB1S7zjuv0oiXFhk7m7EIo77CMt5OjsZYym/cfbyfvPRlmRc2fuNAcsnlcD3/QndGRGjShPex4V+p/n534KYAsq7Fl4Lqvynqf+3EmUZLac+pHvY1e9EJdJ6UvPXEo+rv14nfxh34ZjXdY/vGdvZMv8dDgj5I+VvbcudzemyqypW9dwdBbn2UvS1HQ5VlIUeRWzjtZ9cOFB/NF4yda9QjXPKfXOkyOaT2uy7WWvBGAADgDqjPLbLHKj27TSm7HXRzQnTVVWpSWnK7VXvQdMQ5zSleCpTqh1pSketxFIPTFszSrVJg3W8y7QrR3+ocwWC+ZHnFW9135eV81N2sXRc9SqE44c9temFK4OvCU96keIAACMNlWSl0nUVFkGW0cFT4WEuw3Lts3UXppRc9PpFxVueq1qTTiJeZlpl3tplEqUB21oqyQRnJTnBHF1gEfRQ1zp5JNmG6acn9NmNLKqpEliJMtMQpK0hQ6xmM8VrHMklbYal3VWXKXroJd1Oelw67JyDlRluXNLzCS4kg9R7kj1iYteaw75p2jIdCq6WV5zhY197t27PnYqLQ440T2txaM9PCsjPtRhetq3SOxlCGNBa6Tuuk/RU7Oo7yceH/UV++Pnc5rpZ83gyj9RdiNp7Wp+eXuBsdLs28tJqqMjjPPuFePMXTJpydSrsxHTvL6XDyDHlCKTt1Fvic8ucZwckPeRo7IM86zt/fWy6ttfyVk8FJx6cx8GbPUpmbE5M8OM89gpq6sysn5ITn3S9/iq/fGC68m951N4Morcxdg+SE590vf4qv3xTXk97PLwdSRd4xXYei0rtn5ctSLZtdaOJmp1SWl3hjOUFYKv/wAQY+qhWvUwRa9KKvvHK8XH6kXRU+VZkZNiTlmkttMtpbQhPQlIGAI2ErJWRxriyeJNyl0nktYtSKZpFpzWL8qiO2IprIU01/3rqlBKEAnrKiP8z1R89ZUqlwnNn26P5TLOK/Doo/7P4FS+pWs+o2q1afrF33LNvh1ZU3KNuqblmE5yEIbScADxnJPWTGCVdbUVT2M63yfQ7Lcsp1g4eGmztNHtwWomjlflajQq/OvU7twVO0t59S5eZbJ7pISrPArGcKTgg+Mco9KCsx6Vq7Pl0o0Hy7NKR6uGlNLeW22Vd1Mvq1KXdtGWVydWlGppri5KSFDOCOog8j5RGdQx4zSZyVX0M6CqxKbG3pn7XbQJG6bZqlu1FlLsvUpN2VcQroKVpwY9JRjKLuhQVToqvDx4vc0yk6t0x2iVieo0wrL0jMuSznLHNCik/wCYMa3xElJnbmWVSq6SGN7EfdY39NaB50lP2qYjh89HyZ55li8PoXcsfSk/giNlrccSz5zNTbr3HW9vN8LZXwLFKcwenrEW/M3amnYybQyMZ51gRluu/kyov0dOfdT3+Kr98YI5S6zryOW0bgrxW7qNgaRa+6kaO1yXqlv3BOPySXeOapj7xVLTCD3yeE5CVH7Yc8gdI5H7KGulSyW0xrPtCstzaklq4dnt3by22w7vpmoNl0a9aGpSpKsSjc20F98kKGeFWOXEDkHygxnsJKaujk7MKKVBVYlNi74ux0uullMagaS3RazzKHFTlOe7TxeleSkqbV+ZYSfzR89clKnkmfbozWSy7NcLGi/9l8dhTPGvZb2dqYEtbDjL2I4w2XJS3k6uxjd7f3skl7z0ZPkW6fuOf+WXyuB7/oTujIzRxQnvY8K/U/z878FMAWVdiy8F1X5T1P8A24kyjJbTn1I97Gr3ohLpPSl8ouJR/XfrzO/jDvwzGt6u/dWdw5N6OhwR8cRPrJS9jq+zrOeY3/2rUXjR9Xx3c1Pyu+io8UWZdUZsc0EEOybE8VjJKjw8M+SM8sgNfvjFdIZXUTd/I55TGv7CCqYxlJM6GSP0hDbNHz1O3BmvY/kXSWZctBFpUZTlZkypUhLlau3p5q7WnJ6Y2RDEjqrb0HFeZZbWOsxWoPnPofWfHqfcdvv6bXSy3WpJa10ebQlIfTkksqAwMx5VUo97vaj0yjLqtZhg3g+cuh9aKZY15KTuztHA2YUeC+RyIzDVseptTa0n/iCsfn/aiPgKi55P5zAw7T78P4/At+QDgetGdo4+e8jN2Qnnt8fP/NZP4Zi1Z5spjYvJj6ehwZWJGCJ3OqkI9kDa21bwgrHHjqif2az/APEfZlMb1EDDeUR/4DG4FvwAwIz1HIbZGXshLjqNA1BtfCFVaVCvKBxHHtgRas982NjclSTz+F+plY4OYwRM6rMEZj6E7lJbi2bZj4NlmY6peYT7Uy7GcZSk6aDftOP9PElpBUJda+SN2Od4r1jFzZhkecilbVlOdVrzOP7fqH+ocEa8rUtd+87T0X25XhcEfBY39NaB50lP2qY+XC5yPqzzzLF4fQu5Y+lJ/BEbMW44lnzmam3Y+DvfPmpz3xFvzPzaZlGhK/zuAva/kyoSMDOxMNeKhFLK9z0bsmWybKvButH2F79suM4yZt0+04/0/j/yDGXD5G6ap9b5r2FfvRc8TmMxOm8vDiUZuK4HVN46I1nic5ncNFeWDDgvkYijvdH1S3k6uxjd7fvskl7z0ZZkW6fuOfuWTyuB7/oTujITR5QnvY8K/U/z878FMAWVdiy8F1X5T1P/AG4mGS2nPqR72NXvR5y6SdLz1xKP679eJ38Yd+GY11V+VZ2/k3o7D4I+OPlLiST2AVyWpGvrUrMO8CqpS5mUaGOlWUL95BHrkRkGj1u72uaq5WKSWPlOsv8AX9y0MGM0e05h3ER+yIaZ1i7dOqbeVIlnJkWw+4ubbaRxLEu6EhSwPEkpTnxAk+ljH84pHLAujanJXnVPQZjKnqHZT+hW8EY8kYY1q7zp5SU1eO4/RPXEolGk9hmPbujXSfO6Cnk7yiuw4x5ynLrKrLqWO3VV+AikT23bhE1YmbU2s+EFY/nVHwFR9+T+cQMO0+/D+PwLgkjlGdo486WRk7IT4Pj4/wCayfwzFqz3zU2PyY+nocGViRgZ1YhE4lTam1Xwg7H86D9k5Fzyhf3EDCOUV/4HG4FwY6B60Z5Y5DZGHshf2Az52lveXFmz1/2xsnkp/EEODKxoweMbnVTEeyKPcWzbLznbXZ3sUz/qXYzrKfNoHIGnv4hqOK+SN2ud4r1jFyl0mFx5yKV9Wvsq3p+UVS/1Lka8rWtd+87T0VX+KweC+R19jf01oHnSU/apj5cLnI+rPfMsXh9C7lj6Un8ERsxbjiWfOZqbdj4O98+anPfEW/NPNpmU6Eenqfi/kyoSMDZ2LG2qhFCMtxbHsrP/AA3WmCcYQ+n/APcuM5yVf25yPygK2f43u+Ruqp/W+Z9hX70XLEfiMw+m8vDj9SjKYB9ErMa0nzmdyZd5GHBfIRXYe895OrsY3e397JJe89GT5Fun7jn/AJZfK4Hv+hO6MjNHFCe9jwr9T/PzvwUwBZV2LLwXVflPU/8AbiYZLac+pHvY1e9HlLpJ0nPXEo/rv15nfxh34ZjXFUn3VncOTejocEfHFEj69qO9sO76hYN50a86X9U0ecamkJ+3CVAqSfIoZSfIY9KObhUJltzygjm+W4tNjf7IuU0/vmhajWjS7ytybS/JVKXS8kg80q6FIV4lJUCkjqIMbCpqlVEbo4uzfLMfKquVPjf6s72bYbmpdyVfaQ408koWhachQPSCOuPeUVJbT5cPE7nJTg7NEadU9hukd8uTFStMu2jUn1qdcMr3cq4snJ4mVHueee8KenoPKLNWZJT1TuthsbI+UvNsntHHevBde8h/qbsv1v017dON0JFxU1s59E0gqeUE9XE1gLB6egKHLpixVWUY9MvF2o29k/KPlOa213qTfQzRa0LbWUOJKVJJBBGCD4osr1o7zY2HjQxVeEkz84orHrvEVKCKtMmbU2s+EFY/nVHwFRcsn84gYdp9+H8fgXBp70etGdo4+e8jH2QrwfX/ADrJ/DMWbP8Azc2LyY+nocGViRhUTqxCJlTam1XwhLH86D9k5FxyjziBg/KJ6Bxi4EdAjPbHIzRGPshn2BD53lveXFhz/wA2Nj8lX4ghwZWNGFy6DqpiIkZbmWy7L/Brs72KZ/1LsbByjzWByDp7+Iajivkjdzn0tXrGLjLczDI85FK+rX2Vb0/KKpf6lyNbVzfdHxO19FF/isH/AMr5HX2N/TWgedJT9qmI4S2o9c98yxeH0LuWPpSfwRGy1uOJZ85mpt2Pg8Xz5qX74i35n5tMyjQj09gP2v5MqEjAW9p2FB+Kj9ZaWenHkS0s0t191SW2m0JypaycBIisFrNWPPHxY4OG5SdrIuC24WJUNO9FrVtWrpSmelJFK5lI6EPOEuLR5SlSiD5RGwaCHe9OkcdaVZkszzXGqMPc38th7S86zLW3alWr06f5vIyTz7pz1JQTHpjNqDuWrLKd1NVh4K3tr5lIzh4lFR6TGuZ85nbNJHUwoL2L5HGKO90fS95OrsY3e377JJe89GWZFun7jn/lk8rge/6E7oyKxo8oT3seFfqf5+d+CmKAsq7Fl4Lqvynqf+3EwyW059SPexq96POXSTpeeuJR/XfrxO/jDvwzGuqu3dWdv5N6Ow+CPjiDLg7GDHi47bkXtN5bYd0Vw6DVdVNnmnKpa089xzUkD9EYUel1rPLPjSeR8mMi80Va6TfzTXWnOguBnuB3zh+LiL48Sy7TnV6wdVqcip2VckpUWyAVtJXwvNE88LaOFIPriMtpq7AqleLObs1yOsyiTjU4bXy7T2ihnGI+rZ0FmXtMLQkjBAPriPN26SadtxozX/ajYetlMmJ5qSZpN0ISpUvVZdsJW4rHJLwA7tPIczzHUYt9ZQ09Ut20zLRnTKs0fxYpy1sPpX7FX9+WTcmm92VCzLrp65SoU5wtrBHcuJ9K4g9aVDmD5fHkRh1ZRukdjqPJM5p86pVU078VnRA5j5ol3OMeisTNqbWfCCsfzqj4Co+/J/OIGHaffh/H4FwKegRnaOPHvIzdkJ8H1/zrJ/DMWjPfNjY3Jj6ehwZWHGDM6tQiUSptTar4Qlj+dB+yci6ZR5xAwflE9A4xcAOgRn1zkZsjJ2Qv7AZ87y3vLixZ75sbH5KvxBDgysaMKidVMRMpLcWy7L/Brs72KZ/1LsZ3lPm0DkDT38Q1HFfJG73O8V6xi4vcYXHnIpT1a+yren5RVL/UuRrisVsR8TtnRV/4rB/8r5Hx2N/TW3/Okp+1TFcK10eme+ZYvD6F3DH0pP4IjYy3HEs+czzOpFi07UqyaxZFVm5iWlKxLmWddlyA4gEjmnIIzy6wY8KnDVRguB92WZlLK6qFVDfEjL87T0l67zur/Elv4MWj+n6dmxlyr5olZRRsrSnZxo/pHVGrgpEjN1SrMD6BN1NaHSx4+1pSlKUnHLOM+WPspMnpqR3SMdzjT3Nc4j3DHlaHsN6p5DHii46ttxhb6yKW/jWyUtDT35mlJmwa5c44XkNr7qXkge7WodXERwgdYKvFFkzeqUIaqZs/kv0dxMyzCNbNeJDr6ytknMYezqOMdXYIbLlJbydXYxu9v72SS956MnyLdP3HP/LL5XA9/wBCd0ZMaOKE97HhX6n+fnfgpjyYLKuxZeC6r8p6n/tx6hktpz6ke9jV70eUuknSc9cSj+u/Xmd/GHfhmNcVSfdWdw5N6OhwR8cFuPtQijV0SSuYAxHiSe0++jV6t27OoqVAq87TZtsgomJOYUy6n1lJIIj1jKUNqZaa/K6SvVqiKd/YSR0u3+6sWaluQvFDF1SCMJ4phQanAnyOgYV4+6ST5YvtHnGMlaW41rnXJPQVbcqT7t9vwJq6IboNNtckCSoE07IVptvtj1LngEPBPWpBHJwDlzHRnmBGRUtbgVa2PaaW0j0NzLRyX36vDrRuBIB64+tpJ7DFW7bCIPZCtH5S4rFl9UqawlNTt5YamyhvunpRZA5nr4FYIz1KVFjz2kU4d26ja/JVpDOkzDvGT8SfzK6kxh0jpe99piJNMmbU2s+EFY/nVHwFRcsn84gYdp9+H8fgXAo7380Z2jj57yM/ZCfB9e86yfwzFkz5/wBubD5MPT0ODKwow1Kx1chEiptTar4QljedB+yci45R5xAwflE9A4xcFkxnhyG3tIxdkL+wH/6vLe8uLFn/AJsbK5KvxBDgysaMLl0HVTERIy3Mtl2X+DXZ3sUz/qXY2DlHmsDkHT38Q1HFfJG73O9V6xi4vcYXHnIpU1a+yren5RVL/UuRryuXjviztTRX0Vg8EfDY39NaB50lP2qY+fCb1kfTnvmWLw+hdyx9KT+CI2WtxxLPnMyrAimyOwja5jjR9sPbiVytmfm9MsS7SnnX20JT0lasAfniF1vJRw54j1Yq7I469b1dNdMJSZplqz8vc1yoStLcvKPhUuw7jA7c4nkMEjuAeI9GBFsrM3jSKy2mfaNaAZjnElLHThh+1bStq9r4ufUO5Z67ruqjk9U6g5xuuKPJIAwEJHUkAAARh2LiOrxbtnTuUZJTZNSxp6ZWjE6KPnnsZdlvERu2QlvJ1djG72/fZJL3noy3Id0/cc/csnlcD3/QndGSGjyhPex4V+p/n534KY8mCyrsWXguq/Kep/7ceoZLac+pHvY1e9HnLpJ0vPXEo/rv14nfxh34ZjXVXburO38m9HYfBHxxEuOwRC5S4hYqIkSMEZjwkrA7ez7rrVi3PTbst+aUxPUyYTMNKBxkj0p8YIyCOsEx9dG3CSLPntDTZrR4uDjroLsaLPIqlIkqk1yRNsIeSM5wFJB/+Y2FHakziirh3Golh9TaPI66UZiu6P3lS5r6U/RJ0HyHtKsH1weY9aFXZ4Ek+ouuj9S6bNMCUfWXzKZ0xrd72do4LvhxfsRiJKx7m1NrPhBWP51R8BUffk/nEDDtPvw/j8C4JHRGdo496WRk7IV4Pr/nWT+EYs2fr+3NjcmPp6HBlYkYadWIQKm1NqvhCWN50H7JyLjlHnEDB+UT0DjFwQGRnMZ4chtEYuyF/YD/APV5b3lxZM982NlclP4ghwZWNGFROqmImUluLZdl/g12d7FM/wCpdjO8p82gcgae/iGo4r5I3c53ivWMXKXSYXHnIpX1a+yref5RVL/UuRryua13xO19FbeCsHgvkdfY39NaB50lP2qY+XC5yPbPfMsXh9C7ln6Un8Ee9GzI7jiWfOZq/c1Wqrb2hV41uiVCYkZ6Upq1sTEu4W3G18QwpKhzBEfBmcnHAbRf9E6SFbm+DT4yum38irlO4LXJX/atcvug7++MMddVdb7TqaOhOSOK+5XYdRXdTNRbnR2m476r1SZJyWpifcU2T4ynOP8AKKOsqHvZ91LoxltJtwcJHmlZUckx82s5by9xhGCtFWOMeSdtxMRKIQiey5GW8nV2Mbvb+9kkveejJ8i3T9xz/wAsvlcD3/QndGSXNHFCe9jwr9T/AD878FMUBZV2LLwXVflPU/8AbiYZLac+pHvY1e9HlLpJ0nPXEo/rv15nfxh34ZjXFUn3VncOTejocEfHDoPssbn23bbZ3cTNV2Vk7saonyDTLKUpyTMx23txcHLC04x2vy5zH00dG6vcYFprpc9Fe5rU1ta/wN4/OzK399+n+5Kv40Xn+nla+sYEuWRr/pfaR43C6FzmgF4SdoztwtVlc5T0T4faliyEhTi0cOCpWT3Genri01lH3na5sfRDS3+qsGWMoatnY1dHx2M3YieF4skfJVbcGfB/Iu6sPHyk0HzbLfs0xsOHNXA4jzLzzF/9P5nxarY+ZpdefUWd/YqiFU/umTynz/B/9L5opUjW8+cztvA8lHgvkcYk0z6Dam1nwgrH86o+AqLlk/nEDDtPvw/j8C4NPej1oztHHz3kY+yE+D4+f+ayfwzFpz1f2xsXkx9PQ4MrEjCU7nViEGVNqbVR/wAQdj+dB+zXFxyh/wBzAwblEf8AgsYuBHQIz6xyO0Rj7IZy0EPneW95cWHPdtObH5KvxBDgysaMOlE6qEQasRluZbNsuH/DXZ3sMz/qXYz/ACrZTQOQdPvxDUcV8kbtc+lq9YxcZbmYbFeMilfVr7Kt5/lDUj//AEuRraub7o+J2lovdZVg8F8jr7G/prQPOkp+1TEcJbUfTnnmWLw+hdyx9KT+CI2WtxxLPnM1LuyGdut8+bFfCEfBmfm0zKdCPT1PxfyZUIBiMC3HZEOajnFCtxA8zjFESQg1cqhEbtsjLeTq7GN3t++ySXvPRl2RLZP3HP3LJ5XA9/0J3RkBo8oT3seFfqf5+d+CmALKuxZeC6r8p6n/ALcTDJbTn1I97Gr3o85dJOl564lH9d+vE7+MO/DMa6q7d1Z2/k3o7D4I+OIlxRNPsZtQl2rovmluKw9MyEm+geNLa3Qr9oIyDRv/AHTNF8tUG8Knmui5YCDmMt2GgCvrslFm1Fu77avtiVcck35E0p1xKchtbbinEAnyhxePwDGH6SJuzSN9cj9bCGHi0ze29yGPD5YsK3G+2zsbct+pXTX6dbNGl1zE/VJhEtLtoTnK1HHPxDxnqEeuHGTkrIs+b1sKGinjydlZl2duU9FJocjTEdErLts/ooA/+I2DFWikcWVuL3aonidbb+J5rWupy9J0hvGpzSuFpihzqlH/AKKvf6Pzx5VbtgO/UfXkGG8fMcGMfWXzKYY17q7WdrYKthRXsRxiVj6Dam1nwgrH86o+AqPuyfziBh2n34fx+BcCnoEZ2jjx7yM3ZCPB9f8AOsn8Mxas8f8AbGxuTH0/DgysOMEe86tQisdzKmy9tVTl6TrzY83MnCDWGWh+EvKB/mqPvyl2qYXMO07pnUZBj26i4lHNKT4wI2JfYcgS2M0Jves2oXjoLV2qXLqmJilvM1LtSRlSkNE8ePKEFR/NFmzeLnT2RmnJ/Wxos5w5ydr7CqY9MYW9h1zCSlFSQ6e5TzWe9HjiiV9xTGmsODlJ22Fwu2e1KhZOhdn25VklM3LSHG6kp4ShTi1OFJHjBWQYzygi408EzjPS+sjW51UY8el/JWNlzC+BhxWO9QT/AJR98tiuWHDWtJIpR1InmqpqHc9Ul/pM5WJx9s56lPKV7xEa2qvGxG/adq6PQ7nlmFF9CR+Njf01t/zpKftUxPCtdFc88yxeH0LuGPpSfwRGxluOJp85mpt2Xg7Xx5sV8IR8GZ+bTMp0I9PU/F/JlQkYEzsePNQgUbEAhAkIBCKNXZGW8nV2Mbvb99kkveejKsi3T9xz9yyeVwPf9Cd0ZCaPKE97HhX6n+fnfgpgCyrsWXguq/Kep/7cTDJbTn1I97Gr3o8pdJOk564lH9e+vM7+MO/DMa3qn98zuHJvR0OCPjiS3H17TbO1vVNOkes1GuSemFN0maJptS8SWHikdsPkQoJUfJmPty6r71xzC+ULKPDmUTw0rzW1e4t4l3W32kvNKCkLAUCDkEGM4U9mscjTg8OTi1Zo6K+bGtnUS2py0rupqJ+mT6OB1peQeRBCkkc0qBAIIIIxFZwjUR1ZI+zK6+oyjHVTTStJESK92NG3JmouTNv6lz8nKLOUS8xIJeU35AtKk59qLBLRxXvrm1qLlgrIRtUYOs+Nvobg0H2g6c6HzXydl3Jit3AUlIqM4Egtg9IbQBhOejPM45Z5mLjSUEaMxLSXT3MNIk8F+Lh9S/c3wDFwuugwXiRP7IJqwza2midOqe+E1S5VgOgKxwSiFArJPVxHCfzmLHntUow7it7Ns8lej8q7MO/ZLxIfN/8A3xK3AcxibR00lbYcY8pOxM2ptZ8IKx/OqPgKi55P5xAw7T78P4/AuBR3v5oztHHz3kZuyEnG317zrJ/DMWTPn/bmxOTD09DgysOMNSsdWoRIqfRT6hMUqflqlKLKH5R9uYaWk4KVoUFAj84hB6kk0fFmFJ35S4lO+lFyWiWpdM1Z01ot6U55ClTcsgTSEnmzMJGHGz5QoEdXLB642HR1KqcJSRxlpDlM8nzDEp5K23Zw6D3DjTUw2pp1CVoWClSSMgiPqcU1ZlmhOUJKUXtRE/UzseWnV31qYrln16ZthybVxuSjcul+WCs8yhBIKM+IKx4gIsFTkOBiO6NpZPyqZjQ4Cp8eOvbp3M7XRvYdptppXJW67hqD9zVaRIVLeiGg1LMrBylQaSTxKBxjiUoDqGecelFk9PS+0+TSHlJzLOcDvePiQ9hJxKQgBKUgJAwAOgCL1q9RrqT1trNP7qdWZLSTR+r1z0Rw1OfbNPpjYPdLmHBjIH/hGV/+WLdmtUqXAZlOhOUyzzM8PCt4qd2VGKcU4oqV0mMDk9d3Ow8KCw4KC6Eju7G/prQPOkp+1TE8N+Mi2555li8PoXcsfSk/giNlLccSz5zNTbsvB1vnzYr4Qj4Mz82mZToR6ep+L+TKhIwJnZEOahACAEAIBCKdJGW8nV2Mbvb99kkveejKsi3T9xz9yyeVwPf9Cd0ZCaPKE97HhX6n+fnfgpgCyrsWXguK/Kep/wC3AoyW84P5q97Gr3oPcz0placeJR7XfrzO/jDvwzGuKtfes7dyaVsvhwR8kUuXSxgjMec3Z3QlFSTTJrbRN5sjbMjK6Yat1FSJFrgYpNVcBIaT1MvEdQ5BKsYA5HkMxkeUZt/0Y5oLlB5PXiyeYZcvbKP1J7SdRkajLtzdPmmZqXeSFtvNOJWhYPQQQYyyDi14po6eHPDerNNM+tMVZ5Mx5Y89nSQ2mn9dtythaH0B2Zqs63OVlbZMpS2XB210/bK6eBA6So+sMnAj46utwKVXbMv0c0Rrs+x1GKtDplYqy1J1CuXVS8Z+9rqnC9OTyuSB9LYbGeFtA6kjPvnpMYNWVbq592OqciySn0fpVT4HUeZAxHle6L4I85O5U2rtZ8IGxz/zVHwFRdMo2VELmG6fP/j+PwLfUHuRy6AIztWOPXfWZGbshWTt9ewf7Vk/hmLJn/m9jY3Jjsz6HBlYkYedWoQKiAN27XtyFV0DuNcrMtOztrVRYNQlEAqW0r/vmv8AxDPMemHrCLnRVnejXUa8040HWk2A5wX3kdz6+JaBp/qJZuplAauSy6/LVKSdGeJs4Ug+JSD3ST5CAYzPDqoY6TicwZrk9VlOO8Cpw3GSPU9cfR0FrXOMkgdYEeXSeh4fVDWKwtI6G5Xb2rrEo2AQzLpVxvzCsZCW2xzUT5OjrxHlU1UaaN2XbJ9Hq/PsdYNNC/t6CrHcLr1cWu95LrVRJl6VJlTdMkQe5ZbPSo+NasDJ9YdUYPXVjqmdT6H6IU+j9OsJrx+lmrEx8MTNNU72xv6a2/50lP2qYnDnotOe7KLFXs+hdwwR2pPMd6I2WtxxLNeMzUu7Q/8ADpfGD/ZivhCLfmnm8zKtCPT1PxfyZUNGBs7HhzUIAQAgBAIRTpIy3k6uxjZ4b+9kkveejKsi3T9xz9yyeWwPf9Cd0ZCaPKE97HhX6n+fnfgpgCyrsWncbY5mWXydl7rqbTqD0oXho4PlwRAEu5hBcZcQOlSCkfnij3EsN6k0/aUp6lWdcli3nU7duqluyFQYmFqU04O+QVEpWk+mSR0EcjGv63DlHEd0dn6NV1NmuXQxad3skeaj422mZEkIgDKYnqtbiMoqSsz3unWuurGlhCLLvaoyUsk5EmtfbpfPsS8pH5gI++kr6il6TE830MyzNbvHwk32G35Tsh2vjLYQ+xbUwrrcXIOBR/RcAi4eH8dmHPklyuTvtXvZ568d7u4K7JZyTbulijNOjBFMlg0oesslSx+Ygx4SzioldF6ouS/IqSzcNd+1s0PPT9Qqk47UKnPPzcy+eN159wrcWrrUpR5knyxZnKUm7meUWX0tCrQicExOytY+lpMzHkUETiHsOztq5a1ZtwSF0W7OqlKlTXhMSzwSCULHQcHIj2w5PDaa6C3V1FgZtTumqFeEt5tr+WpuUUMDUQj/ANPlviRclm9QlvMP+zXR+/k/izzV+7kNZNT7fXa98Xeqo0xTiXix6FZbBWnvTlCQeWTHy1VZj1exl4yzQfJ8mxe+aXDtNdNzWsfGZUIqBADn1GKNXKpndWjfV42HUU1W0LkqFImQQSuUfU3xgdSgOSh08lAiPSNbKl2plnzXIaPONlRhqRvei9kA3BUxlLU5OUSpqQMB2akSFn/DUkf5R90dIahmA1HJNlM5bPF7T5bj367ha+wuXl6xSqQlXppGQAWPWU4V4/NEpZ1UNHvSclWTU7TlHX4t/LcaMr9z3HdtRcq9016fq064SVPzkwp1ePECrOB5OgdAxHwTqpTe1mfUOTUmUYHcaaCR1nD5Y8tZNn3rYOHyxS9ya2H6yc1MU6el6hKOlD0s4l1tQ6UrSoEH/KKp2dz46yCqouD3M3SN6e5ADhGoHLo+oJf4kXOOcVEd7MJfJtkD29z+LOnujdXrtedvz1r3FexmqZUmizMsegmEhxB6RkIBH5jEanN6iqVmfVQ6B5PQVMKinw7TjxNURbl7TOErKwipEQAgBAIRTgQxHZ3LA+xs2jcdHte6LsqdLel6bXHZZMg66OHt/aw5xqSD0pBWkBXQeeOiMsyOLUW2c28q+YU9ZWYeBhu8o3v7yag6OUX81CUM7z5aZnN1Wp7spKvPoFwPIUppPEAoJSCnPjBgCwPRWvy+0nc7eGgd5vIp9p6kVJVy2fPKSRLCbdwHZZSzySo8ITjxoT9uIAnD0xKwNLbktuNta8272p1KJC4ZNKjTqiEA8KiO8cHWg458sjAI8vxVtFGqRmGh+mFVo3Uppt4b3x/YqxveyLl07uWctO7Kc5JVGSWUrQocljqWk+mSeojkYwKcHBtNHV+SZ3S53SqowHvOhjyht3F03mUx6LYDEecrgRRK4EegEAIARFxuBEgIJ2KCAECogBACAEAIo1feBCyG8RUCKWAhuAioECggBAqIAQAgBACKPaijajtZKHaTtKntV55m+b3lnGbQYUFsMkFLlTUDkDyNdRUDz5gdZi9ZPRd8PWmjUGn+n6y6Lo6N3m9l+osqptMkaRJMU2nSrUvKyyEtstNpCUtpAwEgDoEZnqqNrHOWLiTxpuc3ds8Nr7rdaGgGm1U1Bu6dCG5ZlSJKVQodunZoj6Gy0k8yonpOCEgFR5CKM8SNe1naii7NNZjUvWykIXdN/Vmcuh9tQKVMtzRSpCCMjBIHHjq48dUASN1+0BsTcVYb9jXxKEAHt1Pn2QPRFPmB3rrRPQeQBHQoZB8YqlYEfNA9fb60Nvpna3upqBNQJSzaF2Ok+h6xLg8DbTjhJw5jhwVYOe5XzwpVQTMIzFGDTO5DbdbWvdsuNzCEStwyaCadPhPNvlzaV40Hn5QTkR8VbQxqYmX6H6X1OjdUmn9234y+pVbfNkXPpzc05aN3UtyRqMkvhWhRBC09S0EclJOORHTGD4mHKkbTR1bkmdUud0qqKd3udImPk1nPai7oxFYgRNK4EAIAQAgBACAEAIAQAgBACAEAIAQAgBACAEAIAQAgBACAEU2bijdt5KDaZtGntVpuWv2/JZ2UtCXcDjLRyldSIPejoIa6Mn02MDrMXzKspdR40uaai5QtOoZcnQULvi9Nugssp8jKUqQYptPl2mJaXQGmWmkBCG2wMJSkDoAAAjLYxUFqo5vxJyxZuc3ds8ZrXrXYmgdiTl/6gVL0PJS/cMMtjiem3yCUstJ9Ms4PkABJIAJj1PO5GXRTRW+9z99yW5/c/S1ychJqDtlWS4My8iyeaZl9B6VnuVAKGSQFKAASkUZQmoE8umIg5R6WsDWuv2gNh7ibDmLIvaTAWAXKdUmkD0TTpjlh1pR6DyGR0KAweqKAj1oLr/f2hl+tbWt1LyvR4IatK8HVkS1ZlsgNtuOL5dsAISDnORwq54KqWBNEEEZHXCwNKbj9t9s6628UuJRI3FKJUafUUoysKP8AVr+2bPWOrpj4a6hjVLaZhohpjU6N1Kad8N74/VFWd62RcmntyTlqXXTnJKoSSylaFDkoelWk+mSRggjl7UYFiYbpW00dX5HnlLndKsendzoY84PW2ougj0QOMUAgBACAEAIAQAgBACAEAIAQAgBACAEAIAQAgBACAEAILaUbttJQbSdpc5qxPsX1fEqti0WFhUsysYXUlg5xg9DXI5UOnmAekxfKLKO+LTluNQaf6frLU6Ojd5vZwLK5GmSVJkmKdTZZqWlZdAbaZaTwobSBgBKRySPIOUZbFaisjnGeLLGm5zd2zxWtWtVi6CWLOX5ftSTLysukplpZKh2+efx3LDKfTLPtAZJwATFTzbI1aL6L35uevuS3N7n6U5LUqWJcsqxplPExJM5yiZmEqA4lKwFAEZVkKOAEpErECa3TFSRmAOESTuBCwNb6+aCWFuJsKYsW+pIlOS9IT7PKYp8xggOtK8fPBSeShyPVilgR70G19vzQi/JbavuomwqfWAi0bvcX/NqxLjuW2XHFAfRcJABPPJCVc8E0aBMxQCgCOfWIiDTG47bfa+vNsGTdl0SdwSqFGn1EZHAr7RwDvkHl1EggEY6/hraGNVEzDRDTGq0bqk7t4fTH9iq69bKuXTq5Z20bupjkjU5FfC42rvVJ6lpPpknGQfFGETwnTNpo6tyXOabOKdY+BPWjI6SPK+ttRdjjHnqgQiBEwIAQAgBACAEAIAQAgBACAEAIAQAgBACAEAIAQsUb1drJPbTNpFQ1Xn2L6vuWck7QlnAtlskpcqZGTgDH0rOMkHn0DrMXvKcqdQ9aXNNRadcoUcug6Cgd8R7L9RZdTpOTpco1ISEq2xLsIDbbbaQlKUjkAAIy6MVDYjnDFxJ403Obu2eM1u1usXQGxJu/b9qHaZVj6HLyyCO3zj571lpJ75Z9oAEkgAmKng3YjRovolfW5y+JLc7uepvoemy/A9Y9lrKixT5ckKS++kgcazhJHEO6PNQACUiSKXJpobS2kIQkBKQAABgADoAEVJHOAEAcIAQAgDWuvugNhbirDmLGvmUIAPbpCoMgeiKfMDvXWifWGUnkocj5KoEe9AtfL60LvmX2u7p3w1NYRL2ddq8+h6wwDwIbdcJOHOgAqwc9yrngqjYgTOWnPXFStjSu5DbfbWvVsONTLbcpcUmgmn1EJ5oOOba/tm1c+XSCSQYtldQqq3mYaH6X1WjlUtv3b5y+pVpfVi3RptdE7aN3UtySqEkrhUlXQsdS0noUk9IIPR4owmtg6N2sdX5FnlNnVMqinetE6GPNbUXUQKnGAEAIAQAgBACAEAIAQAgBACAEAIAQAgBACAEN5RvV2slFtJ2jVDVeal79vuVclrSZWFy7KkkLqSgcgYOCGgQMq6+YB6TF9oaF1LUpLxTUGn3KBHLk6Ojd8V77dH82LLJCmyVLkmKdT5duXlpZAaZabSEpQhIwlIA6ABgDyCMtilFWRzhPFniSc5u7Z4jWzWqw9AbEnNQNQKoJaSlgUsMIwX5x8juWWk+mUfaABJIAJgQuRq0U0Wvzcxfsrua3OyLkrISyw7ZlkuJ/m8izjKJh9B75ZylWFDJIClYASkSSIE1Rz5xLcSMxQCAEAcIrawERAiQEQYNa6+6CWPuHsOYsi85RKVc3qfUENgzFPmMYS60o9HVkdChkHxiRREedAder90HvhjaxulfWZxKu02jeLx4ZatS/9W2tasDtgGEgk5yOFXMAqE0iZ+MdcAaY3H7cbZ19t0svpbkbgk0qNPqKUZWFHobX42z4uogGLbW0MatbTK9ENMKnRuputuHfxo/sVY31Y9y6b3LN2ldtOck6lJLKXG1DuVDPcrQfTIUOYUOXT4owisg6R2aOsMkzumzmmVRTvxZHRA5jyi9dXLscYqBACAEAIAQAgBACAEAIAQAgBACAEAIAQAha5Ru28k/tI2kT2rM4xft9ya5a0GFZYaUkhypKBHcjow0COZHfYwOsxe8qyp4/jS5pqHlC07hlydBQu+J026Cy6m02So8i1IU6Wbl5ZhAQ0y0kJQ2kDASlI6B5Iy5RUVZHN+JiTxpuc3ds8VrbrhYmgdiTt+37UO0SsulQl5dBHb51/GUstJJ7pZx6wGScAExU8m7EadFtFL+3MX5Kbnd0FNXL05k8dl2PMIyxIM8QKZl5ChzUrCVAEZVyUcAJSJIpcmmT5ImlYkkc4iBEWwIkBAHCAEAIAQAgDW2vmglibiLDmLHvmTOAS9T59rlMU+ZxhLzavH1FPQoZB6sCqdiPegevWoWhd8y+1zdZOhU+oJRaV3OLxL1aX5pbadcUB9E7nAJ55wlXPBIXJm8umBQ0vuQ232rrzbC2Hmm5S4ZVBVT6glPNCvtFj0yDyz1ggERbK6iVUtqMv0W0uqtHalWd8PpiVYXtY1yadXJOWldtOXJVOSXwuNqHcqT1LSfTJPUYwieG6VtNHVGR55TZ1TLHwGdFw+WPNPX2ovY4fLFSpiAEAIAQAgBACAEAIAQAgBACAEAIpuAij2rYUbttJRbSdpk3qrONX1fMu4xaMutK5dhSSldTUDnHVhrqJB7rJA8cX7J6Lvnxpo1Bp/p+stTo6N3m9l+ostp1OkaRIMU2myrUtKyzYbaabSEoQkDAAA6BGXJKKsjnDFxZ403Obu2eG1w1xsPQGw52/r/qaZaUlwUS8ukgvzr5HcstJ61H2gMk4AgQI1aL6JX/ALlb9ldzm5+nmWp7CkzFkWW4T2mQYJCkPzCOhSzhJHEO6PNQACUiSViBNVACUhKQAByAESasSOUUbAiNwIqgIqBAHCAEAIAQAgBAGt9fNBLD3E2HMWNfMmcZ7dIT7KR6Ip8wO9daUejoAKehQyD4wBHnQbcDfWhd/Sm1ndPNgTK8MWddywRL1eXT3KG3XCThzkACrBB7lXPBUBM6AauaY3G7drd10tftbqESlxSKFKp1RSkZSSObavGhXPI6eeQYtlbQqrT2GX6IaUVOjtUpX+7fOX1Ksb4sW59OLmnLRu6mrkqjJL4VoUDhY6loV0KSekEf5Rg+JhypZOLR1dkmdU2c0yqKd3jI6EHPREE9bai7HGK2ZWzELFLCAsIWK2YhYpYRQrZiK2KWEBYQsLCFitmIFLCFitmIWKWEBYRG6ewo3ZXZKPaTtJndVZxi/L5YclrQlnEuS7asocqSweQA6Q0Os+m6B1mL7lWV98eNI1Dp1yhrLoOgoHfEey/UWT06nSFJkWKdTJVuWlZZCWmWWkhKG0AYCUgdAEZdGKgrI5xxcSeLNzxHds8ZrjrbYmgNiTd+37Ue0SrOW5aWb5vTj+CUstJ61HHSeQHMkAExU8SNOimieoO5e/ZLc/ugpxlpFgh6zLLc+kSDHS3MPoI7pZzxYOCVAFQwEpEkRuTVVEkSSMgYg3cGYg2BEgIAQAgDhACAEAIAQAgBAGt9etBLC3DWJM2RfEiOYU5IVBtA9EU+YxhLzSj1jllPQocjAEeNBtfb50Fvxra5uqnAmb4ktWheD7hEvWJfOG23Fr9OMhIUTnICVc8EgTPgDTG4/bhbWvNtLac7XTrik0KNPqYQCW1faLHLiQeWecWytoI1S2mYaIaY1WjdQrO+H0x/Yqxvmw7m04uactK7qc5JVGSWUrQodytPUtB9Mk9RHKMJnhulbTR1PkWeU2d0yqKd7zoOHyxBYiZftZ2HD5YpLEPJylccXkiHdGVUpDi8keimT15Di8kHMhrMcXkjyWJtJ68hxeSJ6+zceblIcXkiHdHcpryHF5I9IzKqUhxeSDmj015Di8kQ7oR1pDi8keimS15HLlFHiHm5MxHjrtsj3RrayUm0naRPaqTLF/X5LLlbTZUFyzKk93UVA9GOpoEEEjvsEA9cZBQ5O6m05bEam0/5QYZdeiy53n0+wspkadI0yVakafKtS0swhLTTLSQlDaEjASlI5ADyRmUUoqyObZ4k8STnN3bPD64a4WJoBYk3fd91FLLDQKJSUQQZifmMdywyn0yz7QGScAExRkCNui2iF9bl75ldze6KnLZkWMLsuyH0ky1Pl+LKJh9tYHE4rCVDiGVZCjgBKRVIkTTipEQAiNwIqgIqBACAEAcIAQAgBACAEAIAQBrjXrQaxNw9hzFjXxJnhyXpCeZ5TEhMYIDrSvHzwUnkociOjAEeNBddr80EvuX2ubpZ0Lm1BKLSu5xeJeqy/NLbLrigPog4cBR557lXPhUoCZpAOD7UAjUOv22qydfaM1K1xa6fVZRQVLVOXQC62OtBB5KSeXI9YEW6soY1W8yvRrTCs0bxr4DvH1TQh7GfQQfsr1L3Mb+PFteRL1/gZ2uWGt/JX6v4MfOzqD99epe5jfx48vASvz/gei5Yq1f9C/V/Bj52XQfvs1L3Mb+PHqsij6/wKPljrfyF+r+DPzsqgnn81mpe5jfx4PIo+v8AA83yw1v5K/V/A+dlUH77FR9zG/jx5+Al6/wKfbFW/kL9X8D52XQR/wBrNS9zG/jx6LIo+v8AAquWKt/IX6v4MfOzKD99mpe5jfx4r4Cj6/wJ/bFW28iv1fwZ+dl0Hp+azUvcxv48PAUfX+BH7Ya2/kF+r+DHzsug5+yzUvcxv48HkUfX+BL7Yq23kF+r+DPzsqg/fYqXuY38ePLwEr8/4EfthrfyV+r+B87MoP32al7mN/Hj0WRR9f4EvtjrbeRX6v4Hzsqgnn81mpe5jfx4PIo+v8CD5Ya38lfq/g5fOzKB99mpe5bXx48nkK9f4FPtirfyF+r+Ds7W7HDZFGuORqtfvmoVqTlXA45IqlEMpmAOYQpaVEhOQMgdOMR9MMigmnc+ev5V6+sp3h4WGoNrfe/wsS+p9Pk6XJs06nyrUvLS7YbaabSEpQkDAAAi/RWrGyRqbExJYs3Obu2eL1u1tsXQKxJu/b9qHaZVn6HLy7ZHb5x49600knulH2gMk4AJiJAjTotonfO5a/JXc3uep/a5Jkpfsqy3OLtFNZJC0TD6SAFOHCVYUO6IyoYCUiSI3JopSlCUoQkJSkYCQMACJpWPRH6REiIi2BEgIAQAgBACAOEAIAQAgBACAOcAIAQBrHXvQOxdw1iTFj3vJnhJ7dJTzIAmZGYHeutKPQeQyOhQ5GAI66Hbg7127Xcztk3X1JCCykN2jeT2UytUlk9yht1wk8KsBOCrBTzC+pRAmjLzDM00l5haXELAUlaDlKgesHrgD9sCAHCnxQAwPFADAilwMCKgYEUuBgRUDAgBgQAwIAYEAMCAMwBjA8UAa11x3B6a7fbPfu2/qy21hJ9BU9lQXNzznUhpscznl3XejOSQIAjponoff25G/pTc7ukpqpaWllJcs2ylgeh5BjGUPvoPSs5CgDgkgKUAAlIpYE1emKgzACAEAIAQAgBACAEAcIAQAgBACAEAc4AQAgBAHi9VNJtOtY7dVaepFqSFbp6yVoEw2O2MLyBxtLHdNqwe+SQYArj1503re2CvJtTRvW3VKi0ZS0oRIpuRfaWknHJCQkAY8fT4yYowaq+a/r7/AHitTf8A3A5+6IgDV/X0/wD3Fam/+4HP3RJA5DVzX3p/lF6m+76/3Qe4Gfmua+/3jNTfd5XxYigPmua+f3jNTfd5fxY9APmua+/3i9TPd5XxY8WB81zX3+8XqZ7vK+LFUB81vXz+8Zqb7vL+LHoB81zX3+8Zqb7vK+LEWB81zX3+8XqZ7vK+LFAPmua+/wB4vUz3eV8WAHzXNff7xepnu8r4sAPmua+/3i9TPd5XxYA/SW1U15mphmWd3GanhLziWlFNwLSQD0kYHTygCcO23Z7pAoSOr15fJ2+bpmPoiJ26ah6P7QvpCkJKQniGBhSgojqIiYJdnngwBygBACAEAIAQAgBACAEAf//Z;" vertex="1" parent="1">
          <mxGeometry x="250" y="80" width="60" height="60" as="geometry" />
        </mxCell>
        <mxCell id="HJUOC0QFOHcw_SWBB-Hj-14" value="" style="endArrow=classic;html=1;rounded=0;exitX=0.5;exitY=0;exitDx=0;exitDy=0;entryX=0.5;entryY=1;entryDx=0;entryDy=0;" edge="1" parent="1" source="HJUOC0QFOHcw_SWBB-Hj-11" target="HJUOC0QFOHcw_SWBB-Hj-13">
          <mxGeometry width="50" height="50" relative="1" as="geometry">
            <mxPoint x="330" y="170" as="sourcePoint" />
            <mxPoint x="380" y="120" as="targetPoint" />
          </mxGeometry>
        </mxCell>
        <mxCell id="HJUOC0QFOHcw_SWBB-Hj-17" value="30cm" style="edgeLabel;html=1;align=center;verticalAlign=middle;resizable=0;points=[];" vertex="1" connectable="0" parent="HJUOC0QFOHcw_SWBB-Hj-14">
          <mxGeometry x="-0.0935" relative="1" as="geometry">
            <mxPoint as="offset" />
          </mxGeometry>
        </mxCell>
        <mxCell id="HJUOC0QFOHcw_SWBB-Hj-26" value="" style="shape=image;verticalLabelPosition=bottom;labelBackgroundColor=default;verticalAlign=top;imageAspect=0;image=data:image/jpeg,/9j/4AAQSkZJRgABAQAAAQABAAD/2wBDAAMCAgICAgMCAgIDAwMDBAYEBAQEBAgGBgUGCQgKCgkICQkKDA8MCgsOCwkJDRENDg8QEBEQCgwSExIQEw8QEBD/2wBDAQMDAwQDBAgEBAgQCwkLEBAQEBAQEBAQEBAQEBAQEBAQEBAQEBAQEBAQEBAQEBAQEBAQEBAQEBAQEBAQEBAQEBD/wAARCAEsASwDAREAAhEBAxEB/8QAHQABAAICAwEBAAAAAAAAAAAAAAgJAQcCBQYEA//EAGEQAAECBQICAggKFQoDBwUAAAECAwAEBQYRBwgSITFBCRMiMjhRYXUUQlVxc5GVsbLSFRYXGSMzNDU3UlRXcnR2gZKUs9HTGCQ2Q0VYk6G0wyhlg0dTYoKFlsFESKKjpP/EABwBAQABBQEBAAAAAAAAAAAAAAACAQUGBwgDBP/EAEERAAIBAgIFBQ0HBAMBAQAAAAABAgQRAwUGEiExcQcyQVGRExQVIjM0NVJhgaGxwRcjNlOS0eEWJCVCJkNy8PH/2gAMAwEAAhEDEQA/ALUIAQAgBACAEAc4AQAgDgtfB1QBD/VTcxqjrFqPOaA7PkSjs7STw3NekykLkqSCccLWcpWsEK54VkghI5FQA/CU7G7ad0sJqus2tupN5V50ZfmfksGJcK8bbakrKf0vzCAP2HYt9uJ/ty/vd0fw4Az86224+rd/e7o/hxS4Hzrvbh6tX97vD+FESth86724erV/e7w/hQFjHzrrbh6tX97uj+HAkZHYuduHq1f3u8P4cCLM/OuduHq1f3u8P4cChg9i524erV/e7w/hwKoDsXW3DP16v73dH8OBVmfnXO3D1av73eH8OBCw+dc7cPVq/vd4fw4FR86524erV/e7w/hwA+dc7cPVq/vd4fw4AfOutug5tV/UFtY71Sa6nKT4xlrpgDorh0S3Q7UWzd237VSr6kWrTk8c/Zt0O+iZky45qVLujGVpGSAkJPkX0QBI/QDX2xdxNjM3rZUwpCkKDFQpz5xMU+YxlTTqeXRzwoclDmOsCSVgbPHOKgzACAEAIAQAgBACAEAcIAQAgBACAEAc4AQAgCFWuOt977lb7mdru2KoKZkmz2q8r2ZJMtIMk4Uwy4nHEojKSUnKiSkYAUoASS0S0QsXQOxZWxbEkO1MN4cm5twAzE9MYAU88oDulHHrAYAwABAHvypI6VAeuYbitmzgZmWTz9ENfpiIuS6yawpvoZgzksf/AKhn9MRDWXWSWFP1X2D0bLfdDP6YiV11lO4z6n2D0bK/dLP+IIXQ7jP1X2GfRst90M/piF0U7jieq+wx6Nlfuln/ABBC6K9xxPVfYPRsr90s/wCIIXQ7jieq+wz6Nlvuhn9MQuinccT1X2D0bLfdDP6YhdDuM+p9g9Gy33Qz+mIXQ7jP1X2D0ZLfdLP6YhdDuWJ6r7B6Mlvuln9MQuh3LE9V9g9GS33Sz+mIXQ7lieq+wyJuXJwH2yT1BWYpdFHhzW9M5AhfPGRE0QIea/aAX9pBfS90u1pjhrTQKrqtNpOJeuy+crWhtOB23mVEYJyApPd5Cqg31t/3AWLuKsVi87Mme1vN8LNUpjyx6Jps1jumXUjo6+FWMKHMdYAGzMiAMxRgRQCJAQAgBACAEAcIAQAgBACAEAc4AQBC3W7W++dyV9Tm2LbBVBLS0sQzel6tklinsE8K5eXWnvlnBSVJIJIKUkAKUAJG6J6IWHoHYcnYNg07tErL/RJmZc7p+cfPfPOq9Mo+0BgDAAEAe5np+Tpcm9UKhMNy8tLoLjzziglDaBzUpR6gBk58kRlOMNsmTw8OWLJQgrtla27DdzP6m1BdladzsxJ2tJunts206pDtRdB74KBylscsDr5EjojE84zh461afoOjdAOT6NOu+sxXjtdiI1i4a+P7bnv1hf74x/vrG6WbO8A5d6i7DPyw171anv1hf74l35i9YeRZev8ARdg+WGverc9+sL/fE+/MXrIvKMuj/wBa7B8sNeP9tT36wv8AfDvzF6yqyrLvy12GPlgr3q1PfrC/3w78xesnHKsu/LXYPlgr3q1PfrC/3w78xesr4Ky/8tdg+WCverU9+sL/AHw78xeseCsv/LXYPlgr3q1PfrC/3w78xespLKsu/LXYZ+WKv+rc9+sL/fDvzF6zy8FZd+Wuwx8sFe9Wp79YX++HfmL1nqsqy78tdg+WCverU9+sL/fDvzF6yvgnLvy12D5YK96tT36wv98O/MXrHgnLvy12D5YK96tT36wv98O/MXrKPKcu/LXYdra+o972dX5K5aBck9Lz0i4HGll5SgfGlSScKSeggggiJRrMVSTuW6t0dy6spnT4sF43sLQttm5W39dLbS2stSVzyCB8k6eF555I7c2fTIOB4iknB8uc0VbGqicw6YaH1OjlS9n3bfis3eFZ5ER9rZhxDvcDoDfekd+L3TbXWe1VpvLt22s0k+h69LDulrS2OQewCTjBJ7pPdZCyBvjQDX6xtxNis3pZcyptxs9pqVMfUPRVOmOeWnUjo6CUq6FDn05AkgbPigEAIAQAgBACAEAcIAQAgBACAEAFr4OqAIYa26235uVvua2v7YZ4MSbJLN7Xo0T2mnS5VwuMS6xgKcICgSOajyScBagBI/RXRKx9BbCkrAsSQ7TKy/0SYmXBl+dfPfvOq9Mo+0BgDAAEAe1n6hJUqSfqNRm2ZaXlm1OuuurCEIQkZKiTyAAikpKKuz0wsKeNJQgrtla+7TdtO6rzT9iWJMuy9oy7hTMTKTwrqigefRjDXiBGVZyYwvN63vl6sWdG6AaAeDYrMKtXm+jqIvcPli0LcbfjHV2IcPlijsyadhw+WPKW8rccPlj1Ijh8sAOHyxQiOHywA4fLADh8sAOHywA4fLADh8sAOHywA4fLAqhw+WG8m2kdzZ94XFYNxSd1WrUnJKoyS+NtxB5EdaVD0yTjBSeREShiODTTLZmmV0udUrpqlXuWm7adydva7W6lt1xEhc0g2PkhTyvIHjdaPpkH1yQQQfLm1BXKqRyfphofU6OVL2Xw29jN3hWYuqMOIc7gdAb80hveY3RbWJZCK8Eld02sgH0PXJfILi0NggduwMkDmo90nushckDfG37cJY24qxWrzs19TbrSgxU6a+cTFPmcZLTifbwroUBy68UBs9JzAGYAQAgBACAEAcIAQAgBACAEAQu1s1vvjcvf01th2wVEy9PYyzel8M90xIMHv5dhYxxKOMEpOVHKRgBSgBJLRTRCwtA7GlLEsClolpZlKVTMypI7fOv4wp95QHdLPtAYAwABAHtqjUpKkybtQqEy3Ly7CFOOuuq4UNoAyVKUeQA8ZiMpKKbZPDw5YslCCu2Vp7td3U/qpNzFh2FNuS1psLKZiYSSF1FYOP8ACHLAOcnmeoRhlbm7qbxidHaA8n8cutWVivN/Ai/Fp5xuCK1VZCItokIhrX2FBFYqxS4iRIQAgBACAEAIAQAgBACAEAcoo1fYUSsdvZt43FYNxSl12pUXJGpySwtl5B6vTJI60qHIg8iIlhzdLJOLLVnOTU+c07wMdeKWmbZdylA13tvgcUzIXLT0J+SNPLg5kjm60Oktnp8aScHqJz2irVVROU9MdD6nRyp3N4bexm8iAoYUAfXj7zDiHO4Hb/fmkF7vbptrsslFaZy7ddqMI4Jevy2SXFpQnA7cASogcyRxJ7vkoDfG33cFYm4qyEXhZcypt5lQYqdNfUPRFPmOttxI8oPCroUBkdeKXBs+KgQAgBACAEAcIAQAgBACAIW62a2X5uVvuZ2w7YZ9yUlJY8F63q3ksU9gnhVLsKAypZOUkpIJIISQApYAknonohYWgdjSth2BTRLyjPdzEwvun5x89886r0yj7QGAMAAQB7eoVCSpck/UKhMol5aWaU8664eFCEJGSVHoAwIpKSirsnh4csWahBXbK1N3G7qa1VqMxYVhzbjNqSq+CYeQShVRWDjJI59q6wnPPkSOgRhWbZt3w9SG46N0A0AjlyVZWLx38CLsWdNPabj3bEIle5Rq4jytrbQIlF3K7xEiLECQgBACAEAIAQAgBACAEAIA5QAiktu8o9qO4tC77isK4pO6bVqbsjUZJfG26gnBHWlQ6FJPQQcgiJ4c3FppltzLLabOqV01QtaJaXtr3LW1rtb6GFPtSdzSCEioSHFg8/61sdJQcjygnB8udUNaqlbTlHTHQ+p0dqm0vu29jN5Yx1xcHuMNIea/6A3xpHfju6Pa40lmttgv3XaiOUtX5ZJBcUhvo7djJIGCT3Se776CBvXb7r9Yu4axGbxsx9TTrSu0VKmPkCZp0x1tuJ8XI8KuhQ5+MCaBs7pioMwAgBACAOEAIAQAgCF2tutN+7mL5nNse2CfLNOlz2m9b1Z7piQYUeFcuwr0yyONJI5k8hgBSgBJLRLRSxtBLEkrCsSn9qlpYccxNOYMxOPq7951fSpRI6OgAADAAEA9m89vP1CSpcm/UKjNNS0tLNqdeddVwoQgDJJPUAIpKSgryJ4eHLGkoYau2Vq7ut2k7qvNzFg2FOuy1qyyyiYmUnC6ioHrxjDQxyBHdA5PVGI5vm3dlqU50doBoBHLUqvMF476+gi5GO2vvNvpKOxCClZE0riJJ3JCKpERFQIAQAgBACAEAIAQAgBACAEAIAQAgDlFArI7izLwuKwrilLqtWpOyVSknAtp1B6R1pUPTJPQQeREShKUZXTLVnGTU+cU88DHh4si0nbZuZt7Xight5bchc0k2n0fTivPPrda+2QfXyDkHy5zQ1vfK2nKel+htVo5UPY3h9DN6xcrGGkOtwm3q/NK77md0e1mTT8sPCV3PaiU/wA1rsvkFxaWx/W4GSBgqPdJ7rIXUG9tvu4GxtxFiM3jZr623mVCXqdMmOUzTpkDJadT7eFDkoDl1gAbOBB6IAzACAEAcIAQAgCF2s+tl+bmr7mtse2GomWp0ueC9L1ZUosSLGe6l2Fp5KUrBSSlWVElIwApQAknopolYugliyliWHTgzLsgLmZpaQZidfwAp51QHdKJHrAYAwABAXttPaT8/I0mRfqNRm2peWlm1OuuurCEISkZJJPIACKSko7WTwsKVVJQgrtlau7XdtOaqzr9iWHNOS9qyyyl+YSrC6iscs5H9UMJIB6cZPUIwrOM474fe8To7QDQBZclV1ivN9fR/JF9MWjoNxbtiMRGSAikSSVhEyj2CPNuzKCPQCAEAIAQAgBACAEAIAQAgBACAEAIA5QBmCnqi53Fn3lclgXJJXXalSckqjIr423EHkeWClQ60kEgg8iDgx64dVLDkrFqzPLKXPKV01Ur6xaVtp3L25rvbqGnXWKfc0igGoU8uDJOObrQ6VNk/nSeR6ic1oa1VS2nKWmGh1To5UvZfD6Gbw4uKLmYcQ+3AaAX7pPfru6bayzwV9GXLptJoES9flv6xaUA4L2O6IHNRAUnux3QG89vuv8AY+4ixmbws+ZLMyzws1WlPLHommTWO6ZdTyPSFcKsAKAzy5gAbRgBACAOEAIAhZrZrdfO5a+pvbFtiqJl5CWPar1vVriMvJME8K5aXWnvlnmnIOVEEJISFLAEltFdE7B0EsaTsOwKUmWlWBxzEwvun5x89+86vpUon8wGAAAAIB7N57WoVGRpUk/UqjNtS0tLNqdddcVwpQgdKlHqA6zEXKMdsmTw8OWNJQgrtla27bdtO6qzrtj2PMOy9py7hS8+lWF1JYOCSR0NAg4SenkSOgRiecV3fC1cBnR+gGgEctSq8wV5v4EW4xy3WbeSUdiESi7kxEiu4R5y3lbiPQiIAQAgBACAEAIAQAgBACAEAIAQAgBACAEAIoDlFNkSmw7e0LvuSwbkkrrtSquyFSkV8bTqMHPjSoHkpJ6CDyIj0w6mUJKxas5yanzmndPjrxWWl7atzFA1yt3tbgbk7kp7QNRkuPOT/wB639sg5HiIJ9YnOKGuVUjlnTHQ6p0bqXs+7b8V/Q3lyWMKTy8Ri57jCCHu4Xb9fGk18K3T7V5RDVwsfRLsthA/m9wSoIK1Jb6O3YBJxzJ7pPd98BvTb5uCsjcTYbN42hMKamGSJeq01/CZinTQ75pxOSRzBKT0EY68gAbPBzAGYA4QBCvWzWu+dzt8ze2Pa9Ug1S5cli970bJ7RJMKUULl5dQPdrICxlPfHISQApQAknohovY2gdhSdgWHTu0ykt9EmJhzm/OPnvnnVemUT+YDAGAAIC9tp7ioVCRpUi/UajNtS0tLtqddddWEIQhIySSeQAAiknqq7J4WFKqkoQV2ytLdpu5mdV6i/YtiTLrNoyrhS/MJWUrqSxyJPPk1yyEkc85PUIwvN63vl6sWdHcn+gCy6Kq6xeO+h9H8kYItF3Y3Fu2IR5yAhErYRMixEGtpS4iZIQAgBACAEAIAQAgBACAEAIAQAgBACAEAIAQByim8CKWSKN2O4tK77hsK4pO6rVqDkhU5FfGw+jpB6wR6ZJ6Ck8iI9oTcGmnuLdmmV02d0rpqlXuWlbaNzVva7W+mXmFNU+6ZFA+SFO4geWMdta+2bPrkg8j1ZzagrlVI5Q0w0PqdHKl7L4b3M3kCFCLmYaQ93Aber90pvtzdJtWlg3cTWXLotdvlLV6W6XClscu3HviBzURkd1kKA3lt83A2HuLsdu8rKmltusKDFTpsxymafM4yWnB7ygMKHR0EADaUAQ53Kapak6z6onZ7oBPGmzC5UP3xczZz8ipNYB9DowQQtYKQrBBPGEgjuiAJBaLaI2NoNY0pYliU5DEsz3czMlAD86+e+eeUO+UfaAwBgACAPaz07J0qTen6hNsS0uwguOvPLDaEJHSVKPIDyxGclBXZPDw5Y0lCCu31Fa27jdvO6rzrtjWJNOS9py6ih59KiHKkoE4J8TY5EJOckZPUBhldm7qW4xOj9ANAFlqVXWK83t4fvxIvxad5t5LV2IRRkxEU7ldwiSK3EUIiAEAIAQAgBACAEAIAQAgBACAEAIAQAgBACAEAIAQAgUOUEk9jFkdxaN5XJYNySN12pU3JGpSDnbGnUHp5YKVDrSRkEHkRyMVhOVJJPBZas5yWmzqndPULxS0rbNuZtzXW3ksPONSVzSTYM9IceeLPS811qbJz1dyeR6s5zQ1yqltOWdMdDqnRupey+G9z+n/283nkRc9xhBDjcboTeOjN3TW7TbMn0NW5NJmLsthsEStelRzdWEAgB0JyogdJTxDCxhYEi9EtYrb120yomp9opKZKsMcS2HF5clX0nhcZXgd8lQIz1jB64Ajr2NeTauKxdQNZaiA7Xr3vOedm5hY+idpaCeBsnqCVOO8vLAEwT3KSo8sDMNxWK1mVobuN2dQ1TqMzYVmTC5a05R1TUwoEocqS0nHEojmGs5wnPPAJHQIwjOM374fe8TpDk/0BWXQWY1avN/Ai5yzFpS2G4bpKyESZUR88r3K2ESSISdhEkmjzeNBf7IRI9FOL3MRQkIqBAo2lvELMprR6xCzGtHrELDXj1iFmNaPWIWY1o9YhuK3QgVEAIFBCzIvEgt7QhZhYkHuaECYgBACBS6ELMprR6xCzGtHrELMa0esQKpp7hAqcoAEZihRuy2nbWhd1w2HcMndVrVJ2Rqci4FsvNk/nSodCknoKTkER6wk4NNMtuZZZTZ1TOmqV4partf3E0rX60HJxUuqUrlL4WqnLYwjiI7lxrxoVjo6QQR4ic3oaxVUTk3TDRmejdY8L/R81/ubpcbbdbU06hK0LBSpKhkEeKLkYiU13fuGu/ahqxqXo/YLswzQ5S8KhOyjDXEUS7bxQUtDB6EpCRz5wBNXsWnguq/Kep++3AoyXE59Svexq96KS2JnpTc+PEo7rgxWJ38Yd+GY1nVR++bO5Mma8HQ4I+SJI+kR5ybS2E3sO/saw7r1IuKXtazqQ9UajMZKW28AJA6VLUSAlI6yTE6OEqp2SLTnWd02TU7qKh6sUTt0j7HZY9GlUVHVWoTFcqKsKVKS61MyqDz5EjC19XPKRy6IyyjyZJXxjn/SLlUraubjQLVh8TftN22aEUuWTLS2ltvcCQEgrkW1qOPGSCT+cxcPBtO9moYHPSvN8d63dmeeu/Zvt7uyVUyvT+TpTxB4Zilkyq0/mR3J/8ySPJEZZTTTVtU+2i08zyhkrYza9tv8A9IZbgNj93aUSb1zWM+9clutZU4kNJTNyyfGpKcBweMpGRzOMRjtbkkqbxou6N1aL8puFm1qWr8TE+HaRjiyyVlY2zCSlFST2Ehtk+ltj6sak1eg35QkVSSlqK5NNNqdW3wOB5ocWUEHoJ5Rdcmo41UnrGruU/O6zJqfCxqOerdk3v5Fe2/73rP63MfHjKfBlOug0j9oWe/nPsX7AbK9t5/7PWv1uY+PFHllP1D7QM9f/AHPsRn+RVtw+941+tzHx48vB1P6o/rzPH/3PsQ/kU7cPveM/rkx8ePRZdT+oU/rzPPzn2IfyKdt/3vWf1yY+PFXl1P6hX+vM8/OfYjyeqm0Pb9QNNrkrdMsFlqckabMTLDnop88DiEEpOCvBwR18o+Gqy6n7g2kXjJtOs8qswwsDGxvFbSexFYwOYxF77HUuG24J+w+ulUmqV2qStGo0g9OTs66GWGGUFa1rPQABFYxk3ZHzZhXwy+DqKl2RNrRbsd7c3KtVrWiqOoWrhWKNIrA4Tz5OujOekck4/CMZPRZRsvjGitI+Vabk8DK/1fsScoO2DQS3mktSGltCVwdC5iWTML/Scyf84u3gumW5GtqrS7Oarn4792z5H4XHtR2/3NLKZnNMaPLrV/XSTXoVwf8AmbIPt8oPK6e24UumWc0jusdkVNc+x7VG3ZaZuPRypTFVYTlxdInFp9EgdfanOQXgelUAcDpMWCtyjpwDaWjfKpKoaps2/V0fwQ2m5SZkZl2TnGFsPsLKHG1pwpCh0giLC4tOzN6YWLDFgpwd0z8ooeu87W05GWqd0UinzbfGzNT8uw4noyhbiQoZ6eg9UIc5ItWdTlSUmJKO9ItMRsn21lCSdOmySBn+fTP8SM6jlNPbccqS5QM+Ta7u+xfscv5E22r73Lf69M/xIr4Kp+oj9oGf/nvsX7GP5E22n73Lf67M/wASKPKqfqH2gZ9+e+xfsdFcmwHb5WmFt0ykVGiOqB4XpKdWSk/gucST7UeUsop2rFyo+U3PaV7Z6xEzXLZDqFpZLP3DbLxuagsd084y1iZlkjpK2gTxAc+ac+UDpix1uVSpfGjtRt3RjlQo82tTVa1JvsI4EYOD1RZrbbG0YTjiJSi7oxFGSRmJXRCSsyc/YyzhF+eySfvOxkeRJ2n7jQHLIl3XA9/0J3Rkxo4oT3seFfqf5+d+CmALLOxZ+C4r8p6n77cSZRkt5v6ke9jVEZPeelP5RcSjuu/Xmd/GHfhmNdVa+9Z27kzfg6HBHyR53sXWKP1lJSZn5lqSkmFvTEw4llltAypbiiAlI8pJEIRctiPnrMVYGG8RvcWx7YdAKJonYko25LsvXHUm0vVSdSkcXEe6DST9onIHl5nr5Z3RUcaXAWzaciaa6VVGf5g0392m0l9Tdac84uGtZGHbGth+b03KsYD8yy3no43AM+3Ee6Jb2VjhY0+ZFv3H6haV96Un1jFViIi1NH5utocTwLSlSSMFJGQYN62wRliRd0Vp74NvcjpjcjF+WlJJYoFwTDgeYaRhuVm++UE+JKuZA6sK6sCMRzmiVK9ZbmdL8mWlPhWn8G1L+8h8UfR2OiYl5fV+uLmZhtlJoDicrUB/Xs+MxXJJKGO10WPn5XcKeJQ4Sgr7f3LG/k3R/VaUP/WT++Ms1o9a7TnnvCp6YPsZzaq9MecS0xPSzi1dCUvJJP5sxTWj0MSo8bDWtKDS4M+0HPVFT52flMTcvKoLsy8hlA6VrUEge3FG7byUMKeK9WCu/YfMazSvVWTH/XTDXj1rtPTvKqe6D7GeF1vrNJc0ku9CajLKWaNN4CXknP0JXljwqnHuEtq3F90eoqlZlg3g+cuhlOHljX0udY7Jg1DCTl0L6Fj2xvbjT7MtZjVO6JQTFfrrQekg6j6klFZKOEHmla0kE9YGB485bk9CoLu0ltOaeUrTGWYVToKaX3cOrpf8EsgOExkHQaquntDs3KyiC5MvttJHSpawkD248ZSS3sksOc3aKufq2808kLadStJ6Ck5isXfcRlCUXaSsDzHPoj0SKIgzv526ShkF622hIJbflyluusMt47cgkBMxgdKk8grlkjBJ7mMWzejv9+kbq5MdLZQx1lVS7p839v2IIRjOsjohHe2J/TWgedJT9qmJ4fPRaM+20WLfq+hdw19KR+CI2WtxxLLnMw882y2XXXEoQnpUo4A/PBtJbSkYym7RV2fGK3Ss/XST/wAdMeOtHrXafR3lU+o+xn0tzbDwBZcSsHrTzEekZJ7meEoShskjmpKVJKVJBBGCCOmJNXKJuO1FcO+nbhK6e1hGqVoSCWKLWZjtM/KsN4RKzKgSFpA71C8HPiV+FGHZtRd73x0jobky0u76wvB1S7zjuv0oiXFhk7m7EIo77CMt5OjsZYym/cfbyfvPRlmRc2fuNAcsnlcD3/QndGRGjShPex4V+p/n534KYAsq7Fl4Lqvynqf+3EmUZLac+pHvY1e9EJdJ6UvPXEo+rv14nfxh34ZjXdY/vGdvZMv8dDgj5I+VvbcudzemyqypW9dwdBbn2UvS1HQ5VlIUeRWzjtZ9cOFB/NF4yda9QjXPKfXOkyOaT2uy7WWvBGAADgDqjPLbLHKj27TSm7HXRzQnTVVWpSWnK7VXvQdMQ5zSleCpTqh1pSketxFIPTFszSrVJg3W8y7QrR3+ocwWC+ZHnFW9135eV81N2sXRc9SqE44c9temFK4OvCU96keIAACMNlWSl0nUVFkGW0cFT4WEuw3Lts3UXppRc9PpFxVueq1qTTiJeZlpl3tplEqUB21oqyQRnJTnBHF1gEfRQ1zp5JNmG6acn9NmNLKqpEliJMtMQpK0hQ6xmM8VrHMklbYal3VWXKXroJd1Oelw67JyDlRluXNLzCS4kg9R7kj1iYteaw75p2jIdCq6WV5zhY197t27PnYqLQ440T2txaM9PCsjPtRhetq3SOxlCGNBa6Tuuk/RU7Oo7yceH/UV++Pnc5rpZ83gyj9RdiNp7Wp+eXuBsdLs28tJqqMjjPPuFePMXTJpydSrsxHTvL6XDyDHlCKTt1Fvic8ucZwckPeRo7IM86zt/fWy6ttfyVk8FJx6cx8GbPUpmbE5M8OM89gpq6sysn5ITn3S9/iq/fGC68m951N4Morcxdg+SE590vf4qv3xTXk97PLwdSRd4xXYei0rtn5ctSLZtdaOJmp1SWl3hjOUFYKv/wAQY+qhWvUwRa9KKvvHK8XH6kXRU+VZkZNiTlmkttMtpbQhPQlIGAI2ErJWRxriyeJNyl0nktYtSKZpFpzWL8qiO2IprIU01/3rqlBKEAnrKiP8z1R89ZUqlwnNn26P5TLOK/Doo/7P4FS+pWs+o2q1afrF33LNvh1ZU3KNuqblmE5yEIbScADxnJPWTGCVdbUVT2M63yfQ7Lcsp1g4eGmztNHtwWomjlflajQq/OvU7twVO0t59S5eZbJ7pISrPArGcKTgg+Mco9KCsx6Vq7Pl0o0Hy7NKR6uGlNLeW22Vd1Mvq1KXdtGWVydWlGppri5KSFDOCOog8j5RGdQx4zSZyVX0M6CqxKbG3pn7XbQJG6bZqlu1FlLsvUpN2VcQroKVpwY9JRjKLuhQVToqvDx4vc0yk6t0x2iVieo0wrL0jMuSznLHNCik/wCYMa3xElJnbmWVSq6SGN7EfdY39NaB50lP2qYjh89HyZ55li8PoXcsfSk/giNlrccSz5zNTbr3HW9vN8LZXwLFKcwenrEW/M3amnYybQyMZ51gRluu/kyov0dOfdT3+Kr98YI5S6zryOW0bgrxW7qNgaRa+6kaO1yXqlv3BOPySXeOapj7xVLTCD3yeE5CVH7Yc8gdI5H7KGulSyW0xrPtCstzaklq4dnt3by22w7vpmoNl0a9aGpSpKsSjc20F98kKGeFWOXEDkHygxnsJKaujk7MKKVBVYlNi74ux0uullMagaS3RazzKHFTlOe7TxeleSkqbV+ZYSfzR89clKnkmfbozWSy7NcLGi/9l8dhTPGvZb2dqYEtbDjL2I4w2XJS3k6uxjd7f3skl7z0ZPkW6fuOf+WXyuB7/oTujIzRxQnvY8K/U/z878FMAWVdiy8F1X5T1P8A24kyjJbTn1I97Gr3ohLpPSl8ouJR/XfrzO/jDvwzGt6u/dWdw5N6OhwR8cRPrJS9jq+zrOeY3/2rUXjR9Xx3c1Pyu+io8UWZdUZsc0EEOybE8VjJKjw8M+SM8sgNfvjFdIZXUTd/I55TGv7CCqYxlJM6GSP0hDbNHz1O3BmvY/kXSWZctBFpUZTlZkypUhLlau3p5q7WnJ6Y2RDEjqrb0HFeZZbWOsxWoPnPofWfHqfcdvv6bXSy3WpJa10ebQlIfTkksqAwMx5VUo97vaj0yjLqtZhg3g+cuh9aKZY15KTuztHA2YUeC+RyIzDVseptTa0n/iCsfn/aiPgKi55P5zAw7T78P4/At+QDgetGdo4+e8jN2Qnnt8fP/NZP4Zi1Z5spjYvJj6ehwZWJGCJ3OqkI9kDa21bwgrHHjqif2az/APEfZlMb1EDDeUR/4DG4FvwAwIz1HIbZGXshLjqNA1BtfCFVaVCvKBxHHtgRas982NjclSTz+F+plY4OYwRM6rMEZj6E7lJbi2bZj4NlmY6peYT7Uy7GcZSk6aDftOP9PElpBUJda+SN2Od4r1jFzZhkecilbVlOdVrzOP7fqH+ocEa8rUtd+87T0X25XhcEfBY39NaB50lP2qY+XC5yPqzzzLF4fQu5Y+lJ/BEbMW44lnzmam3Y+DvfPmpz3xFvzPzaZlGhK/zuAva/kyoSMDOxMNeKhFLK9z0bsmWybKvButH2F79suM4yZt0+04/0/j/yDGXD5G6ap9b5r2FfvRc8TmMxOm8vDiUZuK4HVN46I1nic5ncNFeWDDgvkYijvdH1S3k6uxjd7fvskl7z0ZZkW6fuOfuWTyuB7/oTujITR5QnvY8K/U/z878FMAWVdiy8F1X5T1P/AG4mGS2nPqR72NXvR5y6SdLz1xKP679eJ38Yd+GY11V+VZ2/k3o7D4I+OPlLiST2AVyWpGvrUrMO8CqpS5mUaGOlWUL95BHrkRkGj1u72uaq5WKSWPlOsv8AX9y0MGM0e05h3ER+yIaZ1i7dOqbeVIlnJkWw+4ubbaRxLEu6EhSwPEkpTnxAk+ljH84pHLAujanJXnVPQZjKnqHZT+hW8EY8kYY1q7zp5SU1eO4/RPXEolGk9hmPbujXSfO6Cnk7yiuw4x5ynLrKrLqWO3VV+AikT23bhE1YmbU2s+EFY/nVHwFR9+T+cQMO0+/D+PwLgkjlGdo486WRk7IT4Pj4/wCayfwzFqz3zU2PyY+nocGViRgZ1YhE4lTam1Xwg7H86D9k5Fzyhf3EDCOUV/4HG4FwY6B60Z5Y5DZGHshf2Az52lveXFmz1/2xsnkp/EEODKxoweMbnVTEeyKPcWzbLznbXZ3sUz/qXYzrKfNoHIGnv4hqOK+SN2ud4r1jFyl0mFx5yKV9Wvsq3p+UVS/1Lka8rWtd+87T0VX+KweC+R19jf01oHnSU/apj5cLnI+rPfMsXh9C7lj6Un8ERsxbjiWfOZqbdj4O98+anPfEW/NPNpmU6Eenqfi/kyoSMDZ2LG2qhFCMtxbHsrP/AA3WmCcYQ+n/APcuM5yVf25yPygK2f43u+Ruqp/W+Z9hX70XLEfiMw+m8vDj9SjKYB9ErMa0nzmdyZd5GHBfIRXYe895OrsY3e397JJe89GT5Fun7jn/AJZfK4Hv+hO6MjNHFCe9jwr9T/PzvwUwBZV2LLwXVflPU/8AbiYZLac+pHvY1e9HlLpJ0nPXEo/rv15nfxh34ZjXFUn3VncOTejocEfHFEj69qO9sO76hYN50a86X9U0ecamkJ+3CVAqSfIoZSfIY9KObhUJltzygjm+W4tNjf7IuU0/vmhajWjS7ytybS/JVKXS8kg80q6FIV4lJUCkjqIMbCpqlVEbo4uzfLMfKquVPjf6s72bYbmpdyVfaQ408koWhachQPSCOuPeUVJbT5cPE7nJTg7NEadU9hukd8uTFStMu2jUn1qdcMr3cq4snJ4mVHueee8KenoPKLNWZJT1TuthsbI+UvNsntHHevBde8h/qbsv1v017dON0JFxU1s59E0gqeUE9XE1gLB6egKHLpixVWUY9MvF2o29k/KPlOa213qTfQzRa0LbWUOJKVJJBBGCD4osr1o7zY2HjQxVeEkz84orHrvEVKCKtMmbU2s+EFY/nVHwFRcsn84gYdp9+H8fgXBp70etGdo4+e8jH2QrwfX/ADrJ/DMWbP8Azc2LyY+nocGViRhUTqxCJlTam1XwhLH86D9k5FxyjziBg/KJ6Bxi4EdAjPbHIzRGPshn2BD53lveXFhz/wA2Nj8lX4ghwZWNGFy6DqpiIkZbmWy7L/Brs72KZ/1LsbByjzWByDp7+Iajivkjdzn0tXrGLjLczDI85FK+rX2Vb0/KKpf6lyNbVzfdHxO19FF/isH/AMr5HX2N/TWgedJT9qmI4S2o9c98yxeH0LuWPpSfwRGy1uOJZ85mpt2Pg8Xz5qX74i35n5tMyjQj09gP2v5MqEjAW9p2FB+Kj9ZaWenHkS0s0t191SW2m0JypaycBIisFrNWPPHxY4OG5SdrIuC24WJUNO9FrVtWrpSmelJFK5lI6EPOEuLR5SlSiD5RGwaCHe9OkcdaVZkszzXGqMPc38th7S86zLW3alWr06f5vIyTz7pz1JQTHpjNqDuWrLKd1NVh4K3tr5lIzh4lFR6TGuZ85nbNJHUwoL2L5HGKO90fS95OrsY3e377JJe89GWZFun7jn/lk8rge/6E7oyKxo8oT3seFfqf5+d+CmKAsq7Fl4Lqvynqf+3EwyW059SPexq96POXSTpeeuJR/XfrxO/jDvwzGuqu3dWdv5N6Ow+CPjiDLg7GDHi47bkXtN5bYd0Vw6DVdVNnmnKpa089xzUkD9EYUel1rPLPjSeR8mMi80Va6TfzTXWnOguBnuB3zh+LiL48Sy7TnV6wdVqcip2VckpUWyAVtJXwvNE88LaOFIPriMtpq7AqleLObs1yOsyiTjU4bXy7T2ihnGI+rZ0FmXtMLQkjBAPriPN26SadtxozX/ajYetlMmJ5qSZpN0ISpUvVZdsJW4rHJLwA7tPIczzHUYt9ZQ09Ut20zLRnTKs0fxYpy1sPpX7FX9+WTcmm92VCzLrp65SoU5wtrBHcuJ9K4g9aVDmD5fHkRh1ZRukdjqPJM5p86pVU078VnRA5j5ol3OMeisTNqbWfCCsfzqj4Co+/J/OIGHaffh/H4FwKegRnaOPHvIzdkJ8H1/zrJ/DMWjPfNjY3Jj6ehwZWHGDM6tQiUSptTar4Qlj+dB+yci6ZR5xAwflE9A4xcAOgRn1zkZsjJ2Qv7AZ87y3vLixZ75sbH5KvxBDgysaMKidVMRMpLcWy7L/Brs72KZ/1LsZ3lPm0DkDT38Q1HFfJG73O8V6xi4vcYXHnIpT1a+yren5RVL/UuRrisVsR8TtnRV/4rB/8r5Hx2N/TW3/Okp+1TFcK10eme+ZYvD6F3DH0pP4IjYy3HEs+czzOpFi07UqyaxZFVm5iWlKxLmWddlyA4gEjmnIIzy6wY8KnDVRguB92WZlLK6qFVDfEjL87T0l67zur/Elv4MWj+n6dmxlyr5olZRRsrSnZxo/pHVGrgpEjN1SrMD6BN1NaHSx4+1pSlKUnHLOM+WPspMnpqR3SMdzjT3Nc4j3DHlaHsN6p5DHii46ttxhb6yKW/jWyUtDT35mlJmwa5c44XkNr7qXkge7WodXERwgdYKvFFkzeqUIaqZs/kv0dxMyzCNbNeJDr6ytknMYezqOMdXYIbLlJbydXYxu9v72SS956MnyLdP3HP/LL5XA9/wBCd0ZMaOKE97HhX6n+fnfgpjyYLKuxZeC6r8p6n/tx6hktpz6ke9jV70eUuknSc9cSj+u/Xmd/GHfhmNcVSfdWdw5N6OhwR8cFuPtQijV0SSuYAxHiSe0++jV6t27OoqVAq87TZtsgomJOYUy6n1lJIIj1jKUNqZaa/K6SvVqiKd/YSR0u3+6sWaluQvFDF1SCMJ4phQanAnyOgYV4+6ST5YvtHnGMlaW41rnXJPQVbcqT7t9vwJq6IboNNtckCSoE07IVptvtj1LngEPBPWpBHJwDlzHRnmBGRUtbgVa2PaaW0j0NzLRyX36vDrRuBIB64+tpJ7DFW7bCIPZCtH5S4rFl9UqawlNTt5YamyhvunpRZA5nr4FYIz1KVFjz2kU4d26ja/JVpDOkzDvGT8SfzK6kxh0jpe99piJNMmbU2s+EFY/nVHwFRcsn84gYdp9+H8fgXAo7380Z2jj57yM/ZCfB9e86yfwzFkz5/wBubD5MPT0ODKwow1Kx1chEiptTar4QljedB+yci45R5xAwflE9A4xcFkxnhyG3tIxdkL+wH/6vLe8uLFn/AJsbK5KvxBDgysaMLl0HVTERIy3Mtl2X+DXZ3sUz/qXY2DlHmsDkHT38Q1HFfJG73O9V6xi4vcYXHnIpU1a+yren5RVL/UuRryuXjviztTRX0Vg8EfDY39NaB50lP2qY+fCb1kfTnvmWLw+hdyx9KT+CI2WtxxLPnMyrAimyOwja5jjR9sPbiVytmfm9MsS7SnnX20JT0lasAfniF1vJRw54j1Yq7I469b1dNdMJSZplqz8vc1yoStLcvKPhUuw7jA7c4nkMEjuAeI9GBFsrM3jSKy2mfaNaAZjnElLHThh+1bStq9r4ufUO5Z67ruqjk9U6g5xuuKPJIAwEJHUkAAARh2LiOrxbtnTuUZJTZNSxp6ZWjE6KPnnsZdlvERu2QlvJ1djG72/fZJL3noy3Id0/cc/csnlcD3/QndGSGjyhPex4V+p/n534KY8mCyrsWXguq/Kep/7ceoZLac+pHvY1e9HnLpJ0vPXEo/rv14nfxh34ZjXVXburO38m9HYfBHxxEuOwRC5S4hYqIkSMEZjwkrA7ez7rrVi3PTbst+aUxPUyYTMNKBxkj0p8YIyCOsEx9dG3CSLPntDTZrR4uDjroLsaLPIqlIkqk1yRNsIeSM5wFJB/+Y2FHakziirh3Golh9TaPI66UZiu6P3lS5r6U/RJ0HyHtKsH1weY9aFXZ4Ek+ouuj9S6bNMCUfWXzKZ0xrd72do4LvhxfsRiJKx7m1NrPhBWP51R8BUffk/nEDDtPvw/j8C4JHRGdo496WRk7IV4Pr/nWT+EYs2fr+3NjcmPp6HBlYkYadWIQKm1NqvhCWN50H7JyLjlHnEDB+UT0DjFwQGRnMZ4chtEYuyF/YD/APV5b3lxZM982NlclP4ghwZWNGFROqmImUluLZdl/g12d7FM/wCpdjO8p82gcgae/iGo4r5I3c53ivWMXKXSYXHnIpX1a+yref5RVL/UuRryua13xO19FbeCsHgvkdfY39NaB50lP2qY+XC5yPbPfMsXh9C7ln6Un8Ee9GzI7jiWfOZq/c1Wqrb2hV41uiVCYkZ6Upq1sTEu4W3G18QwpKhzBEfBmcnHAbRf9E6SFbm+DT4yum38irlO4LXJX/atcvug7++MMddVdb7TqaOhOSOK+5XYdRXdTNRbnR2m476r1SZJyWpifcU2T4ynOP8AKKOsqHvZ91LoxltJtwcJHmlZUckx82s5by9xhGCtFWOMeSdtxMRKIQiey5GW8nV2Mbvb+9kkveejJ8i3T9xz/wAsvlcD3/QndGSXNHFCe9jwr9T/AD878FMUBZV2LLwXVflPU/8AbiYZLac+pHvY1e9HlLpJ0nPXEo/rv15nfxh34ZjXFUn3VncOTejocEfHDoPssbn23bbZ3cTNV2Vk7saonyDTLKUpyTMx23txcHLC04x2vy5zH00dG6vcYFprpc9Fe5rU1ta/wN4/OzK399+n+5Kv40Xn+nla+sYEuWRr/pfaR43C6FzmgF4SdoztwtVlc5T0T4faliyEhTi0cOCpWT3Genri01lH3na5sfRDS3+qsGWMoatnY1dHx2M3YieF4skfJVbcGfB/Iu6sPHyk0HzbLfs0xsOHNXA4jzLzzF/9P5nxarY+ZpdefUWd/YqiFU/umTynz/B/9L5opUjW8+cztvA8lHgvkcYk0z6Dam1nwgrH86o+AqLlk/nEDDtPvw/j8C4NPej1oztHHz3kY+yE+D4+f+ayfwzFpz1f2xsXkx9PQ4MrEjCU7nViEGVNqbVR/wAQdj+dB+zXFxyh/wBzAwblEf8AgsYuBHQIz6xyO0Rj7IZy0EPneW95cWHPdtObH5KvxBDgysaMOlE6qEQasRluZbNsuH/DXZ3sMz/qXYz/ACrZTQOQdPvxDUcV8kbtc+lq9YxcZbmYbFeMilfVr7Kt5/lDUj//AEuRraub7o+J2lovdZVg8F8jr7G/prQPOkp+1TEcJbUfTnnmWLw+hdyx9KT+CI2WtxxLPnM1LuyGdut8+bFfCEfBmfm0zKdCPT1PxfyZUIBiMC3HZEOajnFCtxA8zjFESQg1cqhEbtsjLeTq7GN3t++ySXvPRl2RLZP3HP3LJ5XA9/0J3RkBo8oT3seFfqf5+d+CmALKuxZeC6r8p6n/ALcTDJbTn1I97Gr3o85dJOl564lH9d+vE7+MO/DMa6q7d1Z2/k3o7D4I+OIlxRNPsZtQl2rovmluKw9MyEm+geNLa3Qr9oIyDRv/AHTNF8tUG8Knmui5YCDmMt2GgCvrslFm1Fu77avtiVcck35E0p1xKchtbbinEAnyhxePwDGH6SJuzSN9cj9bCGHi0ze29yGPD5YsK3G+2zsbct+pXTX6dbNGl1zE/VJhEtLtoTnK1HHPxDxnqEeuHGTkrIs+b1sKGinjydlZl2duU9FJocjTEdErLts/ooA/+I2DFWikcWVuL3aonidbb+J5rWupy9J0hvGpzSuFpihzqlH/AKKvf6Pzx5VbtgO/UfXkGG8fMcGMfWXzKYY17q7WdrYKthRXsRxiVj6Dam1nwgrH86o+AqPuyfziBh2n34fx+BcCnoEZ2jjx7yM3ZCPB9f8AOsn8Mxas8f8AbGxuTH0/DgysOMEe86tQisdzKmy9tVTl6TrzY83MnCDWGWh+EvKB/mqPvyl2qYXMO07pnUZBj26i4lHNKT4wI2JfYcgS2M0Jves2oXjoLV2qXLqmJilvM1LtSRlSkNE8ePKEFR/NFmzeLnT2RmnJ/Wxos5w5ydr7CqY9MYW9h1zCSlFSQ6e5TzWe9HjiiV9xTGmsODlJ22Fwu2e1KhZOhdn25VklM3LSHG6kp4ShTi1OFJHjBWQYzygi408EzjPS+sjW51UY8el/JWNlzC+BhxWO9QT/AJR98tiuWHDWtJIpR1InmqpqHc9Ul/pM5WJx9s56lPKV7xEa2qvGxG/adq6PQ7nlmFF9CR+Njf01t/zpKftUxPCtdFc88yxeH0LuGPpSfwRGxluOJp85mpt2Xg7Xx5sV8IR8GZ+bTMp0I9PU/F/JlQkYEzsePNQgUbEAhAkIBCKNXZGW8nV2Mbvb99kkveejKsi3T9xz9yyeVwPf9Cd0ZCaPKE97HhX6n+fnfgpgCyrsWXguq/Kep/7cTDJbTn1I97Gr3o8pdJOk564lH9e+vM7+MO/DMa3qn98zuHJvR0OCPjiS3H17TbO1vVNOkes1GuSemFN0maJptS8SWHikdsPkQoJUfJmPty6r71xzC+ULKPDmUTw0rzW1e4t4l3W32kvNKCkLAUCDkEGM4U9mscjTg8OTi1Zo6K+bGtnUS2py0rupqJ+mT6OB1peQeRBCkkc0qBAIIIIxFZwjUR1ZI+zK6+oyjHVTTStJESK92NG3JmouTNv6lz8nKLOUS8xIJeU35AtKk59qLBLRxXvrm1qLlgrIRtUYOs+Nvobg0H2g6c6HzXydl3Jit3AUlIqM4Egtg9IbQBhOejPM45Z5mLjSUEaMxLSXT3MNIk8F+Lh9S/c3wDFwuugwXiRP7IJqwza2midOqe+E1S5VgOgKxwSiFArJPVxHCfzmLHntUow7it7Ns8lej8q7MO/ZLxIfN/8A3xK3AcxibR00lbYcY8pOxM2ptZ8IKx/OqPgKi55P5xAw7T78P4/AuBR3v5oztHHz3kZuyEnG317zrJ/DMWTPn/bmxOTD09DgysOMNSsdWoRIqfRT6hMUqflqlKLKH5R9uYaWk4KVoUFAj84hB6kk0fFmFJ35S4lO+lFyWiWpdM1Z01ot6U55ClTcsgTSEnmzMJGHGz5QoEdXLB642HR1KqcJSRxlpDlM8nzDEp5K23Zw6D3DjTUw2pp1CVoWClSSMgiPqcU1ZlmhOUJKUXtRE/UzseWnV31qYrln16ZthybVxuSjcul+WCs8yhBIKM+IKx4gIsFTkOBiO6NpZPyqZjQ4Cp8eOvbp3M7XRvYdptppXJW67hqD9zVaRIVLeiGg1LMrBylQaSTxKBxjiUoDqGecelFk9PS+0+TSHlJzLOcDvePiQ9hJxKQgBKUgJAwAOgCL1q9RrqT1trNP7qdWZLSTR+r1z0Rw1OfbNPpjYPdLmHBjIH/hGV/+WLdmtUqXAZlOhOUyzzM8PCt4qd2VGKcU4oqV0mMDk9d3Ow8KCw4KC6Eju7G/prQPOkp+1TE8N+Mi2555li8PoXcsfSk/giNlLccSz5zNTbsvB1vnzYr4Qj4Mz82mZToR6ep+L+TKhIwJnZEOahACAEAIBCKdJGW8nV2Mbvb99kkveejKsi3T9xz9yyeVwPf9Cd0ZCaPKE97HhX6n+fnfgpgCyrsWXguK/Kep/wC3AoyW84P5q97Gr3oPcz0placeJR7XfrzO/jDvwzGuKtfes7dyaVsvhwR8kUuXSxgjMec3Z3QlFSTTJrbRN5sjbMjK6Yat1FSJFrgYpNVcBIaT1MvEdQ5BKsYA5HkMxkeUZt/0Y5oLlB5PXiyeYZcvbKP1J7SdRkajLtzdPmmZqXeSFtvNOJWhYPQQQYyyDi14po6eHPDerNNM+tMVZ5Mx5Y89nSQ2mn9dtythaH0B2Zqs63OVlbZMpS2XB210/bK6eBA6So+sMnAj46utwKVXbMv0c0Rrs+x1GKtDplYqy1J1CuXVS8Z+9rqnC9OTyuSB9LYbGeFtA6kjPvnpMYNWVbq592OqciySn0fpVT4HUeZAxHle6L4I85O5U2rtZ8IGxz/zVHwFRdMo2VELmG6fP/j+PwLfUHuRy6AIztWOPXfWZGbshWTt9ewf7Vk/hmLJn/m9jY3Jjsz6HBlYkYedWoQKiAN27XtyFV0DuNcrMtOztrVRYNQlEAqW0r/vmv8AxDPMemHrCLnRVnejXUa8040HWk2A5wX3kdz6+JaBp/qJZuplAauSy6/LVKSdGeJs4Ug+JSD3ST5CAYzPDqoY6TicwZrk9VlOO8Cpw3GSPU9cfR0FrXOMkgdYEeXSeh4fVDWKwtI6G5Xb2rrEo2AQzLpVxvzCsZCW2xzUT5OjrxHlU1UaaN2XbJ9Hq/PsdYNNC/t6CrHcLr1cWu95LrVRJl6VJlTdMkQe5ZbPSo+NasDJ9YdUYPXVjqmdT6H6IU+j9OsJrx+lmrEx8MTNNU72xv6a2/50lP2qYnDnotOe7KLFXs+hdwwR2pPMd6I2WtxxLNeMzUu7Q/8ADpfGD/ZivhCLfmnm8zKtCPT1PxfyZUNGBs7HhzUIAQAgBAIRTpIy3k6uxjZ4b+9kkveejKsi3T9xz9yyeWwPf9Cd0ZCaPKE97HhX6n+fnfgpgCyrsWncbY5mWXydl7rqbTqD0oXho4PlwRAEu5hBcZcQOlSCkfnij3EsN6k0/aUp6lWdcli3nU7duqluyFQYmFqU04O+QVEpWk+mSR0EcjGv63DlHEd0dn6NV1NmuXQxad3skeaj422mZEkIgDKYnqtbiMoqSsz3unWuurGlhCLLvaoyUsk5EmtfbpfPsS8pH5gI++kr6il6TE830MyzNbvHwk32G35Tsh2vjLYQ+xbUwrrcXIOBR/RcAi4eH8dmHPklyuTvtXvZ568d7u4K7JZyTbulijNOjBFMlg0oesslSx+Ygx4SzioldF6ouS/IqSzcNd+1s0PPT9Qqk47UKnPPzcy+eN159wrcWrrUpR5knyxZnKUm7meUWX0tCrQicExOytY+lpMzHkUETiHsOztq5a1ZtwSF0W7OqlKlTXhMSzwSCULHQcHIj2w5PDaa6C3V1FgZtTumqFeEt5tr+WpuUUMDUQj/ANPlviRclm9QlvMP+zXR+/k/izzV+7kNZNT7fXa98Xeqo0xTiXix6FZbBWnvTlCQeWTHy1VZj1exl4yzQfJ8mxe+aXDtNdNzWsfGZUIqBADn1GKNXKpndWjfV42HUU1W0LkqFImQQSuUfU3xgdSgOSh08lAiPSNbKl2plnzXIaPONlRhqRvei9kA3BUxlLU5OUSpqQMB2akSFn/DUkf5R90dIahmA1HJNlM5bPF7T5bj367ha+wuXl6xSqQlXppGQAWPWU4V4/NEpZ1UNHvSclWTU7TlHX4t/LcaMr9z3HdtRcq9016fq064SVPzkwp1ePECrOB5OgdAxHwTqpTe1mfUOTUmUYHcaaCR1nD5Y8tZNn3rYOHyxS9ya2H6yc1MU6el6hKOlD0s4l1tQ6UrSoEH/KKp2dz46yCqouD3M3SN6e5ADhGoHLo+oJf4kXOOcVEd7MJfJtkD29z+LOnujdXrtedvz1r3FexmqZUmizMsegmEhxB6RkIBH5jEanN6iqVmfVQ6B5PQVMKinw7TjxNURbl7TOErKwipEQAgBAIRTgQxHZ3LA+xs2jcdHte6LsqdLel6bXHZZMg66OHt/aw5xqSD0pBWkBXQeeOiMsyOLUW2c28q+YU9ZWYeBhu8o3v7yag6OUX81CUM7z5aZnN1Wp7spKvPoFwPIUppPEAoJSCnPjBgCwPRWvy+0nc7eGgd5vIp9p6kVJVy2fPKSRLCbdwHZZSzySo8ITjxoT9uIAnD0xKwNLbktuNta8272p1KJC4ZNKjTqiEA8KiO8cHWg458sjAI8vxVtFGqRmGh+mFVo3Uppt4b3x/YqxveyLl07uWctO7Kc5JVGSWUrQocljqWk+mSeojkYwKcHBtNHV+SZ3S53SqowHvOhjyht3F03mUx6LYDEecrgRRK4EegEAIARFxuBEgIJ2KCAECogBACAEAIo1feBCyG8RUCKWAhuAioECggBAqIAQAgBACKPaijajtZKHaTtKntV55m+b3lnGbQYUFsMkFLlTUDkDyNdRUDz5gdZi9ZPRd8PWmjUGn+n6y6Lo6N3m9l+osqptMkaRJMU2nSrUvKyyEtstNpCUtpAwEgDoEZnqqNrHOWLiTxpuc3ds8Nr7rdaGgGm1U1Bu6dCG5ZlSJKVQodunZoj6Gy0k8yonpOCEgFR5CKM8SNe1naii7NNZjUvWykIXdN/Vmcuh9tQKVMtzRSpCCMjBIHHjq48dUASN1+0BsTcVYb9jXxKEAHt1Pn2QPRFPmB3rrRPQeQBHQoZB8YqlYEfNA9fb60Nvpna3upqBNQJSzaF2Ok+h6xLg8DbTjhJw5jhwVYOe5XzwpVQTMIzFGDTO5DbdbWvdsuNzCEStwyaCadPhPNvlzaV40Hn5QTkR8VbQxqYmX6H6X1OjdUmn9234y+pVbfNkXPpzc05aN3UtyRqMkvhWhRBC09S0EclJOORHTGD4mHKkbTR1bkmdUud0qqKd3udImPk1nPai7oxFYgRNK4EAIAQAgBACAEAIAQAgBACAEAIAQAgBACAEAIAQAgBACAEU2bijdt5KDaZtGntVpuWv2/JZ2UtCXcDjLRyldSIPejoIa6Mn02MDrMXzKspdR40uaai5QtOoZcnQULvi9Nugssp8jKUqQYptPl2mJaXQGmWmkBCG2wMJSkDoAAAjLYxUFqo5vxJyxZuc3ds8ZrXrXYmgdiTl/6gVL0PJS/cMMtjiem3yCUstJ9Ms4PkABJIAJj1PO5GXRTRW+9z99yW5/c/S1ychJqDtlWS4My8iyeaZl9B6VnuVAKGSQFKAASkUZQmoE8umIg5R6WsDWuv2gNh7ibDmLIvaTAWAXKdUmkD0TTpjlh1pR6DyGR0KAweqKAj1oLr/f2hl+tbWt1LyvR4IatK8HVkS1ZlsgNtuOL5dsAISDnORwq54KqWBNEEEZHXCwNKbj9t9s6628UuJRI3FKJUafUUoysKP8AVr+2bPWOrpj4a6hjVLaZhohpjU6N1Kad8N74/VFWd62RcmntyTlqXXTnJKoSSylaFDkoelWk+mSRggjl7UYFiYbpW00dX5HnlLndKsendzoY84PW2ougj0QOMUAgBACAEAIAQAgBACAEAIAQAgBACAEAIAQAgBACAEAILaUbttJQbSdpc5qxPsX1fEqti0WFhUsysYXUlg5xg9DXI5UOnmAekxfKLKO+LTluNQaf6frLU6Ojd5vZwLK5GmSVJkmKdTZZqWlZdAbaZaTwobSBgBKRySPIOUZbFaisjnGeLLGm5zd2zxWtWtVi6CWLOX5ftSTLysukplpZKh2+efx3LDKfTLPtAZJwATFTzbI1aL6L35uevuS3N7n6U5LUqWJcsqxplPExJM5yiZmEqA4lKwFAEZVkKOAEpErECa3TFSRmAOESTuBCwNb6+aCWFuJsKYsW+pIlOS9IT7PKYp8xggOtK8fPBSeShyPVilgR70G19vzQi/JbavuomwqfWAi0bvcX/NqxLjuW2XHFAfRcJABPPJCVc8E0aBMxQCgCOfWIiDTG47bfa+vNsGTdl0SdwSqFGn1EZHAr7RwDvkHl1EggEY6/hraGNVEzDRDTGq0bqk7t4fTH9iq69bKuXTq5Z20bupjkjU5FfC42rvVJ6lpPpknGQfFGETwnTNpo6tyXOabOKdY+BPWjI6SPK+ttRdjjHnqgQiBEwIAQAgBACAEAIAQAgBACAEAIAQAgBACAEAIAQsUb1drJPbTNpFQ1Xn2L6vuWck7QlnAtlskpcqZGTgDH0rOMkHn0DrMXvKcqdQ9aXNNRadcoUcug6Cgd8R7L9RZdTpOTpco1ISEq2xLsIDbbbaQlKUjkAAIy6MVDYjnDFxJ403Obu2eM1u1usXQGxJu/b9qHaZVj6HLyyCO3zj571lpJ75Z9oAEkgAmKng3YjRovolfW5y+JLc7uepvoemy/A9Y9lrKixT5ckKS++kgcazhJHEO6PNQACUiSKXJpobS2kIQkBKQAABgADoAEVJHOAEAcIAQAgDWuvugNhbirDmLGvmUIAPbpCoMgeiKfMDvXWifWGUnkocj5KoEe9AtfL60LvmX2u7p3w1NYRL2ddq8+h6wwDwIbdcJOHOgAqwc9yrngqjYgTOWnPXFStjSu5DbfbWvVsONTLbcpcUmgmn1EJ5oOOba/tm1c+XSCSQYtldQqq3mYaH6X1WjlUtv3b5y+pVpfVi3RptdE7aN3UtySqEkrhUlXQsdS0noUk9IIPR4owmtg6N2sdX5FnlNnVMqinetE6GPNbUXUQKnGAEAIAQAgBACAEAIAQAgBACAEAIAQAgBACAEN5RvV2slFtJ2jVDVeal79vuVclrSZWFy7KkkLqSgcgYOCGgQMq6+YB6TF9oaF1LUpLxTUGn3KBHLk6Ojd8V77dH82LLJCmyVLkmKdT5duXlpZAaZabSEpQhIwlIA6ABgDyCMtilFWRzhPFniSc5u7Z4jWzWqw9AbEnNQNQKoJaSlgUsMIwX5x8juWWk+mUfaABJIAJgQuRq0U0Wvzcxfsrua3OyLkrISyw7ZlkuJ/m8izjKJh9B75ZylWFDJIClYASkSSIE1Rz5xLcSMxQCAEAcIrawERAiQEQYNa6+6CWPuHsOYsi85RKVc3qfUENgzFPmMYS60o9HVkdChkHxiRREedAder90HvhjaxulfWZxKu02jeLx4ZatS/9W2tasDtgGEgk5yOFXMAqE0iZ+MdcAaY3H7cbZ19t0svpbkbgk0qNPqKUZWFHobX42z4uogGLbW0MatbTK9ENMKnRuputuHfxo/sVY31Y9y6b3LN2ldtOck6lJLKXG1DuVDPcrQfTIUOYUOXT4owisg6R2aOsMkzumzmmVRTvxZHRA5jyi9dXLscYqBACAEAIAQAgBACAEAIAQAgBACAEAIAQAha5Ru28k/tI2kT2rM4xft9ya5a0GFZYaUkhypKBHcjow0COZHfYwOsxe8qyp4/jS5pqHlC07hlydBQu+J026Cy6m02So8i1IU6Wbl5ZhAQ0y0kJQ2kDASlI6B5Iy5RUVZHN+JiTxpuc3ds8VrbrhYmgdiTt+37UO0SsulQl5dBHb51/GUstJJ7pZx6wGScAExU8m7EadFtFL+3MX5Kbnd0FNXL05k8dl2PMIyxIM8QKZl5ChzUrCVAEZVyUcAJSJIpcmmT5ImlYkkc4iBEWwIkBAHCAEAIAQAgDW2vmglibiLDmLHvmTOAS9T59rlMU+ZxhLzavH1FPQoZB6sCqdiPegevWoWhd8y+1zdZOhU+oJRaV3OLxL1aX5pbadcUB9E7nAJ55wlXPBIXJm8umBQ0vuQ232rrzbC2Hmm5S4ZVBVT6glPNCvtFj0yDyz1ggERbK6iVUtqMv0W0uqtHalWd8PpiVYXtY1yadXJOWldtOXJVOSXwuNqHcqT1LSfTJPUYwieG6VtNHVGR55TZ1TLHwGdFw+WPNPX2ovY4fLFSpiAEAIAQAgBACAEAIAQAgBACAEAIpuAij2rYUbttJRbSdpk3qrONX1fMu4xaMutK5dhSSldTUDnHVhrqJB7rJA8cX7J6Lvnxpo1Bp/p+stTo6N3m9l+ostp1OkaRIMU2myrUtKyzYbaabSEoQkDAAA6BGXJKKsjnDFxZ403Obu2eG1w1xsPQGw52/r/qaZaUlwUS8ukgvzr5HcstJ61H2gMk4AgQI1aL6JX/ALlb9ldzm5+nmWp7CkzFkWW4T2mQYJCkPzCOhSzhJHEO6PNQACUiSViBNVACUhKQAByAESasSOUUbAiNwIqgIqBAHCAEAIAQAgBAGt9fNBLD3E2HMWNfMmcZ7dIT7KR6Ip8wO9daUejoAKehQyD4wBHnQbcDfWhd/Sm1ndPNgTK8MWddywRL1eXT3KG3XCThzkACrBB7lXPBUBM6AauaY3G7drd10tftbqESlxSKFKp1RSkZSSObavGhXPI6eeQYtlbQqrT2GX6IaUVOjtUpX+7fOX1Ksb4sW59OLmnLRu6mrkqjJL4VoUDhY6loV0KSekEf5Rg+JhypZOLR1dkmdU2c0yqKd3jI6EHPREE9bai7HGK2ZWzELFLCAsIWK2YhYpYRQrZiK2KWEBYQsLCFitmIFLCFitmIWKWEBYRG6ewo3ZXZKPaTtJndVZxi/L5YclrQlnEuS7asocqSweQA6Q0Os+m6B1mL7lWV98eNI1Dp1yhrLoOgoHfEey/UWT06nSFJkWKdTJVuWlZZCWmWWkhKG0AYCUgdAEZdGKgrI5xxcSeLNzxHds8ZrjrbYmgNiTd+37Ue0SrOW5aWb5vTj+CUstJ61HHSeQHMkAExU8SNOimieoO5e/ZLc/ugpxlpFgh6zLLc+kSDHS3MPoI7pZzxYOCVAFQwEpEkRuTVVEkSSMgYg3cGYg2BEgIAQAgDhACAEAIAQAgBAGt9etBLC3DWJM2RfEiOYU5IVBtA9EU+YxhLzSj1jllPQocjAEeNBtfb50Fvxra5uqnAmb4ktWheD7hEvWJfOG23Fr9OMhIUTnICVc8EgTPgDTG4/bhbWvNtLac7XTrik0KNPqYQCW1faLHLiQeWecWytoI1S2mYaIaY1WjdQrO+H0x/Yqxvmw7m04uactK7qc5JVGSWUrQodytPUtB9Mk9RHKMJnhulbTR1PkWeU2d0yqKd7zoOHyxBYiZftZ2HD5YpLEPJylccXkiHdGVUpDi8keimT15Di8kHMhrMcXkjyWJtJ68hxeSJ6+zceblIcXkiHdHcpryHF5I9IzKqUhxeSDmj015Di8kQ7oR1pDi8keimS15HLlFHiHm5MxHjrtsj3RrayUm0naRPaqTLF/X5LLlbTZUFyzKk93UVA9GOpoEEEjvsEA9cZBQ5O6m05bEam0/5QYZdeiy53n0+wspkadI0yVakafKtS0swhLTTLSQlDaEjASlI5ADyRmUUoqyObZ4k8STnN3bPD64a4WJoBYk3fd91FLLDQKJSUQQZifmMdywyn0yz7QGScAExRkCNui2iF9bl75ldze6KnLZkWMLsuyH0ky1Pl+LKJh9tYHE4rCVDiGVZCjgBKRVIkTTipEQAiNwIqgIqBACAEAcIAQAgBACAEAIAQBrjXrQaxNw9hzFjXxJnhyXpCeZ5TEhMYIDrSvHzwUnkociOjAEeNBddr80EvuX2ubpZ0Lm1BKLSu5xeJeqy/NLbLrigPog4cBR557lXPhUoCZpAOD7UAjUOv22qydfaM1K1xa6fVZRQVLVOXQC62OtBB5KSeXI9YEW6soY1W8yvRrTCs0bxr4DvH1TQh7GfQQfsr1L3Mb+PFteRL1/gZ2uWGt/JX6v4MfOzqD99epe5jfx48vASvz/gei5Yq1f9C/V/Bj52XQfvs1L3Mb+PHqsij6/wKPljrfyF+r+DPzsqgnn81mpe5jfx4PIo+v8AA83yw1v5K/V/A+dlUH77FR9zG/jx5+Al6/wKfbFW/kL9X8D52XQR/wBrNS9zG/jx6LIo+v8AAquWKt/IX6v4MfOzKD99mpe5jfx4r4Cj6/wJ/bFW28iv1fwZ+dl0Hp+azUvcxv48PAUfX+BH7Ya2/kF+r+DHzsug5+yzUvcxv48HkUfX+BL7Yq23kF+r+DPzsqg/fYqXuY38ePLwEr8/4EfthrfyV+r+B87MoP32al7mN/Hj0WRR9f4EvtjrbeRX6v4Hzsqgnn81mpe5jfx4PIo+v8CD5Ya38lfq/g5fOzKB99mpe5bXx48nkK9f4FPtirfyF+r+Ds7W7HDZFGuORqtfvmoVqTlXA45IqlEMpmAOYQpaVEhOQMgdOMR9MMigmnc+ev5V6+sp3h4WGoNrfe/wsS+p9Pk6XJs06nyrUvLS7YbaabSEpQkDAAAi/RWrGyRqbExJYs3Obu2eL1u1tsXQKxJu/b9qHaZVn6HLy7ZHb5x49600knulH2gMk4AJiJAjTotonfO5a/JXc3uep/a5Jkpfsqy3OLtFNZJC0TD6SAFOHCVYUO6IyoYCUiSI3JopSlCUoQkJSkYCQMACJpWPRH6REiIi2BEgIAQAgBACAOEAIAQAgBACAOcAIAQBrHXvQOxdw1iTFj3vJnhJ7dJTzIAmZGYHeutKPQeQyOhQ5GAI66Hbg7127Xcztk3X1JCCykN2jeT2UytUlk9yht1wk8KsBOCrBTzC+pRAmjLzDM00l5haXELAUlaDlKgesHrgD9sCAHCnxQAwPFADAilwMCKgYEUuBgRUDAgBgQAwIAYEAMCAMwBjA8UAa11x3B6a7fbPfu2/qy21hJ9BU9lQXNzznUhpscznl3XejOSQIAjponoff25G/pTc7ukpqpaWllJcs2ylgeh5BjGUPvoPSs5CgDgkgKUAAlIpYE1emKgzACAEAIAQAgBACAEAcIAQAgBACAEAc4AQAgBAHi9VNJtOtY7dVaepFqSFbp6yVoEw2O2MLyBxtLHdNqwe+SQYArj1503re2CvJtTRvW3VKi0ZS0oRIpuRfaWknHJCQkAY8fT4yYowaq+a/r7/AHitTf8A3A5+6IgDV/X0/wD3Fam/+4HP3RJA5DVzX3p/lF6m+76/3Qe4Gfmua+/3jNTfd5XxYigPmua+f3jNTfd5fxY9APmua+/3i9TPd5XxY8WB81zX3+8XqZ7vK+LFUB81vXz+8Zqb7vL+LHoB81zX3+8Zqb7vK+LEWB81zX3+8XqZ7vK+LFAPmua+/wB4vUz3eV8WAHzXNff7xepnu8r4sAPmua+/3i9TPd5XxYA/SW1U15mphmWd3GanhLziWlFNwLSQD0kYHTygCcO23Z7pAoSOr15fJ2+bpmPoiJ26ah6P7QvpCkJKQniGBhSgojqIiYJdnngwBygBACAEAIAQAgBACAEAf//Z;resizeWidth=0;imageBackground=none;imageBorder=none;resizable=1;rotation=9;" vertex="1" parent="1">
          <mxGeometry x="593" y="80" width="40" height="60" as="geometry" />
        </mxCell>
        <mxCell id="HJUOC0QFOHcw_SWBB-Hj-27" value="Achtung:&lt;br&gt;Hier den Größeren Wert nehmen" style="text;html=1;strokeColor=none;fillColor=none;align=center;verticalAlign=middle;whiteSpace=wrap;rounded=0;" vertex="1" parent="1">
          <mxGeometry x="560" width="106" height="45" as="geometry" />
        </mxCell>
        <mxCell id="HJUOC0QFOHcw_SWBB-Hj-29" value="" style="endArrow=classic;startArrow=classic;html=1;rounded=0;" edge="1" parent="1">
          <mxGeometry width="50" height="50" relative="1" as="geometry">
            <mxPoint x="589" y="80" as="sourcePoint" />
            <mxPoint x="639" y="80" as="targetPoint" />
          </mxGeometry>
        </mxCell>
        <mxCell id="HJUOC0QFOHcw_SWBB-Hj-30" value="11px" style="edgeLabel;html=1;align=center;verticalAlign=middle;resizable=0;points=[];" vertex="1" connectable="0" parent="HJUOC0QFOHcw_SWBB-Hj-29">
          <mxGeometry x="0.1213" relative="1" as="geometry">
            <mxPoint as="offset" />
          </mxGeometry>
        </mxCell>
        <mxCell id="HJUOC0QFOHcw_SWBB-Hj-31" value="" style="endArrow=classic;startArrow=classic;html=1;rounded=0;" edge="1" parent="1">
          <mxGeometry width="50" height="50" relative="1" as="geometry">
            <mxPoint x="589" y="140" as="sourcePoint" />
            <mxPoint x="589" y="80" as="targetPoint" />
          </mxGeometry>
        </mxCell>
        <mxCell id="HJUOC0QFOHcw_SWBB-Hj-32" value="18px" style="edgeLabel;html=1;align=center;verticalAlign=middle;resizable=0;points=[];" vertex="1" connectable="0" parent="HJUOC0QFOHcw_SWBB-Hj-31">
          <mxGeometry x="0.1124" relative="1" as="geometry">
            <mxPoint as="offset" />
          </mxGeometry>
        </mxCell>
        <mxCell id="HJUOC0QFOHcw_SWBB-Hj-33" value="" style="endArrow=classic;html=1;rounded=0;" edge="1" parent="1" target="HJUOC0QFOHcw_SWBB-Hj-34">
          <mxGeometry width="50" height="50" relative="1" as="geometry">
            <mxPoint x="609" y="150" as="sourcePoint" />
            <mxPoint x="609" y="180" as="targetPoint" />
          </mxGeometry>
        </mxCell>
        <mxCell id="HJUOC0QFOHcw_SWBB-Hj-34" value="Größe: 18px" style="text;html=1;strokeColor=none;fillColor=none;align=center;verticalAlign=middle;whiteSpace=wrap;rounded=0;" vertex="1" parent="1">
          <mxGeometry x="579" y="180" width="60" height="30" as="geometry" />
        </mxCell>
        <mxCell id="HJUOC0QFOHcw_SWBB-Hj-52" value="Schritt 3:&lt;br&gt;Pixelwerte dokumentieren" style="text;html=1;strokeColor=none;fillColor=none;align=center;verticalAlign=middle;whiteSpace=wrap;rounded=0;" vertex="1" parent="1">
          <mxGeometry x="380" width="160" height="50" as="geometry" />
        </mxCell>
        <mxCell id="HJUOC0QFOHcw_SWBB-Hj-53" value="" style="shape=image;verticalLabelPosition=bottom;labelBackgroundColor=default;verticalAlign=top;aspect=fixed;imageAspect=0;image=data:image/jpeg,/9j/4AAQSkZJRgABAQAAAQABAAD/2wBDAAMCAgICAgMCAgIDAwMDBAYEBAQEBAgGBgUGCQgKCgkICQkKDA8MCgsOCwkJDRENDg8QEBEQCgwSExIQEw8QEBD/2wBDAQMDAwQDBAgEBAgQCwkLEBAQEBAQEBAQEBAQEBAQEBAQEBAQEBAQEBAQEBAQEBAQEBAQEBAQEBAQEBAQEBAQEBD/wAARCAEsASwDAREAAhEBAxEB/8QAHQABAAICAwEBAAAAAAAAAAAAAAgJAQcCBQYEA//EAGEQAAECBQICAggKFQoDBwUAAAECAwAEBQYRBwgSITFBCRMiMjhRYXUUQlVxc5GVsbLSFRYXGSMzNDU3UlRXcnR2gZKUs9HTGCQ2Q0VYk6G0wyhlg0dTYoKFlsFESKKjpP/EABwBAQABBQEBAAAAAAAAAAAAAAACAQUGBwgDBP/EAEERAAIBAgIFBQ0HBAMBAQAAAAABAgQRAwUGEiExcQcyQVGRExQVIjM0NVJhgaGxwRcjNlOS0eEWJCVCJkNy8PH/2gAMAwEAAhEDEQA/ALUIAQAgBACAEAc4AQAgDgtfB1QBD/VTcxqjrFqPOaA7PkSjs7STw3NekykLkqSCccLWcpWsEK54VkghI5FQA/CU7G7ad0sJqus2tupN5V50ZfmfksGJcK8bbakrKf0vzCAP2HYt9uJ/ty/vd0fw4Az86224+rd/e7o/hxS4Hzrvbh6tX97vD+FESth86724erV/e7w/hQFjHzrrbh6tX97uj+HAkZHYuduHq1f3u8P4cCLM/OuduHq1f3u8P4cChg9i524erV/e7w/hwKoDsXW3DP16v73dH8OBVmfnXO3D1av73eH8OBCw+dc7cPVq/vd4fw4FR86524erV/e7w/hwA+dc7cPVq/vd4fw4AfOutug5tV/UFtY71Sa6nKT4xlrpgDorh0S3Q7UWzd237VSr6kWrTk8c/Zt0O+iZky45qVLujGVpGSAkJPkX0QBI/QDX2xdxNjM3rZUwpCkKDFQpz5xMU+YxlTTqeXRzwoclDmOsCSVgbPHOKgzACAEAIAQAgBACAEAcIAQAgBACAEAc4AQAgCFWuOt977lb7mdru2KoKZkmz2q8r2ZJMtIMk4Uwy4nHEojKSUnKiSkYAUoASS0S0QsXQOxZWxbEkO1MN4cm5twAzE9MYAU88oDulHHrAYAwABAHvypI6VAeuYbitmzgZmWTz9ENfpiIuS6yawpvoZgzksf/AKhn9MRDWXWSWFP1X2D0bLfdDP6YiV11lO4z6n2D0bK/dLP+IIXQ7jP1X2GfRst90M/piF0U7jieq+wx6Nlfuln/ABBC6K9xxPVfYPRsr90s/wCIIXQ7jieq+wz6Nlvuhn9MQuinccT1X2D0bLfdDP6YhdDuM+p9g9Gy33Qz+mIXQ7jP1X2D0ZLfdLP6YhdDuWJ6r7B6Mlvuln9MQuh3LE9V9g9GS33Sz+mIXQ7lieq+wyJuXJwH2yT1BWYpdFHhzW9M5AhfPGRE0QIea/aAX9pBfS90u1pjhrTQKrqtNpOJeuy+crWhtOB23mVEYJyApPd5Cqg31t/3AWLuKsVi87Mme1vN8LNUpjyx6Jps1jumXUjo6+FWMKHMdYAGzMiAMxRgRQCJAQAgBACAEAcIAQAgBACAEAc4AQBC3W7W++dyV9Tm2LbBVBLS0sQzel6tklinsE8K5eXWnvlnBSVJIJIKUkAKUAJG6J6IWHoHYcnYNg07tErL/RJmZc7p+cfPfPOq9Mo+0BgDAAEAe5np+Tpcm9UKhMNy8tLoLjzziglDaBzUpR6gBk58kRlOMNsmTw8OWLJQgrtla27DdzP6m1BdladzsxJ2tJunts206pDtRdB74KBylscsDr5EjojE84zh461afoOjdAOT6NOu+sxXjtdiI1i4a+P7bnv1hf74x/vrG6WbO8A5d6i7DPyw171anv1hf74l35i9YeRZev8ARdg+WGverc9+sL/fE+/MXrIvKMuj/wBa7B8sNeP9tT36wv8AfDvzF6yqyrLvy12GPlgr3q1PfrC/3w78xesnHKsu/LXYPlgr3q1PfrC/3w78xesr4Ky/8tdg+WCverU9+sL/AHw78xeseCsv/LXYPlgr3q1PfrC/3w78xespLKsu/LXYZ+WKv+rc9+sL/fDvzF6zy8FZd+Wuwx8sFe9Wp79YX++HfmL1nqsqy78tdg+WCverU9+sL/fDvzF6yvgnLvy12D5YK96tT36wv98O/MXrHgnLvy12D5YK96tT36wv98O/MXrKPKcu/LXYdra+o972dX5K5aBck9Lz0i4HGll5SgfGlSScKSeggggiJRrMVSTuW6t0dy6spnT4sF43sLQttm5W39dLbS2stSVzyCB8k6eF555I7c2fTIOB4iknB8uc0VbGqicw6YaH1OjlS9n3bfis3eFZ5ER9rZhxDvcDoDfekd+L3TbXWe1VpvLt22s0k+h69LDulrS2OQewCTjBJ7pPdZCyBvjQDX6xtxNis3pZcyptxs9pqVMfUPRVOmOeWnUjo6CUq6FDn05AkgbPigEAIAQAgBACAEAcIAQAgBACAEAFr4OqAIYa26235uVvua2v7YZ4MSbJLN7Xo0T2mnS5VwuMS6xgKcICgSOajyScBagBI/RXRKx9BbCkrAsSQ7TKy/0SYmXBl+dfPfvOq9Mo+0BgDAAEAe1n6hJUqSfqNRm2ZaXlm1OuuurCEIQkZKiTyAAikpKKuz0wsKeNJQgrtla+7TdtO6rzT9iWJMuy9oy7hTMTKTwrqigefRjDXiBGVZyYwvN63vl6sWdG6AaAeDYrMKtXm+jqIvcPli0LcbfjHV2IcPlijsyadhw+WPKW8rccPlj1Ijh8sAOHyxQiOHywA4fLADh8sAOHywA4fLADh8sAOHywA4fLAqhw+WG8m2kdzZ94XFYNxSd1WrUnJKoyS+NtxB5EdaVD0yTjBSeREShiODTTLZmmV0udUrpqlXuWm7adydva7W6lt1xEhc0g2PkhTyvIHjdaPpkH1yQQQfLm1BXKqRyfphofU6OVL2Xw29jN3hWYuqMOIc7gdAb80hveY3RbWJZCK8Eld02sgH0PXJfILi0NggduwMkDmo90nushckDfG37cJY24qxWrzs19TbrSgxU6a+cTFPmcZLTifbwroUBy68UBs9JzAGYAQAgBACAEAcIAQAgBACAEAQu1s1vvjcvf01th2wVEy9PYyzel8M90xIMHv5dhYxxKOMEpOVHKRgBSgBJLRTRCwtA7GlLEsClolpZlKVTMypI7fOv4wp95QHdLPtAYAwABAHtqjUpKkybtQqEy3Ly7CFOOuuq4UNoAyVKUeQA8ZiMpKKbZPDw5YslCCu2Vp7td3U/qpNzFh2FNuS1psLKZiYSSF1FYOP8ACHLAOcnmeoRhlbm7qbxidHaA8n8cutWVivN/Ai/Fp5xuCK1VZCItokIhrX2FBFYqxS4iRIQAgBACAEAIAQAgBACAEAcoo1fYUSsdvZt43FYNxSl12pUXJGpySwtl5B6vTJI60qHIg8iIlhzdLJOLLVnOTU+c07wMdeKWmbZdylA13tvgcUzIXLT0J+SNPLg5kjm60Oktnp8aScHqJz2irVVROU9MdD6nRyp3N4bexm8iAoYUAfXj7zDiHO4Hb/fmkF7vbptrsslFaZy7ddqMI4Jevy2SXFpQnA7cASogcyRxJ7vkoDfG33cFYm4qyEXhZcypt5lQYqdNfUPRFPmOttxI8oPCroUBkdeKXBs+KgQAgBACAEAcIAQAgBACAIW62a2X5uVvuZ2w7YZ9yUlJY8F63q3ksU9gnhVLsKAypZOUkpIJIISQApYAknonohYWgdjSth2BTRLyjPdzEwvun5x89886r0yj7QGAMAAQB7eoVCSpck/UKhMol5aWaU8664eFCEJGSVHoAwIpKSirsnh4csWahBXbK1N3G7qa1VqMxYVhzbjNqSq+CYeQShVRWDjJI59q6wnPPkSOgRhWbZt3w9SG46N0A0AjlyVZWLx38CLsWdNPabj3bEIle5Rq4jytrbQIlF3K7xEiLECQgBACAEAIAQAgBACAEAIA5QAiktu8o9qO4tC77isK4pO6bVqbsjUZJfG26gnBHWlQ6FJPQQcgiJ4c3FppltzLLabOqV01QtaJaXtr3LW1rtb6GFPtSdzSCEioSHFg8/61sdJQcjygnB8udUNaqlbTlHTHQ+p0dqm0vu29jN5Yx1xcHuMNIea/6A3xpHfju6Pa40lmttgv3XaiOUtX5ZJBcUhvo7djJIGCT3Se776CBvXb7r9Yu4axGbxsx9TTrSu0VKmPkCZp0x1tuJ8XI8KuhQ5+MCaBs7pioMwAgBACAOEAIAQAgCF2tutN+7mL5nNse2CfLNOlz2m9b1Z7piQYUeFcuwr0yyONJI5k8hgBSgBJLRLRSxtBLEkrCsSn9qlpYccxNOYMxOPq7951fSpRI6OgAADAAEA9m89vP1CSpcm/UKjNNS0tLNqdeddVwoQgDJJPUAIpKSgryJ4eHLGkoYau2Vq7ut2k7qvNzFg2FOuy1qyyyiYmUnC6ioHrxjDQxyBHdA5PVGI5vm3dlqU50doBoBHLUqvMF476+gi5GO2vvNvpKOxCClZE0riJJ3JCKpERFQIAQAgBACAEAIAQAgBACAEAIAQAgDlFArI7izLwuKwrilLqtWpOyVSknAtp1B6R1pUPTJPQQeREShKUZXTLVnGTU+cU88DHh4si0nbZuZt7Xight5bchc0k2n0fTivPPrda+2QfXyDkHy5zQ1vfK2nKel+htVo5UPY3h9DN6xcrGGkOtwm3q/NK77md0e1mTT8sPCV3PaiU/wA1rsvkFxaWx/W4GSBgqPdJ7rIXUG9tvu4GxtxFiM3jZr623mVCXqdMmOUzTpkDJadT7eFDkoDl1gAbOBB6IAzACAEAcIAQAgCF2s+tl+bmr7mtse2GomWp0ueC9L1ZUosSLGe6l2Fp5KUrBSSlWVElIwApQAknopolYugliyliWHTgzLsgLmZpaQZidfwAp51QHdKJHrAYAwABAXttPaT8/I0mRfqNRm2peWlm1OuuurCEISkZJJPIACKSko7WTwsKVVJQgrtlau7XdtOaqzr9iWHNOS9qyyyl+YSrC6iscs5H9UMJIB6cZPUIwrOM474fe8To7QDQBZclV1ivN9fR/JF9MWjoNxbtiMRGSAikSSVhEyj2CPNuzKCPQCAEAIAQAgBACAEAIAQAgBACAEAIA5QBmCnqi53Fn3lclgXJJXXalSckqjIr423EHkeWClQ60kEgg8iDgx64dVLDkrFqzPLKXPKV01Ur6xaVtp3L25rvbqGnXWKfc0igGoU8uDJOObrQ6VNk/nSeR6ic1oa1VS2nKWmGh1To5UvZfD6Gbw4uKLmYcQ+3AaAX7pPfru6bayzwV9GXLptJoES9flv6xaUA4L2O6IHNRAUnux3QG89vuv8AY+4ixmbws+ZLMyzws1WlPLHommTWO6ZdTyPSFcKsAKAzy5gAbRgBACAOEAIAhZrZrdfO5a+pvbFtiqJl5CWPar1vVriMvJME8K5aXWnvlnmnIOVEEJISFLAEltFdE7B0EsaTsOwKUmWlWBxzEwvun5x89+86vpUon8wGAAAAIB7N57WoVGRpUk/UqjNtS0tLNqdddcVwpQgdKlHqA6zEXKMdsmTw8OWNJQgrtla27bdtO6qzrtj2PMOy9py7hS8+lWF1JYOCSR0NAg4SenkSOgRiecV3fC1cBnR+gGgEctSq8wV5v4EW4xy3WbeSUdiESi7kxEiu4R5y3lbiPQiIAQAgBACAEAIAQAgBACAEAIAQAgBACAEAIoDlFNkSmw7e0LvuSwbkkrrtSquyFSkV8bTqMHPjSoHkpJ6CDyIj0w6mUJKxas5yanzmndPjrxWWl7atzFA1yt3tbgbk7kp7QNRkuPOT/wB639sg5HiIJ9YnOKGuVUjlnTHQ6p0bqXs+7b8V/Q3lyWMKTy8Ri57jCCHu4Xb9fGk18K3T7V5RDVwsfRLsthA/m9wSoIK1Jb6O3YBJxzJ7pPd98BvTb5uCsjcTYbN42hMKamGSJeq01/CZinTQ75pxOSRzBKT0EY68gAbPBzAGYA4QBCvWzWu+dzt8ze2Pa9Ug1S5cli970bJ7RJMKUULl5dQPdrICxlPfHISQApQAknohovY2gdhSdgWHTu0ykt9EmJhzm/OPnvnnVemUT+YDAGAAIC9tp7ioVCRpUi/UajNtS0tLtqddddWEIQhIySSeQAAiknqq7J4WFKqkoQV2ytLdpu5mdV6i/YtiTLrNoyrhS/MJWUrqSxyJPPk1yyEkc85PUIwvN63vl6sWdHcn+gCy6Kq6xeO+h9H8kYItF3Y3Fu2IR5yAhErYRMixEGtpS4iZIQAgBACAEAIAQAgBACAEAIAQAgBACAEAIAQByim8CKWSKN2O4tK77hsK4pO6rVqDkhU5FfGw+jpB6wR6ZJ6Ck8iI9oTcGmnuLdmmV02d0rpqlXuWlbaNzVva7W+mXmFNU+6ZFA+SFO4geWMdta+2bPrkg8j1ZzagrlVI5Q0w0PqdHKl7L4b3M3kCFCLmYaQ93Aber90pvtzdJtWlg3cTWXLotdvlLV6W6XClscu3HviBzURkd1kKA3lt83A2HuLsdu8rKmltusKDFTpsxymafM4yWnB7ygMKHR0EADaUAQ53Kapak6z6onZ7oBPGmzC5UP3xczZz8ipNYB9DowQQtYKQrBBPGEgjuiAJBaLaI2NoNY0pYliU5DEsz3czMlAD86+e+eeUO+UfaAwBgACAPaz07J0qTen6hNsS0uwguOvPLDaEJHSVKPIDyxGclBXZPDw5Y0lCCu31Fa27jdvO6rzrtjWJNOS9py6ih59KiHKkoE4J8TY5EJOckZPUBhldm7qW4xOj9ANAFlqVXWK83t4fvxIvxad5t5LV2IRRkxEU7ldwiSK3EUIiAEAIAQAgBACAEAIAQAgBACAEAIAQAgBACAEAIAQAgUOUEk9jFkdxaN5XJYNySN12pU3JGpSDnbGnUHp5YKVDrSRkEHkRyMVhOVJJPBZas5yWmzqndPULxS0rbNuZtzXW3ksPONSVzSTYM9IceeLPS811qbJz1dyeR6s5zQ1yqltOWdMdDqnRupey+G9z+n/283nkRc9xhBDjcboTeOjN3TW7TbMn0NW5NJmLsthsEStelRzdWEAgB0JyogdJTxDCxhYEi9EtYrb120yomp9opKZKsMcS2HF5clX0nhcZXgd8lQIz1jB64Ajr2NeTauKxdQNZaiA7Xr3vOedm5hY+idpaCeBsnqCVOO8vLAEwT3KSo8sDMNxWK1mVobuN2dQ1TqMzYVmTC5a05R1TUwoEocqS0nHEojmGs5wnPPAJHQIwjOM374fe8TpDk/0BWXQWY1avN/Ai5yzFpS2G4bpKyESZUR88r3K2ESSISdhEkmjzeNBf7IRI9FOL3MRQkIqBAo2lvELMprR6xCzGtHrELDXj1iFmNaPWIWY1o9YhuK3QgVEAIFBCzIvEgt7QhZhYkHuaECYgBACBS6ELMprR6xCzGtHrELMa0esQKpp7hAqcoAEZihRuy2nbWhd1w2HcMndVrVJ2Rqci4FsvNk/nSodCknoKTkER6wk4NNMtuZZZTZ1TOmqV4partf3E0rX60HJxUuqUrlL4WqnLYwjiI7lxrxoVjo6QQR4ic3oaxVUTk3TDRmejdY8L/R81/ubpcbbdbU06hK0LBSpKhkEeKLkYiU13fuGu/ahqxqXo/YLswzQ5S8KhOyjDXEUS7bxQUtDB6EpCRz5wBNXsWnguq/Kep++3AoyXE59Svexq96KS2JnpTc+PEo7rgxWJ38Yd+GY1nVR++bO5Mma8HQ4I+SJI+kR5ybS2E3sO/saw7r1IuKXtazqQ9UajMZKW28AJA6VLUSAlI6yTE6OEqp2SLTnWd02TU7qKh6sUTt0j7HZY9GlUVHVWoTFcqKsKVKS61MyqDz5EjC19XPKRy6IyyjyZJXxjn/SLlUraubjQLVh8TftN22aEUuWTLS2ltvcCQEgrkW1qOPGSCT+cxcPBtO9moYHPSvN8d63dmeeu/Zvt7uyVUyvT+TpTxB4Zilkyq0/mR3J/8ySPJEZZTTTVtU+2i08zyhkrYza9tv8A9IZbgNj93aUSb1zWM+9clutZU4kNJTNyyfGpKcBweMpGRzOMRjtbkkqbxou6N1aL8puFm1qWr8TE+HaRjiyyVlY2zCSlFST2Ehtk+ltj6sak1eg35QkVSSlqK5NNNqdW3wOB5ocWUEHoJ5Rdcmo41UnrGruU/O6zJqfCxqOerdk3v5Fe2/73rP63MfHjKfBlOug0j9oWe/nPsX7AbK9t5/7PWv1uY+PFHllP1D7QM9f/AHPsRn+RVtw+941+tzHx48vB1P6o/rzPH/3PsQ/kU7cPveM/rkx8ePRZdT+oU/rzPPzn2IfyKdt/3vWf1yY+PFXl1P6hX+vM8/OfYjyeqm0Pb9QNNrkrdMsFlqckabMTLDnop88DiEEpOCvBwR18o+Gqy6n7g2kXjJtOs8qswwsDGxvFbSexFYwOYxF77HUuG24J+w+ulUmqV2qStGo0g9OTs66GWGGUFa1rPQABFYxk3ZHzZhXwy+DqKl2RNrRbsd7c3KtVrWiqOoWrhWKNIrA4Tz5OujOekck4/CMZPRZRsvjGitI+Vabk8DK/1fsScoO2DQS3mktSGltCVwdC5iWTML/Scyf84u3gumW5GtqrS7Oarn4792z5H4XHtR2/3NLKZnNMaPLrV/XSTXoVwf8AmbIPt8oPK6e24UumWc0jusdkVNc+x7VG3ZaZuPRypTFVYTlxdInFp9EgdfanOQXgelUAcDpMWCtyjpwDaWjfKpKoaps2/V0fwQ2m5SZkZl2TnGFsPsLKHG1pwpCh0giLC4tOzN6YWLDFgpwd0z8ooeu87W05GWqd0UinzbfGzNT8uw4noyhbiQoZ6eg9UIc5ItWdTlSUmJKO9ItMRsn21lCSdOmySBn+fTP8SM6jlNPbccqS5QM+Ta7u+xfscv5E22r73Lf69M/xIr4Kp+oj9oGf/nvsX7GP5E22n73Lf67M/wASKPKqfqH2gZ9+e+xfsdFcmwHb5WmFt0ykVGiOqB4XpKdWSk/gucST7UeUsop2rFyo+U3PaV7Z6xEzXLZDqFpZLP3DbLxuagsd084y1iZlkjpK2gTxAc+ac+UDpix1uVSpfGjtRt3RjlQo82tTVa1JvsI4EYOD1RZrbbG0YTjiJSi7oxFGSRmJXRCSsyc/YyzhF+eySfvOxkeRJ2n7jQHLIl3XA9/0J3Rkxo4oT3seFfqf5+d+CmALLOxZ+C4r8p6n77cSZRkt5v6ke9jVEZPeelP5RcSjuu/Xmd/GHfhmNdVa+9Z27kzfg6HBHyR53sXWKP1lJSZn5lqSkmFvTEw4llltAypbiiAlI8pJEIRctiPnrMVYGG8RvcWx7YdAKJonYko25LsvXHUm0vVSdSkcXEe6DST9onIHl5nr5Z3RUcaXAWzaciaa6VVGf5g0392m0l9Tdac84uGtZGHbGth+b03KsYD8yy3no43AM+3Ee6Jb2VjhY0+ZFv3H6haV96Un1jFViIi1NH5utocTwLSlSSMFJGQYN62wRliRd0Vp74NvcjpjcjF+WlJJYoFwTDgeYaRhuVm++UE+JKuZA6sK6sCMRzmiVK9ZbmdL8mWlPhWn8G1L+8h8UfR2OiYl5fV+uLmZhtlJoDicrUB/Xs+MxXJJKGO10WPn5XcKeJQ4Sgr7f3LG/k3R/VaUP/WT++Ms1o9a7TnnvCp6YPsZzaq9MecS0xPSzi1dCUvJJP5sxTWj0MSo8bDWtKDS4M+0HPVFT52flMTcvKoLsy8hlA6VrUEge3FG7byUMKeK9WCu/YfMazSvVWTH/XTDXj1rtPTvKqe6D7GeF1vrNJc0ku9CajLKWaNN4CXknP0JXljwqnHuEtq3F90eoqlZlg3g+cuhlOHljX0udY7Jg1DCTl0L6Fj2xvbjT7MtZjVO6JQTFfrrQekg6j6klFZKOEHmla0kE9YGB485bk9CoLu0ltOaeUrTGWYVToKaX3cOrpf8EsgOExkHQaquntDs3KyiC5MvttJHSpawkD248ZSS3sksOc3aKufq2808kLadStJ6Ck5isXfcRlCUXaSsDzHPoj0SKIgzv526ShkF622hIJbflyluusMt47cgkBMxgdKk8grlkjBJ7mMWzejv9+kbq5MdLZQx1lVS7p839v2IIRjOsjohHe2J/TWgedJT9qmJ4fPRaM+20WLfq+hdw19KR+CI2WtxxLLnMw882y2XXXEoQnpUo4A/PBtJbSkYym7RV2fGK3Ss/XST/wAdMeOtHrXafR3lU+o+xn0tzbDwBZcSsHrTzEekZJ7meEoShskjmpKVJKVJBBGCCOmJNXKJuO1FcO+nbhK6e1hGqVoSCWKLWZjtM/KsN4RKzKgSFpA71C8HPiV+FGHZtRd73x0jobky0u76wvB1S7zjuv0oiXFhk7m7EIo77CMt5OjsZYym/cfbyfvPRlmRc2fuNAcsnlcD3/QndGRGjShPex4V+p/n534KYAsq7Fl4Lqvynqf+3EmUZLac+pHvY1e9EJdJ6UvPXEo+rv14nfxh34ZjXdY/vGdvZMv8dDgj5I+VvbcudzemyqypW9dwdBbn2UvS1HQ5VlIUeRWzjtZ9cOFB/NF4yda9QjXPKfXOkyOaT2uy7WWvBGAADgDqjPLbLHKj27TSm7HXRzQnTVVWpSWnK7VXvQdMQ5zSleCpTqh1pSketxFIPTFszSrVJg3W8y7QrR3+ocwWC+ZHnFW9135eV81N2sXRc9SqE44c9temFK4OvCU96keIAACMNlWSl0nUVFkGW0cFT4WEuw3Lts3UXppRc9PpFxVueq1qTTiJeZlpl3tplEqUB21oqyQRnJTnBHF1gEfRQ1zp5JNmG6acn9NmNLKqpEliJMtMQpK0hQ6xmM8VrHMklbYal3VWXKXroJd1Oelw67JyDlRluXNLzCS4kg9R7kj1iYteaw75p2jIdCq6WV5zhY197t27PnYqLQ440T2txaM9PCsjPtRhetq3SOxlCGNBa6Tuuk/RU7Oo7yceH/UV++Pnc5rpZ83gyj9RdiNp7Wp+eXuBsdLs28tJqqMjjPPuFePMXTJpydSrsxHTvL6XDyDHlCKTt1Fvic8ucZwckPeRo7IM86zt/fWy6ttfyVk8FJx6cx8GbPUpmbE5M8OM89gpq6sysn5ITn3S9/iq/fGC68m951N4Morcxdg+SE590vf4qv3xTXk97PLwdSRd4xXYei0rtn5ctSLZtdaOJmp1SWl3hjOUFYKv/wAQY+qhWvUwRa9KKvvHK8XH6kXRU+VZkZNiTlmkttMtpbQhPQlIGAI2ErJWRxriyeJNyl0nktYtSKZpFpzWL8qiO2IprIU01/3rqlBKEAnrKiP8z1R89ZUqlwnNn26P5TLOK/Doo/7P4FS+pWs+o2q1afrF33LNvh1ZU3KNuqblmE5yEIbScADxnJPWTGCVdbUVT2M63yfQ7Lcsp1g4eGmztNHtwWomjlflajQq/OvU7twVO0t59S5eZbJ7pISrPArGcKTgg+Mco9KCsx6Vq7Pl0o0Hy7NKR6uGlNLeW22Vd1Mvq1KXdtGWVydWlGppri5KSFDOCOog8j5RGdQx4zSZyVX0M6CqxKbG3pn7XbQJG6bZqlu1FlLsvUpN2VcQroKVpwY9JRjKLuhQVToqvDx4vc0yk6t0x2iVieo0wrL0jMuSznLHNCik/wCYMa3xElJnbmWVSq6SGN7EfdY39NaB50lP2qYjh89HyZ55li8PoXcsfSk/giNlrccSz5zNTbr3HW9vN8LZXwLFKcwenrEW/M3amnYybQyMZ51gRluu/kyov0dOfdT3+Kr98YI5S6zryOW0bgrxW7qNgaRa+6kaO1yXqlv3BOPySXeOapj7xVLTCD3yeE5CVH7Yc8gdI5H7KGulSyW0xrPtCstzaklq4dnt3by22w7vpmoNl0a9aGpSpKsSjc20F98kKGeFWOXEDkHygxnsJKaujk7MKKVBVYlNi74ux0uullMagaS3RazzKHFTlOe7TxeleSkqbV+ZYSfzR89clKnkmfbozWSy7NcLGi/9l8dhTPGvZb2dqYEtbDjL2I4w2XJS3k6uxjd7f3skl7z0ZPkW6fuOf+WXyuB7/oTujIzRxQnvY8K/U/z878FMAWVdiy8F1X5T1P8A24kyjJbTn1I97Gr3ohLpPSl8ouJR/XfrzO/jDvwzGt6u/dWdw5N6OhwR8cRPrJS9jq+zrOeY3/2rUXjR9Xx3c1Pyu+io8UWZdUZsc0EEOybE8VjJKjw8M+SM8sgNfvjFdIZXUTd/I55TGv7CCqYxlJM6GSP0hDbNHz1O3BmvY/kXSWZctBFpUZTlZkypUhLlau3p5q7WnJ6Y2RDEjqrb0HFeZZbWOsxWoPnPofWfHqfcdvv6bXSy3WpJa10ebQlIfTkksqAwMx5VUo97vaj0yjLqtZhg3g+cuh9aKZY15KTuztHA2YUeC+RyIzDVseptTa0n/iCsfn/aiPgKi55P5zAw7T78P4/At+QDgetGdo4+e8jN2Qnnt8fP/NZP4Zi1Z5spjYvJj6ehwZWJGCJ3OqkI9kDa21bwgrHHjqif2az/APEfZlMb1EDDeUR/4DG4FvwAwIz1HIbZGXshLjqNA1BtfCFVaVCvKBxHHtgRas982NjclSTz+F+plY4OYwRM6rMEZj6E7lJbi2bZj4NlmY6peYT7Uy7GcZSk6aDftOP9PElpBUJda+SN2Od4r1jFzZhkecilbVlOdVrzOP7fqH+ocEa8rUtd+87T0X25XhcEfBY39NaB50lP2qY+XC5yPqzzzLF4fQu5Y+lJ/BEbMW44lnzmam3Y+DvfPmpz3xFvzPzaZlGhK/zuAva/kyoSMDOxMNeKhFLK9z0bsmWybKvButH2F79suM4yZt0+04/0/j/yDGXD5G6ap9b5r2FfvRc8TmMxOm8vDiUZuK4HVN46I1nic5ncNFeWDDgvkYijvdH1S3k6uxjd7fvskl7z0ZZkW6fuOfuWTyuB7/oTujITR5QnvY8K/U/z878FMAWVdiy8F1X5T1P/AG4mGS2nPqR72NXvR5y6SdLz1xKP679eJ38Yd+GY11V+VZ2/k3o7D4I+OPlLiST2AVyWpGvrUrMO8CqpS5mUaGOlWUL95BHrkRkGj1u72uaq5WKSWPlOsv8AX9y0MGM0e05h3ER+yIaZ1i7dOqbeVIlnJkWw+4ubbaRxLEu6EhSwPEkpTnxAk+ljH84pHLAujanJXnVPQZjKnqHZT+hW8EY8kYY1q7zp5SU1eO4/RPXEolGk9hmPbujXSfO6Cnk7yiuw4x5ynLrKrLqWO3VV+AikT23bhE1YmbU2s+EFY/nVHwFR9+T+cQMO0+/D+PwLgkjlGdo486WRk7IT4Pj4/wCayfwzFqz3zU2PyY+nocGViRgZ1YhE4lTam1Xwg7H86D9k5Fzyhf3EDCOUV/4HG4FwY6B60Z5Y5DZGHshf2Az52lveXFmz1/2xsnkp/EEODKxoweMbnVTEeyKPcWzbLznbXZ3sUz/qXYzrKfNoHIGnv4hqOK+SN2ud4r1jFyl0mFx5yKV9Wvsq3p+UVS/1Lka8rWtd+87T0VX+KweC+R19jf01oHnSU/apj5cLnI+rPfMsXh9C7lj6Un8ERsxbjiWfOZqbdj4O98+anPfEW/NPNpmU6Eenqfi/kyoSMDZ2LG2qhFCMtxbHsrP/AA3WmCcYQ+n/APcuM5yVf25yPygK2f43u+Ruqp/W+Z9hX70XLEfiMw+m8vDj9SjKYB9ErMa0nzmdyZd5GHBfIRXYe895OrsY3e397JJe89GT5Fun7jn/AJZfK4Hv+hO6MjNHFCe9jwr9T/PzvwUwBZV2LLwXVflPU/8AbiYZLac+pHvY1e9HlLpJ0nPXEo/rv15nfxh34ZjXFUn3VncOTejocEfHFEj69qO9sO76hYN50a86X9U0ecamkJ+3CVAqSfIoZSfIY9KObhUJltzygjm+W4tNjf7IuU0/vmhajWjS7ytybS/JVKXS8kg80q6FIV4lJUCkjqIMbCpqlVEbo4uzfLMfKquVPjf6s72bYbmpdyVfaQ408koWhachQPSCOuPeUVJbT5cPE7nJTg7NEadU9hukd8uTFStMu2jUn1qdcMr3cq4snJ4mVHueee8KenoPKLNWZJT1TuthsbI+UvNsntHHevBde8h/qbsv1v017dON0JFxU1s59E0gqeUE9XE1gLB6egKHLpixVWUY9MvF2o29k/KPlOa213qTfQzRa0LbWUOJKVJJBBGCD4osr1o7zY2HjQxVeEkz84orHrvEVKCKtMmbU2s+EFY/nVHwFRcsn84gYdp9+H8fgXBp70etGdo4+e8jH2QrwfX/ADrJ/DMWbP8Azc2LyY+nocGViRhUTqxCJlTam1XwhLH86D9k5FxyjziBg/KJ6Bxi4EdAjPbHIzRGPshn2BD53lveXFhz/wA2Nj8lX4ghwZWNGFy6DqpiIkZbmWy7L/Brs72KZ/1LsbByjzWByDp7+Iajivkjdzn0tXrGLjLczDI85FK+rX2Vb0/KKpf6lyNbVzfdHxO19FF/isH/AMr5HX2N/TWgedJT9qmI4S2o9c98yxeH0LuWPpSfwRGy1uOJZ85mpt2Pg8Xz5qX74i35n5tMyjQj09gP2v5MqEjAW9p2FB+Kj9ZaWenHkS0s0t191SW2m0JypaycBIisFrNWPPHxY4OG5SdrIuC24WJUNO9FrVtWrpSmelJFK5lI6EPOEuLR5SlSiD5RGwaCHe9OkcdaVZkszzXGqMPc38th7S86zLW3alWr06f5vIyTz7pz1JQTHpjNqDuWrLKd1NVh4K3tr5lIzh4lFR6TGuZ85nbNJHUwoL2L5HGKO90fS95OrsY3e377JJe89GWZFun7jn/lk8rge/6E7oyKxo8oT3seFfqf5+d+CmKAsq7Fl4Lqvynqf+3EwyW059SPexq96POXSTpeeuJR/XfrxO/jDvwzGuqu3dWdv5N6Ow+CPjiDLg7GDHi47bkXtN5bYd0Vw6DVdVNnmnKpa089xzUkD9EYUel1rPLPjSeR8mMi80Va6TfzTXWnOguBnuB3zh+LiL48Sy7TnV6wdVqcip2VckpUWyAVtJXwvNE88LaOFIPriMtpq7AqleLObs1yOsyiTjU4bXy7T2ihnGI+rZ0FmXtMLQkjBAPriPN26SadtxozX/ajYetlMmJ5qSZpN0ISpUvVZdsJW4rHJLwA7tPIczzHUYt9ZQ09Ut20zLRnTKs0fxYpy1sPpX7FX9+WTcmm92VCzLrp65SoU5wtrBHcuJ9K4g9aVDmD5fHkRh1ZRukdjqPJM5p86pVU078VnRA5j5ol3OMeisTNqbWfCCsfzqj4Co+/J/OIGHaffh/H4FwKegRnaOPHvIzdkJ8H1/zrJ/DMWjPfNjY3Jj6ehwZWHGDM6tQiUSptTar4Qlj+dB+yci6ZR5xAwflE9A4xcAOgRn1zkZsjJ2Qv7AZ87y3vLixZ75sbH5KvxBDgysaMKidVMRMpLcWy7L/Brs72KZ/1LsZ3lPm0DkDT38Q1HFfJG73O8V6xi4vcYXHnIpT1a+yren5RVL/UuRrisVsR8TtnRV/4rB/8r5Hx2N/TW3/Okp+1TFcK10eme+ZYvD6F3DH0pP4IjYy3HEs+czzOpFi07UqyaxZFVm5iWlKxLmWddlyA4gEjmnIIzy6wY8KnDVRguB92WZlLK6qFVDfEjL87T0l67zur/Elv4MWj+n6dmxlyr5olZRRsrSnZxo/pHVGrgpEjN1SrMD6BN1NaHSx4+1pSlKUnHLOM+WPspMnpqR3SMdzjT3Nc4j3DHlaHsN6p5DHii46ttxhb6yKW/jWyUtDT35mlJmwa5c44XkNr7qXkge7WodXERwgdYKvFFkzeqUIaqZs/kv0dxMyzCNbNeJDr6ytknMYezqOMdXYIbLlJbydXYxu9v72SS956MnyLdP3HP/LL5XA9/wBCd0ZMaOKE97HhX6n+fnfgpjyYLKuxZeC6r8p6n/tx6hktpz6ke9jV70eUuknSc9cSj+u/Xmd/GHfhmNcVSfdWdw5N6OhwR8cFuPtQijV0SSuYAxHiSe0++jV6t27OoqVAq87TZtsgomJOYUy6n1lJIIj1jKUNqZaa/K6SvVqiKd/YSR0u3+6sWaluQvFDF1SCMJ4phQanAnyOgYV4+6ST5YvtHnGMlaW41rnXJPQVbcqT7t9vwJq6IboNNtckCSoE07IVptvtj1LngEPBPWpBHJwDlzHRnmBGRUtbgVa2PaaW0j0NzLRyX36vDrRuBIB64+tpJ7DFW7bCIPZCtH5S4rFl9UqawlNTt5YamyhvunpRZA5nr4FYIz1KVFjz2kU4d26ja/JVpDOkzDvGT8SfzK6kxh0jpe99piJNMmbU2s+EFY/nVHwFRcsn84gYdp9+H8fgXAo7380Z2jj57yM/ZCfB9e86yfwzFkz5/wBubD5MPT0ODKwow1Kx1chEiptTar4QljedB+yci45R5xAwflE9A4xcFkxnhyG3tIxdkL+wH/6vLe8uLFn/AJsbK5KvxBDgysaMLl0HVTERIy3Mtl2X+DXZ3sUz/qXY2DlHmsDkHT38Q1HFfJG73O9V6xi4vcYXHnIpU1a+yren5RVL/UuRryuXjviztTRX0Vg8EfDY39NaB50lP2qY+fCb1kfTnvmWLw+hdyx9KT+CI2WtxxLPnMyrAimyOwja5jjR9sPbiVytmfm9MsS7SnnX20JT0lasAfniF1vJRw54j1Yq7I469b1dNdMJSZplqz8vc1yoStLcvKPhUuw7jA7c4nkMEjuAeI9GBFsrM3jSKy2mfaNaAZjnElLHThh+1bStq9r4ufUO5Z67ruqjk9U6g5xuuKPJIAwEJHUkAAARh2LiOrxbtnTuUZJTZNSxp6ZWjE6KPnnsZdlvERu2QlvJ1djG72/fZJL3noy3Id0/cc/csnlcD3/QndGSGjyhPex4V+p/n534KY8mCyrsWXguq/Kep/7ceoZLac+pHvY1e9HnLpJ0vPXEo/rv14nfxh34ZjXVXburO38m9HYfBHxxEuOwRC5S4hYqIkSMEZjwkrA7ez7rrVi3PTbst+aUxPUyYTMNKBxkj0p8YIyCOsEx9dG3CSLPntDTZrR4uDjroLsaLPIqlIkqk1yRNsIeSM5wFJB/+Y2FHakziirh3Golh9TaPI66UZiu6P3lS5r6U/RJ0HyHtKsH1weY9aFXZ4Ek+ouuj9S6bNMCUfWXzKZ0xrd72do4LvhxfsRiJKx7m1NrPhBWP51R8BUffk/nEDDtPvw/j8C4JHRGdo496WRk7IV4Pr/nWT+EYs2fr+3NjcmPp6HBlYkYadWIQKm1NqvhCWN50H7JyLjlHnEDB+UT0DjFwQGRnMZ4chtEYuyF/YD/APV5b3lxZM982NlclP4ghwZWNGFROqmImUluLZdl/g12d7FM/wCpdjO8p82gcgae/iGo4r5I3c53ivWMXKXSYXHnIpX1a+yref5RVL/UuRryua13xO19FbeCsHgvkdfY39NaB50lP2qY+XC5yPbPfMsXh9C7ln6Un8Ee9GzI7jiWfOZq/c1Wqrb2hV41uiVCYkZ6Upq1sTEu4W3G18QwpKhzBEfBmcnHAbRf9E6SFbm+DT4yum38irlO4LXJX/atcvug7++MMddVdb7TqaOhOSOK+5XYdRXdTNRbnR2m476r1SZJyWpifcU2T4ynOP8AKKOsqHvZ91LoxltJtwcJHmlZUckx82s5by9xhGCtFWOMeSdtxMRKIQiey5GW8nV2Mbvb+9kkveejJ8i3T9xz/wAsvlcD3/QndGSXNHFCe9jwr9T/AD878FMUBZV2LLwXVflPU/8AbiYZLac+pHvY1e9HlLpJ0nPXEo/rv15nfxh34ZjXFUn3VncOTejocEfHDoPssbn23bbZ3cTNV2Vk7saonyDTLKUpyTMx23txcHLC04x2vy5zH00dG6vcYFprpc9Fe5rU1ta/wN4/OzK399+n+5Kv40Xn+nla+sYEuWRr/pfaR43C6FzmgF4SdoztwtVlc5T0T4faliyEhTi0cOCpWT3Genri01lH3na5sfRDS3+qsGWMoatnY1dHx2M3YieF4skfJVbcGfB/Iu6sPHyk0HzbLfs0xsOHNXA4jzLzzF/9P5nxarY+ZpdefUWd/YqiFU/umTynz/B/9L5opUjW8+cztvA8lHgvkcYk0z6Dam1nwgrH86o+AqLlk/nEDDtPvw/j8C4NPej1oztHHz3kY+yE+D4+f+ayfwzFpz1f2xsXkx9PQ4MrEjCU7nViEGVNqbVR/wAQdj+dB+zXFxyh/wBzAwblEf8AgsYuBHQIz6xyO0Rj7IZy0EPneW95cWHPdtObH5KvxBDgysaMOlE6qEQasRluZbNsuH/DXZ3sMz/qXYz/ACrZTQOQdPvxDUcV8kbtc+lq9YxcZbmYbFeMilfVr7Kt5/lDUj//AEuRraub7o+J2lovdZVg8F8jr7G/prQPOkp+1TEcJbUfTnnmWLw+hdyx9KT+CI2WtxxLPnM1LuyGdut8+bFfCEfBmfm0zKdCPT1PxfyZUIBiMC3HZEOajnFCtxA8zjFESQg1cqhEbtsjLeTq7GN3t++ySXvPRl2RLZP3HP3LJ5XA9/0J3RkBo8oT3seFfqf5+d+CmALKuxZeC6r8p6n/ALcTDJbTn1I97Gr3o85dJOl564lH9d+vE7+MO/DMa6q7d1Z2/k3o7D4I+OIlxRNPsZtQl2rovmluKw9MyEm+geNLa3Qr9oIyDRv/AHTNF8tUG8Knmui5YCDmMt2GgCvrslFm1Fu77avtiVcck35E0p1xKchtbbinEAnyhxePwDGH6SJuzSN9cj9bCGHi0ze29yGPD5YsK3G+2zsbct+pXTX6dbNGl1zE/VJhEtLtoTnK1HHPxDxnqEeuHGTkrIs+b1sKGinjydlZl2duU9FJocjTEdErLts/ooA/+I2DFWikcWVuL3aonidbb+J5rWupy9J0hvGpzSuFpihzqlH/AKKvf6Pzx5VbtgO/UfXkGG8fMcGMfWXzKYY17q7WdrYKthRXsRxiVj6Dam1nwgrH86o+AqPuyfziBh2n34fx+BcCnoEZ2jjx7yM3ZCPB9f8AOsn8Mxas8f8AbGxuTH0/DgysOMEe86tQisdzKmy9tVTl6TrzY83MnCDWGWh+EvKB/mqPvyl2qYXMO07pnUZBj26i4lHNKT4wI2JfYcgS2M0Jves2oXjoLV2qXLqmJilvM1LtSRlSkNE8ePKEFR/NFmzeLnT2RmnJ/Wxos5w5ydr7CqY9MYW9h1zCSlFSQ6e5TzWe9HjiiV9xTGmsODlJ22Fwu2e1KhZOhdn25VklM3LSHG6kp4ShTi1OFJHjBWQYzygi408EzjPS+sjW51UY8el/JWNlzC+BhxWO9QT/AJR98tiuWHDWtJIpR1InmqpqHc9Ul/pM5WJx9s56lPKV7xEa2qvGxG/adq6PQ7nlmFF9CR+Njf01t/zpKftUxPCtdFc88yxeH0LuGPpSfwRGxluOJp85mpt2Xg7Xx5sV8IR8GZ+bTMp0I9PU/F/JlQkYEzsePNQgUbEAhAkIBCKNXZGW8nV2Mbvb99kkveejKsi3T9xz9yyeVwPf9Cd0ZCaPKE97HhX6n+fnfgpgCyrsWXguq/Kep/7cTDJbTn1I97Gr3o8pdJOk564lH9e+vM7+MO/DMa3qn98zuHJvR0OCPjiS3H17TbO1vVNOkes1GuSemFN0maJptS8SWHikdsPkQoJUfJmPty6r71xzC+ULKPDmUTw0rzW1e4t4l3W32kvNKCkLAUCDkEGM4U9mscjTg8OTi1Zo6K+bGtnUS2py0rupqJ+mT6OB1peQeRBCkkc0qBAIIIIxFZwjUR1ZI+zK6+oyjHVTTStJESK92NG3JmouTNv6lz8nKLOUS8xIJeU35AtKk59qLBLRxXvrm1qLlgrIRtUYOs+Nvobg0H2g6c6HzXydl3Jit3AUlIqM4Egtg9IbQBhOejPM45Z5mLjSUEaMxLSXT3MNIk8F+Lh9S/c3wDFwuugwXiRP7IJqwza2midOqe+E1S5VgOgKxwSiFArJPVxHCfzmLHntUow7it7Ns8lej8q7MO/ZLxIfN/8A3xK3AcxibR00lbYcY8pOxM2ptZ8IKx/OqPgKi55P5xAw7T78P4/AuBR3v5oztHHz3kZuyEnG317zrJ/DMWTPn/bmxOTD09DgysOMNSsdWoRIqfRT6hMUqflqlKLKH5R9uYaWk4KVoUFAj84hB6kk0fFmFJ35S4lO+lFyWiWpdM1Z01ot6U55ClTcsgTSEnmzMJGHGz5QoEdXLB642HR1KqcJSRxlpDlM8nzDEp5K23Zw6D3DjTUw2pp1CVoWClSSMgiPqcU1ZlmhOUJKUXtRE/UzseWnV31qYrln16ZthybVxuSjcul+WCs8yhBIKM+IKx4gIsFTkOBiO6NpZPyqZjQ4Cp8eOvbp3M7XRvYdptppXJW67hqD9zVaRIVLeiGg1LMrBylQaSTxKBxjiUoDqGecelFk9PS+0+TSHlJzLOcDvePiQ9hJxKQgBKUgJAwAOgCL1q9RrqT1trNP7qdWZLSTR+r1z0Rw1OfbNPpjYPdLmHBjIH/hGV/+WLdmtUqXAZlOhOUyzzM8PCt4qd2VGKcU4oqV0mMDk9d3Ow8KCw4KC6Eju7G/prQPOkp+1TE8N+Mi2555li8PoXcsfSk/giNlLccSz5zNTbsvB1vnzYr4Qj4Mz82mZToR6ep+L+TKhIwJnZEOahACAEAIBCKdJGW8nV2Mbvb99kkveejKsi3T9xz9yyeVwPf9Cd0ZCaPKE97HhX6n+fnfgpgCyrsWXguK/Kep/wC3AoyW84P5q97Gr3oPcz0placeJR7XfrzO/jDvwzGuKtfes7dyaVsvhwR8kUuXSxgjMec3Z3QlFSTTJrbRN5sjbMjK6Yat1FSJFrgYpNVcBIaT1MvEdQ5BKsYA5HkMxkeUZt/0Y5oLlB5PXiyeYZcvbKP1J7SdRkajLtzdPmmZqXeSFtvNOJWhYPQQQYyyDi14po6eHPDerNNM+tMVZ5Mx5Y89nSQ2mn9dtythaH0B2Zqs63OVlbZMpS2XB210/bK6eBA6So+sMnAj46utwKVXbMv0c0Rrs+x1GKtDplYqy1J1CuXVS8Z+9rqnC9OTyuSB9LYbGeFtA6kjPvnpMYNWVbq592OqciySn0fpVT4HUeZAxHle6L4I85O5U2rtZ8IGxz/zVHwFRdMo2VELmG6fP/j+PwLfUHuRy6AIztWOPXfWZGbshWTt9ewf7Vk/hmLJn/m9jY3Jjsz6HBlYkYedWoQKiAN27XtyFV0DuNcrMtOztrVRYNQlEAqW0r/vmv8AxDPMemHrCLnRVnejXUa8040HWk2A5wX3kdz6+JaBp/qJZuplAauSy6/LVKSdGeJs4Ug+JSD3ST5CAYzPDqoY6TicwZrk9VlOO8Cpw3GSPU9cfR0FrXOMkgdYEeXSeh4fVDWKwtI6G5Xb2rrEo2AQzLpVxvzCsZCW2xzUT5OjrxHlU1UaaN2XbJ9Hq/PsdYNNC/t6CrHcLr1cWu95LrVRJl6VJlTdMkQe5ZbPSo+NasDJ9YdUYPXVjqmdT6H6IU+j9OsJrx+lmrEx8MTNNU72xv6a2/50lP2qYnDnotOe7KLFXs+hdwwR2pPMd6I2WtxxLNeMzUu7Q/8ADpfGD/ZivhCLfmnm8zKtCPT1PxfyZUNGBs7HhzUIAQAgBAIRTpIy3k6uxjZ4b+9kkveejKsi3T9xz9yyeWwPf9Cd0ZCaPKE97HhX6n+fnfgpgCyrsWncbY5mWXydl7rqbTqD0oXho4PlwRAEu5hBcZcQOlSCkfnij3EsN6k0/aUp6lWdcli3nU7duqluyFQYmFqU04O+QVEpWk+mSR0EcjGv63DlHEd0dn6NV1NmuXQxad3skeaj422mZEkIgDKYnqtbiMoqSsz3unWuurGlhCLLvaoyUsk5EmtfbpfPsS8pH5gI++kr6il6TE830MyzNbvHwk32G35Tsh2vjLYQ+xbUwrrcXIOBR/RcAi4eH8dmHPklyuTvtXvZ568d7u4K7JZyTbulijNOjBFMlg0oesslSx+Ygx4SzioldF6ouS/IqSzcNd+1s0PPT9Qqk47UKnPPzcy+eN159wrcWrrUpR5knyxZnKUm7meUWX0tCrQicExOytY+lpMzHkUETiHsOztq5a1ZtwSF0W7OqlKlTXhMSzwSCULHQcHIj2w5PDaa6C3V1FgZtTumqFeEt5tr+WpuUUMDUQj/ANPlviRclm9QlvMP+zXR+/k/izzV+7kNZNT7fXa98Xeqo0xTiXix6FZbBWnvTlCQeWTHy1VZj1exl4yzQfJ8mxe+aXDtNdNzWsfGZUIqBADn1GKNXKpndWjfV42HUU1W0LkqFImQQSuUfU3xgdSgOSh08lAiPSNbKl2plnzXIaPONlRhqRvei9kA3BUxlLU5OUSpqQMB2akSFn/DUkf5R90dIahmA1HJNlM5bPF7T5bj367ha+wuXl6xSqQlXppGQAWPWU4V4/NEpZ1UNHvSclWTU7TlHX4t/LcaMr9z3HdtRcq9016fq064SVPzkwp1ePECrOB5OgdAxHwTqpTe1mfUOTUmUYHcaaCR1nD5Y8tZNn3rYOHyxS9ya2H6yc1MU6el6hKOlD0s4l1tQ6UrSoEH/KKp2dz46yCqouD3M3SN6e5ADhGoHLo+oJf4kXOOcVEd7MJfJtkD29z+LOnujdXrtedvz1r3FexmqZUmizMsegmEhxB6RkIBH5jEanN6iqVmfVQ6B5PQVMKinw7TjxNURbl7TOErKwipEQAgBAIRTgQxHZ3LA+xs2jcdHte6LsqdLel6bXHZZMg66OHt/aw5xqSD0pBWkBXQeeOiMsyOLUW2c28q+YU9ZWYeBhu8o3v7yag6OUX81CUM7z5aZnN1Wp7spKvPoFwPIUppPEAoJSCnPjBgCwPRWvy+0nc7eGgd5vIp9p6kVJVy2fPKSRLCbdwHZZSzySo8ITjxoT9uIAnD0xKwNLbktuNta8272p1KJC4ZNKjTqiEA8KiO8cHWg458sjAI8vxVtFGqRmGh+mFVo3Uppt4b3x/YqxveyLl07uWctO7Kc5JVGSWUrQocljqWk+mSeojkYwKcHBtNHV+SZ3S53SqowHvOhjyht3F03mUx6LYDEecrgRRK4EegEAIARFxuBEgIJ2KCAECogBACAEAIo1feBCyG8RUCKWAhuAioECggBAqIAQAgBACKPaijajtZKHaTtKntV55m+b3lnGbQYUFsMkFLlTUDkDyNdRUDz5gdZi9ZPRd8PWmjUGn+n6y6Lo6N3m9l+osqptMkaRJMU2nSrUvKyyEtstNpCUtpAwEgDoEZnqqNrHOWLiTxpuc3ds8Nr7rdaGgGm1U1Bu6dCG5ZlSJKVQodunZoj6Gy0k8yonpOCEgFR5CKM8SNe1naii7NNZjUvWykIXdN/Vmcuh9tQKVMtzRSpCCMjBIHHjq48dUASN1+0BsTcVYb9jXxKEAHt1Pn2QPRFPmB3rrRPQeQBHQoZB8YqlYEfNA9fb60Nvpna3upqBNQJSzaF2Ok+h6xLg8DbTjhJw5jhwVYOe5XzwpVQTMIzFGDTO5DbdbWvdsuNzCEStwyaCadPhPNvlzaV40Hn5QTkR8VbQxqYmX6H6X1OjdUmn9234y+pVbfNkXPpzc05aN3UtyRqMkvhWhRBC09S0EclJOORHTGD4mHKkbTR1bkmdUud0qqKd3udImPk1nPai7oxFYgRNK4EAIAQAgBACAEAIAQAgBACAEAIAQAgBACAEAIAQAgBACAEU2bijdt5KDaZtGntVpuWv2/JZ2UtCXcDjLRyldSIPejoIa6Mn02MDrMXzKspdR40uaai5QtOoZcnQULvi9Nugssp8jKUqQYptPl2mJaXQGmWmkBCG2wMJSkDoAAAjLYxUFqo5vxJyxZuc3ds8ZrXrXYmgdiTl/6gVL0PJS/cMMtjiem3yCUstJ9Ms4PkABJIAJj1PO5GXRTRW+9z99yW5/c/S1ychJqDtlWS4My8iyeaZl9B6VnuVAKGSQFKAASkUZQmoE8umIg5R6WsDWuv2gNh7ibDmLIvaTAWAXKdUmkD0TTpjlh1pR6DyGR0KAweqKAj1oLr/f2hl+tbWt1LyvR4IatK8HVkS1ZlsgNtuOL5dsAISDnORwq54KqWBNEEEZHXCwNKbj9t9s6628UuJRI3FKJUafUUoysKP8AVr+2bPWOrpj4a6hjVLaZhohpjU6N1Kad8N74/VFWd62RcmntyTlqXXTnJKoSSylaFDkoelWk+mSRggjl7UYFiYbpW00dX5HnlLndKsendzoY84PW2ougj0QOMUAgBACAEAIAQAgBACAEAIAQAgBACAEAIAQAgBACAEAILaUbttJQbSdpc5qxPsX1fEqti0WFhUsysYXUlg5xg9DXI5UOnmAekxfKLKO+LTluNQaf6frLU6Ojd5vZwLK5GmSVJkmKdTZZqWlZdAbaZaTwobSBgBKRySPIOUZbFaisjnGeLLGm5zd2zxWtWtVi6CWLOX5ftSTLysukplpZKh2+efx3LDKfTLPtAZJwATFTzbI1aL6L35uevuS3N7n6U5LUqWJcsqxplPExJM5yiZmEqA4lKwFAEZVkKOAEpErECa3TFSRmAOESTuBCwNb6+aCWFuJsKYsW+pIlOS9IT7PKYp8xggOtK8fPBSeShyPVilgR70G19vzQi/JbavuomwqfWAi0bvcX/NqxLjuW2XHFAfRcJABPPJCVc8E0aBMxQCgCOfWIiDTG47bfa+vNsGTdl0SdwSqFGn1EZHAr7RwDvkHl1EggEY6/hraGNVEzDRDTGq0bqk7t4fTH9iq69bKuXTq5Z20bupjkjU5FfC42rvVJ6lpPpknGQfFGETwnTNpo6tyXOabOKdY+BPWjI6SPK+ttRdjjHnqgQiBEwIAQAgBACAEAIAQAgBACAEAIAQAgBACAEAIAQsUb1drJPbTNpFQ1Xn2L6vuWck7QlnAtlskpcqZGTgDH0rOMkHn0DrMXvKcqdQ9aXNNRadcoUcug6Cgd8R7L9RZdTpOTpco1ISEq2xLsIDbbbaQlKUjkAAIy6MVDYjnDFxJ403Obu2eM1u1usXQGxJu/b9qHaZVj6HLyyCO3zj571lpJ75Z9oAEkgAmKng3YjRovolfW5y+JLc7uepvoemy/A9Y9lrKixT5ckKS++kgcazhJHEO6PNQACUiSKXJpobS2kIQkBKQAABgADoAEVJHOAEAcIAQAgDWuvugNhbirDmLGvmUIAPbpCoMgeiKfMDvXWifWGUnkocj5KoEe9AtfL60LvmX2u7p3w1NYRL2ddq8+h6wwDwIbdcJOHOgAqwc9yrngqjYgTOWnPXFStjSu5DbfbWvVsONTLbcpcUmgmn1EJ5oOOba/tm1c+XSCSQYtldQqq3mYaH6X1WjlUtv3b5y+pVpfVi3RptdE7aN3UtySqEkrhUlXQsdS0noUk9IIPR4owmtg6N2sdX5FnlNnVMqinetE6GPNbUXUQKnGAEAIAQAgBACAEAIAQAgBACAEAIAQAgBACAEN5RvV2slFtJ2jVDVeal79vuVclrSZWFy7KkkLqSgcgYOCGgQMq6+YB6TF9oaF1LUpLxTUGn3KBHLk6Ojd8V77dH82LLJCmyVLkmKdT5duXlpZAaZabSEpQhIwlIA6ABgDyCMtilFWRzhPFniSc5u7Z4jWzWqw9AbEnNQNQKoJaSlgUsMIwX5x8juWWk+mUfaABJIAJgQuRq0U0Wvzcxfsrua3OyLkrISyw7ZlkuJ/m8izjKJh9B75ZylWFDJIClYASkSSIE1Rz5xLcSMxQCAEAcIrawERAiQEQYNa6+6CWPuHsOYsi85RKVc3qfUENgzFPmMYS60o9HVkdChkHxiRREedAder90HvhjaxulfWZxKu02jeLx4ZatS/9W2tasDtgGEgk5yOFXMAqE0iZ+MdcAaY3H7cbZ19t0svpbkbgk0qNPqKUZWFHobX42z4uogGLbW0MatbTK9ENMKnRuputuHfxo/sVY31Y9y6b3LN2ldtOck6lJLKXG1DuVDPcrQfTIUOYUOXT4owisg6R2aOsMkzumzmmVRTvxZHRA5jyi9dXLscYqBACAEAIAQAgBACAEAIAQAgBACAEAIAQAha5Ru28k/tI2kT2rM4xft9ya5a0GFZYaUkhypKBHcjow0COZHfYwOsxe8qyp4/jS5pqHlC07hlydBQu+J026Cy6m02So8i1IU6Wbl5ZhAQ0y0kJQ2kDASlI6B5Iy5RUVZHN+JiTxpuc3ds8VrbrhYmgdiTt+37UO0SsulQl5dBHb51/GUstJJ7pZx6wGScAExU8m7EadFtFL+3MX5Kbnd0FNXL05k8dl2PMIyxIM8QKZl5ChzUrCVAEZVyUcAJSJIpcmmT5ImlYkkc4iBEWwIkBAHCAEAIAQAgDW2vmglibiLDmLHvmTOAS9T59rlMU+ZxhLzavH1FPQoZB6sCqdiPegevWoWhd8y+1zdZOhU+oJRaV3OLxL1aX5pbadcUB9E7nAJ55wlXPBIXJm8umBQ0vuQ232rrzbC2Hmm5S4ZVBVT6glPNCvtFj0yDyz1ggERbK6iVUtqMv0W0uqtHalWd8PpiVYXtY1yadXJOWldtOXJVOSXwuNqHcqT1LSfTJPUYwieG6VtNHVGR55TZ1TLHwGdFw+WPNPX2ovY4fLFSpiAEAIAQAgBACAEAIAQAgBACAEAIpuAij2rYUbttJRbSdpk3qrONX1fMu4xaMutK5dhSSldTUDnHVhrqJB7rJA8cX7J6Lvnxpo1Bp/p+stTo6N3m9l+ostp1OkaRIMU2myrUtKyzYbaabSEoQkDAAA6BGXJKKsjnDFxZ403Obu2eG1w1xsPQGw52/r/qaZaUlwUS8ukgvzr5HcstJ61H2gMk4AgQI1aL6JX/ALlb9ldzm5+nmWp7CkzFkWW4T2mQYJCkPzCOhSzhJHEO6PNQACUiSViBNVACUhKQAByAESasSOUUbAiNwIqgIqBAHCAEAIAQAgBAGt9fNBLD3E2HMWNfMmcZ7dIT7KR6Ip8wO9daUejoAKehQyD4wBHnQbcDfWhd/Sm1ndPNgTK8MWddywRL1eXT3KG3XCThzkACrBB7lXPBUBM6AauaY3G7drd10tftbqESlxSKFKp1RSkZSSObavGhXPI6eeQYtlbQqrT2GX6IaUVOjtUpX+7fOX1Ksb4sW59OLmnLRu6mrkqjJL4VoUDhY6loV0KSekEf5Rg+JhypZOLR1dkmdU2c0yqKd3jI6EHPREE9bai7HGK2ZWzELFLCAsIWK2YhYpYRQrZiK2KWEBYQsLCFitmIFLCFitmIWKWEBYRG6ewo3ZXZKPaTtJndVZxi/L5YclrQlnEuS7asocqSweQA6Q0Os+m6B1mL7lWV98eNI1Dp1yhrLoOgoHfEey/UWT06nSFJkWKdTJVuWlZZCWmWWkhKG0AYCUgdAEZdGKgrI5xxcSeLNzxHds8ZrjrbYmgNiTd+37Ue0SrOW5aWb5vTj+CUstJ61HHSeQHMkAExU8SNOimieoO5e/ZLc/ugpxlpFgh6zLLc+kSDHS3MPoI7pZzxYOCVAFQwEpEkRuTVVEkSSMgYg3cGYg2BEgIAQAgDhACAEAIAQAgBAGt9etBLC3DWJM2RfEiOYU5IVBtA9EU+YxhLzSj1jllPQocjAEeNBtfb50Fvxra5uqnAmb4ktWheD7hEvWJfOG23Fr9OMhIUTnICVc8EgTPgDTG4/bhbWvNtLac7XTrik0KNPqYQCW1faLHLiQeWecWytoI1S2mYaIaY1WjdQrO+H0x/Yqxvmw7m04uactK7qc5JVGSWUrQodytPUtB9Mk9RHKMJnhulbTR1PkWeU2d0yqKd7zoOHyxBYiZftZ2HD5YpLEPJylccXkiHdGVUpDi8keimT15Di8kHMhrMcXkjyWJtJ68hxeSJ6+zceblIcXkiHdHcpryHF5I9IzKqUhxeSDmj015Di8kQ7oR1pDi8keimS15HLlFHiHm5MxHjrtsj3RrayUm0naRPaqTLF/X5LLlbTZUFyzKk93UVA9GOpoEEEjvsEA9cZBQ5O6m05bEam0/5QYZdeiy53n0+wspkadI0yVakafKtS0swhLTTLSQlDaEjASlI5ADyRmUUoqyObZ4k8STnN3bPD64a4WJoBYk3fd91FLLDQKJSUQQZifmMdywyn0yz7QGScAExRkCNui2iF9bl75ldze6KnLZkWMLsuyH0ky1Pl+LKJh9tYHE4rCVDiGVZCjgBKRVIkTTipEQAiNwIqgIqBACAEAcIAQAgBACAEAIAQBrjXrQaxNw9hzFjXxJnhyXpCeZ5TEhMYIDrSvHzwUnkociOjAEeNBddr80EvuX2ubpZ0Lm1BKLSu5xeJeqy/NLbLrigPog4cBR557lXPhUoCZpAOD7UAjUOv22qydfaM1K1xa6fVZRQVLVOXQC62OtBB5KSeXI9YEW6soY1W8yvRrTCs0bxr4DvH1TQh7GfQQfsr1L3Mb+PFteRL1/gZ2uWGt/JX6v4MfOzqD99epe5jfx48vASvz/gei5Yq1f9C/V/Bj52XQfvs1L3Mb+PHqsij6/wKPljrfyF+r+DPzsqgnn81mpe5jfx4PIo+v8AA83yw1v5K/V/A+dlUH77FR9zG/jx5+Al6/wKfbFW/kL9X8D52XQR/wBrNS9zG/jx6LIo+v8AAquWKt/IX6v4MfOzKD99mpe5jfx4r4Cj6/wJ/bFW28iv1fwZ+dl0Hp+azUvcxv48PAUfX+BH7Ya2/kF+r+DHzsug5+yzUvcxv48HkUfX+BL7Yq23kF+r+DPzsqg/fYqXuY38ePLwEr8/4EfthrfyV+r+B87MoP32al7mN/Hj0WRR9f4EvtjrbeRX6v4Hzsqgnn81mpe5jfx4PIo+v8CD5Ya38lfq/g5fOzKB99mpe5bXx48nkK9f4FPtirfyF+r+Ds7W7HDZFGuORqtfvmoVqTlXA45IqlEMpmAOYQpaVEhOQMgdOMR9MMigmnc+ev5V6+sp3h4WGoNrfe/wsS+p9Pk6XJs06nyrUvLS7YbaabSEpQkDAAAi/RWrGyRqbExJYs3Obu2eL1u1tsXQKxJu/b9qHaZVn6HLy7ZHb5x49600knulH2gMk4AJiJAjTotonfO5a/JXc3uep/a5Jkpfsqy3OLtFNZJC0TD6SAFOHCVYUO6IyoYCUiSI3JopSlCUoQkJSkYCQMACJpWPRH6REiIi2BEgIAQAgBACAOEAIAQAgBACAOcAIAQBrHXvQOxdw1iTFj3vJnhJ7dJTzIAmZGYHeutKPQeQyOhQ5GAI66Hbg7127Xcztk3X1JCCykN2jeT2UytUlk9yht1wk8KsBOCrBTzC+pRAmjLzDM00l5haXELAUlaDlKgesHrgD9sCAHCnxQAwPFADAilwMCKgYEUuBgRUDAgBgQAwIAYEAMCAMwBjA8UAa11x3B6a7fbPfu2/qy21hJ9BU9lQXNzznUhpscznl3XejOSQIAjponoff25G/pTc7ukpqpaWllJcs2ylgeh5BjGUPvoPSs5CgDgkgKUAAlIpYE1emKgzACAEAIAQAgBACAEAcIAQAgBACAEAc4AQAgBAHi9VNJtOtY7dVaepFqSFbp6yVoEw2O2MLyBxtLHdNqwe+SQYArj1503re2CvJtTRvW3VKi0ZS0oRIpuRfaWknHJCQkAY8fT4yYowaq+a/r7/AHitTf8A3A5+6IgDV/X0/wD3Fam/+4HP3RJA5DVzX3p/lF6m+76/3Qe4Gfmua+/3jNTfd5XxYigPmua+f3jNTfd5fxY9APmua+/3i9TPd5XxY8WB81zX3+8XqZ7vK+LFUB81vXz+8Zqb7vL+LHoB81zX3+8Zqb7vK+LEWB81zX3+8XqZ7vK+LFAPmua+/wB4vUz3eV8WAHzXNff7xepnu8r4sAPmua+/3i9TPd5XxYA/SW1U15mphmWd3GanhLziWlFNwLSQD0kYHTygCcO23Z7pAoSOr15fJ2+bpmPoiJ26ah6P7QvpCkJKQniGBhSgojqIiYJdnngwBygBACAEAIAQAgBACAEAf//Z;" vertex="1" parent="1">
          <mxGeometry x="414" y="130" width="60" height="60" as="geometry" />
        </mxCell>
        <mxCell id="HJUOC0QFOHcw_SWBB-Hj-56" value="" style="endArrow=classic;startArrow=classic;html=1;rounded=0;exitX=0;exitY=0;exitDx=0;exitDy=0;entryX=1;entryY=0;entryDx=0;entryDy=0;" edge="1" source="HJUOC0QFOHcw_SWBB-Hj-53" target="HJUOC0QFOHcw_SWBB-Hj-53" parent="1">
          <mxGeometry width="50" height="50" relative="1" as="geometry">
            <mxPoint x="454" y="210" as="sourcePoint" />
            <mxPoint x="504" y="160" as="targetPoint" />
          </mxGeometry>
        </mxCell>
        <mxCell id="HJUOC0QFOHcw_SWBB-Hj-57" value="20px" style="edgeLabel;html=1;align=center;verticalAlign=middle;resizable=0;points=[];" vertex="1" connectable="0" parent="HJUOC0QFOHcw_SWBB-Hj-56">
          <mxGeometry x="-0.0654" y="-1" relative="1" as="geometry">
            <mxPoint as="offset" />
          </mxGeometry>
        </mxCell>
        <mxCell id="HJUOC0QFOHcw_SWBB-Hj-58" value="" style="endArrow=classic;startArrow=classic;html=1;rounded=0;exitX=0;exitY=1;exitDx=0;exitDy=0;entryX=0;entryY=0;entryDx=0;entryDy=0;" edge="1" source="HJUOC0QFOHcw_SWBB-Hj-53" target="HJUOC0QFOHcw_SWBB-Hj-53" parent="1">
          <mxGeometry width="50" height="50" relative="1" as="geometry">
            <mxPoint x="454" y="210" as="sourcePoint" />
            <mxPoint x="504" y="160" as="targetPoint" />
          </mxGeometry>
        </mxCell>
        <mxCell id="HJUOC0QFOHcw_SWBB-Hj-59" value="20px" style="edgeLabel;html=1;align=center;verticalAlign=middle;resizable=0;points=[];" vertex="1" connectable="0" parent="HJUOC0QFOHcw_SWBB-Hj-58">
          <mxGeometry x="0.1449" relative="1" as="geometry">
            <mxPoint as="offset" />
          </mxGeometry>
        </mxCell>
        <mxCell id="HJUOC0QFOHcw_SWBB-Hj-63" value="(46px; 20px)" style="text;html=1;strokeColor=none;fillColor=none;align=center;verticalAlign=middle;whiteSpace=wrap;rounded=0;" vertex="1" parent="1">
          <mxGeometry x="401" y="185" width="86" height="30" as="geometry" />
        </mxCell>
        <mxCell id="HJUOC0QFOHcw_SWBB-Hj-64" value="" style="endArrow=classic;html=1;rounded=0;exitX=0.5;exitY=1;exitDx=0;exitDy=0;entryX=0.458;entryY=0.046;entryDx=0;entryDy=0;entryPerimeter=0;" edge="1" parent="1" source="HJUOC0QFOHcw_SWBB-Hj-63" target="HJUOC0QFOHcw_SWBB-Hj-66">
          <mxGeometry width="50" height="50" relative="1" as="geometry">
            <mxPoint x="470" y="190" as="sourcePoint" />
            <mxPoint x="440.8377793799567" y="230" as="targetPoint" />
          </mxGeometry>
        </mxCell>
        <mxCell id="HJUOC0QFOHcw_SWBB-Hj-66" value="Absolute Koordinaten relativ zum Mittelpunkt" style="text;html=1;strokeColor=none;fillColor=none;align=center;verticalAlign=middle;whiteSpace=wrap;rounded=0;" vertex="1" parent="1">
          <mxGeometry x="380" y="240" width="136" height="30" as="geometry" />
        </mxCell>
        <mxCell id="HJUOC0QFOHcw_SWBB-Hj-68" value="" style="endArrow=classic;html=1;rounded=0;" edge="1" parent="1">
          <mxGeometry width="50" height="50" relative="1" as="geometry">
            <mxPoint x="680" y="150" as="sourcePoint" />
            <mxPoint x="80" y="290" as="targetPoint" />
            <Array as="points">
              <mxPoint x="620" y="290" />
              <mxPoint x="450" y="340" />
              <mxPoint x="90" y="340" />
            </Array>
          </mxGeometry>
        </mxCell>
        <mxCell id="HJUOC0QFOHcw_SWBB-Hj-70" value="Mindestens 30 Wiederholungen" style="text;html=1;strokeColor=none;fillColor=none;align=center;verticalAlign=middle;whiteSpace=wrap;rounded=0;" vertex="1" parent="1">
          <mxGeometry x="560" y="310" width="60" height="30" as="geometry" />
        </mxCell>
        <mxCell id="HJUOC0QFOHcw_SWBB-Hj-72" value="" style="endArrow=classic;html=1;rounded=0;" edge="1" parent="1">
          <mxGeometry width="50" height="50" relative="1" as="geometry">
            <mxPoint x="400" y="360" as="sourcePoint" />
            <mxPoint x="400" y="420" as="targetPoint" />
          </mxGeometry>
        </mxCell>
        <mxCell id="HJUOC0QFOHcw_SWBB-Hj-86" style="edgeStyle=orthogonalEdgeStyle;rounded=0;orthogonalLoop=1;jettySize=auto;html=1;entryX=0.5;entryY=0;entryDx=0;entryDy=0;" edge="1" parent="1" source="HJUOC0QFOHcw_SWBB-Hj-73" target="HJUOC0QFOHcw_SWBB-Hj-85">
          <mxGeometry relative="1" as="geometry" />
        </mxCell>
        <mxCell id="HJUOC0QFOHcw_SWBB-Hj-73" value="Vierdimensionales Koordinatensystem" style="text;html=1;strokeColor=none;fillColor=none;align=center;verticalAlign=middle;whiteSpace=wrap;rounded=0;" vertex="1" parent="1">
          <mxGeometry x="340" y="430" width="120" height="30" as="geometry" />
        </mxCell>
        <mxCell id="HJUOC0QFOHcw_SWBB-Hj-74" value="Abstand (cm)" style="text;html=1;strokeColor=none;fillColor=none;align=left;verticalAlign=middle;whiteSpace=wrap;rounded=0;" vertex="1" parent="1">
          <mxGeometry x="298" y="540" width="86" height="30" as="geometry" />
        </mxCell>
        <mxCell id="HJUOC0QFOHcw_SWBB-Hj-75" value="Größe (px)" style="text;html=1;strokeColor=none;fillColor=none;align=left;verticalAlign=middle;whiteSpace=wrap;rounded=0;" vertex="1" parent="1">
          <mxGeometry x="298" y="560" width="86" height="30" as="geometry" />
        </mxCell>
        <mxCell id="HJUOC0QFOHcw_SWBB-Hj-76" value="X (px)" style="text;html=1;strokeColor=none;fillColor=none;align=left;verticalAlign=middle;whiteSpace=wrap;rounded=0;" vertex="1" parent="1">
          <mxGeometry x="298" y="580" width="86" height="30" as="geometry" />
        </mxCell>
        <mxCell id="HJUOC0QFOHcw_SWBB-Hj-77" value="Y (px)" style="text;html=1;strokeColor=none;fillColor=none;align=left;verticalAlign=middle;whiteSpace=wrap;rounded=0;" vertex="1" parent="1">
          <mxGeometry x="298" y="600" width="86" height="30" as="geometry" />
        </mxCell>
        <mxCell id="HJUOC0QFOHcw_SWBB-Hj-78" value="" style="endArrow=classic;html=1;rounded=0;exitX=1;exitY=0.5;exitDx=0;exitDy=0;" edge="1" parent="1" source="HJUOC0QFOHcw_SWBB-Hj-75">
          <mxGeometry width="50" height="50" relative="1" as="geometry">
            <mxPoint x="434" y="530" as="sourcePoint" />
            <mxPoint x="424" y="590" as="targetPoint" />
          </mxGeometry>
        </mxCell>
        <mxCell id="HJUOC0QFOHcw_SWBB-Hj-79" value="" style="endArrow=classic;html=1;rounded=0;exitX=1;exitY=0.5;exitDx=0;exitDy=0;" edge="1" parent="1" source="HJUOC0QFOHcw_SWBB-Hj-76">
          <mxGeometry width="50" height="50" relative="1" as="geometry">
            <mxPoint x="394" y="600" as="sourcePoint" />
            <mxPoint x="424" y="590" as="targetPoint" />
          </mxGeometry>
        </mxCell>
        <mxCell id="HJUOC0QFOHcw_SWBB-Hj-80" value="" style="endArrow=classic;html=1;rounded=0;exitX=1;exitY=0.5;exitDx=0;exitDy=0;" edge="1" parent="1" source="HJUOC0QFOHcw_SWBB-Hj-77">
          <mxGeometry width="50" height="50" relative="1" as="geometry">
            <mxPoint x="394" y="600" as="sourcePoint" />
            <mxPoint x="424" y="590" as="targetPoint" />
          </mxGeometry>
        </mxCell>
        <mxCell id="HJUOC0QFOHcw_SWBB-Hj-82" style="edgeStyle=orthogonalEdgeStyle;rounded=0;orthogonalLoop=1;jettySize=auto;html=1;entryX=1;entryY=0.5;entryDx=0;entryDy=0;" edge="1" parent="1" source="HJUOC0QFOHcw_SWBB-Hj-81" target="HJUOC0QFOHcw_SWBB-Hj-74">
          <mxGeometry relative="1" as="geometry">
            <Array as="points">
              <mxPoint x="504" y="595" />
              <mxPoint x="504" y="555" />
            </Array>
          </mxGeometry>
        </mxCell>
        <mxCell id="HJUOC0QFOHcw_SWBB-Hj-83" value="Bestimmen" style="edgeLabel;html=1;align=center;verticalAlign=middle;resizable=0;points=[];" vertex="1" connectable="0" parent="HJUOC0QFOHcw_SWBB-Hj-82">
          <mxGeometry x="0.0124" relative="1" as="geometry">
            <mxPoint as="offset" />
          </mxGeometry>
        </mxCell>
        <mxCell id="HJUOC0QFOHcw_SWBB-Hj-81" value="Messen" style="text;html=1;strokeColor=none;fillColor=none;align=center;verticalAlign=middle;whiteSpace=wrap;rounded=0;" vertex="1" parent="1">
          <mxGeometry x="425" y="580" width="60" height="30" as="geometry" />
        </mxCell>
        <mxCell id="HJUOC0QFOHcw_SWBB-Hj-90" style="edgeStyle=orthogonalEdgeStyle;rounded=0;orthogonalLoop=1;jettySize=auto;html=1;entryX=0.5;entryY=0;entryDx=0;entryDy=0;" edge="1" parent="1" source="HJUOC0QFOHcw_SWBB-Hj-85" target="HJUOC0QFOHcw_SWBB-Hj-87">
          <mxGeometry relative="1" as="geometry" />
        </mxCell>
        <mxCell id="HJUOC0QFOHcw_SWBB-Hj-85" value="Regressionsmodell" style="text;html=1;strokeColor=none;fillColor=none;align=center;verticalAlign=middle;whiteSpace=wrap;rounded=0;" vertex="1" parent="1">
          <mxGeometry x="338.5" y="480" width="123" height="30" as="geometry" />
        </mxCell>
      </root>
    </mxGraphModel>
  </diagram>
</mxfile>
